<?xml version="1.0" encoding="UTF-8"?>
<!DOCTYPE svg PUBLIC "-//W3C//DTD SVG 1.1//EN" "http://www.w3.org/Graphics/SVG/1.1/DTD/svg11.dtd">
<!-- Creator: CorelDRAW 2020 (64-Bit) -->
<svg xmlns="http://www.w3.org/2000/svg" xml:space="preserve" width="862px" height="1196px" version="1.1" style="shape-rendering:geometricPrecision; text-rendering:geometricPrecision; image-rendering:optimizeQuality; fill-rule:evenodd; clip-rule:evenodd"
viewBox="0 0 454.43 630.47"
 xmlns:xlink="http://www.w3.org/1999/xlink"
 xmlns:xodm="http://www.corel.com/coreldraw/odm/2003">
 <defs>
  <style type="text/css">
   <![CDATA[
    .fil1 {fill:#AAAF0F}
    .fil2 {fill:#3C4A28}
    .fil0 {fill:#00778E}
    .fil3 {fill:#3C4A28;fill-rule:nonzero}
   ]]>
  </style>
 </defs>
 <g id="Слой_x0020_1">
  <metadata id="CorelCorpID_0Corel-Layer"/>
  <g id="_2559793819424">
   <g>
    <polygon class="fil0" points="104.9,548.79 139.91,513.78 186.59,560.46 233.18,514.14 268.27,548.79 256.44,560.14 233.26,537.12 186.59,583.79 139.91,537.12 116.57,560.46 "/>
    <polygon class="fil0" points="128.24,572.12 139.91,560.46 186.59,607.13 233.26,560.46 244.81,572.75 197.89,620.36 186.59,630.47 "/>
    <path class="fil0" d="M279.94 513.78c45.67,-46.32 46.67,-46.68 46.67,-46.68 3.42,3.38 8.26,8.29 11.67,11.67 -19.38,19.17 -38.96,39.18 -58.34,58.35 -15.51,-15.33 -31.08,-31.97 -46.59,-47.3 -15.5,15.33 -31.26,31.97 -46.76,47.3l-46.68 -46.68c-15.5,15.33 -31.17,31.35 -46.67,46.68 -19.39,-19.17 -38.97,-39.18 -58.35,-58.35 3.88,-3.83 7.79,-7.83 11.67,-11.67 15.5,15.33 31.17,31.35 46.68,46.68 15.5,-15.33 31.17,-31.35 46.67,-46.68 15.51,15.33 31.17,31.35 46.68,46.68 15.5,-15.33 31.26,-31.62 46.76,-46.95 15.68,15.5 30.93,31.42 46.59,46.95z"/>
   </g>
   <path class="fil1" d="M186.67 442.94c13.8,-12.9 27.57,-26.46 41.22,-40.33 0,23.36 -0.12,23.36 -0.14,23.35 -13.77,13.68 -27.37,27.51 -41.16,41.14 -15.51,-15.33 -31.17,-31.34 -46.68,-46.67 -15.5,15.33 -31.17,31.34 -46.67,46.67 -15.51,-15.33 -31.17,-31.34 -46.68,-46.67l-35.01 35 11.67 11.67c7.75,-7.66 15.59,-15.67 23.34,-23.33 15.51,15.33 31.17,31.34 46.68,46.67 15.5,-15.33 31.17,-31.34 46.67,-46.67 15.51,15.33 31.17,31.34 46.68,46.67 15.5,-15.33 31.26,-31.28 46.76,-46.61 15.51,15.33 31.08,31.28 46.59,46.61l46.61 -46.59c11.63,11.44 17.48,17.14 20.36,20.03l2.94 2.96c3.91,-3.5 7.89,-7.57 11.77,-11.41l-29.37 -29.32c0.18,0.11 0.18,0.46 0.3,-22.95 12.91,12.69 29.43,29.42 40.74,40.61 0,-7.67 0,-15.68 0,-23.34 -12.03,-11.9 -27.82,-27.91 -40.74,-40.76 0.11,0.15 0.11,0.15 0.11,-23.22 12.8,12.73 29.33,29.47 40.63,40.64 0,-7.67 0,-15.67 0,-23.34 -10.88,-10.75 -27.6,-27.9 -40.46,-40.55 -0.19,0 -0.19,0 -0.03,-23.25 13.03,12.93 28.83,28.94 40.49,40.46 0,-7.66 0,-15.67 0,-23.33 -11.71,-11.24 -29.13,-28.1 -40.66,-40.86 0.06,0.03 -0.05,-0.2 -0.05,-23.47 12.65,12.75 29.83,30.23 40.71,40.99 0,-7.67 0,-15.67 0,-23.34 -15.76,-15.58 -31.02,-31.19 -46.56,-46.85l-46.56 46.5 -0.23 23.34 40.98 -41.15c-0.03,23.42 -0.03,23.76 -0.01,23.59l-40.74 40.9 0 23.34 40.62 -40.56c0.09,3.68 0.07,23.22 0.06,23.17l-40.68 40.73c-14.04,-13.05 -30.49,-30.45 -46.68,-46.68 -16.48,16.23 -32.25,32.49 -46.67,46.68 0,7.66 0,15.67 0,23.33l40.63 -40.4c-0.01,4.45 -0.13,7.54 -0.13,10.43 0,12.52 0,12.52 -0.02,12.65 -10.7,10.79 -30.57,30.9 -40.65,40.39 -0.17,23.06 0.1,22.29 0.02,23.13zm93.5 0.48l-40.96 -40.97c-0.02,23.31 -0.02,23.31 0,23.34l40.96 40.97 40.16 -39.91c0,0.24 0,0.01 -0.03,-23.42l-40.13 39.99zm0 -23.34l40.49 -40.25c-0.06,0.31 -0.06,-0.15 -0.06,-23.51l-40.43 40.42c-7.03,-6.91 -13.57,-13.85 -20.14,-20.72 -6.57,-6.87 -13.16,-13.68 -20.34,-20.26 -0.02,23.99 -0.14,23.46 -0.09,23.6l40.57 40.72z"/>
   <g>
    <path class="fil2" d="M353.41 165.32l8.22 -6.27c6.21,-13.72 6.68,-21.43 6.33,-31.03 2.95,-0.07 5.23,-1.18 7.57,-3.85 13.44,-15.35 17.66,-61.61 4.79,-76.35 -1.57,-1.8 -5.77,1.18 -9.04,3.36 -11.79,7.87 -22.57,23.53 -22.62,35.59 -0.05,12.39 0.79,17.61 3.38,31.16 2.98,15.6 4.37,31.38 -2.67,46.64l4.04 0.75zm10.7 -91.19c0.96,0 2.04,0.44 3.1,1.59 6.14,6.65 11.92,31.31 4.98,37.77 -1.11,1.03 -3.46,1.97 -5.27,2.31 -3.42,-5.67 -6.97,-32.63 -5.04,-39.37 0.43,-1.52 1.09,-2.3 2.18,-2.3l0.05 0z"/>
    <path class="fil2" d="M404.67 61.47c0.79,0.52 1.66,1.44 2.32,2.97 2.02,4.68 5.16,15.72 4.95,20.16 -0.29,6.17 -6.03,15.72 -9.13,21.1 -5.97,10.81 -12.27,20.56 -12.27,33.42 0,4.1 -0.06,14.32 6.98,14.42 6.02,0.08 10.28,-5.81 12.91,-10.58 3.61,-6.59 7.31,-14.44 11.07,-23.55l0 0 8.25 30.67c0.84,2.21 4.37,3.46 6.56,3.46 1.54,-0.09 4.08,-0.39 7.6,-0.88 3.46,-0.41 5.83,-0.86 7.14,-1.32 3.71,-1.8 2.19,-5.8 0.88,-8.74 -0.92,-2.15 -2.14,-4.78 -3.35,-8 -8.03,-21.3 -14.77,-45.33 -16.99,-63.97 -0.48,-4.03 -1.04,-12.04 -6.29,-12.04l-19.45 0 -1.18 2.88zm11.44 35.98c1.66,3.76 3.2,7.98 3.2,12.14 -0.14,5.25 -2.86,12.05 -6.55,15.88 -1.3,1.38 -2.65,2.06 -4.02,2.06 -0.67,-0.1 -1.01,-1.58 -1.01,-4.4 0,-5.89 3.66,-22.2 8.38,-25.68z"/>
    <path class="fil2" d="M315.55 11.16l0.37 -5.18c-25.14,-9.96 -52.28,1.5 -55.87,33.25 -3.34,29.51 -5.03,45.38 -8.86,75.05 -2.67,0.09 -4.11,-1.18 -5.92,-3.71 -1.87,-2.62 -3.88,-7.95 -5.58,-16.16l-16.15 -77.92c-0.79,-3.83 -4.6,-6.17 -8.86,-7.72 -4.48,-1.64 -9.93,-2.33 -16.24,-2.33l-29.89 0 0 7.51c7.11,0.49 12.75,2.14 16.92,4.96 4.11,2.91 7.3,8.68 9.53,17.23 4.05,15.45 7.68,24.85 10.7,39.97 3.01,15.07 5.95,26.89 9.29,35.28 1.5,3.78 3.57,6.67 5.79,8.92 2.29,2.32 4.62,4.04 7.11,5.12 2.51,1.09 5.12,1.83 7.82,2.24 2.51,0.38 4.93,0.52 7.29,0.52 1.57,0 2.72,0.22 3.41,0.74 0.57,0.43 0.92,1.65 0.85,3.49 -0.9,24.39 -14.05,53.27 -14.28,81.1 -0.06,7.13 0.4,14.5 1.2,22.09l10.54 0 5.76 -5.57c-0.8,-2.7 -1.47,-6.32 -2.42,-10.76 -0.95,-4.48 -1.72,-9.17 -1.65,-14.2 0.28,-21.22 13.83,-53.72 17.84,-76.89 6.83,-39.49 11.44,-66.98 13.11,-79.21 1.68,-12.23 5.66,-20.63 14.96,-20.69 4.29,-0.03 7.48,2.48 9.5,7.76l3.04 0c1.41,-6.1 3.22,-11.53 5.48,-16.28 1.11,-2.45 2.12,-4.41 3.04,-5.82 0.95,-1.51 1.65,-2.43 2.17,-2.79z"/>
    <path class="fil2" d="M315.42 58.77c-10.71,-0.17 -12.28,-0.52 -15.85,-0.59 -1.86,-0.04 -3.35,0.56 -3.99,1.91 -1.45,3.05 -1.92,10.17 -1.92,21.11 0,18.54 0.43,49.94 2.43,69.27l4.1 1.66c1.01,-0.06 9.48,-1.03 10.28,-1.13 1.87,-0.23 2.89,-1.52 2.78,-3.57 -0.62,-11.84 -1.31,-37.8 -1.6,-59.1 -0.04,-3.4 0.29,-6.73 0.51,-10 0.2,-3.11 0.53,-6.03 1.09,-8.74 0.91,-4.41 3.49,-5.96 6.36,-5.96 2.3,0 4.04,0.92 5.2,2.73 0.1,0.16 1.65,7.13 1.64,18.71 0,2.1 0.68,4.18 1.55,4.18 2.7,0 2.82,-0.42 6.41,-0.2l5.62 0.34c1.92,0.11 6.41,-27.67 6.41,-28.82 0,-1.91 -1.82,-2.96 -5.5,-3.04 -1.12,-0.02 -3.16,0.11 -11.19,0.51 -8.21,0.4 -7.25,0.84 -14.33,0.73z"/>
    <path class="fil3" d="M291.84 193.79l-3.66 0 0 -5.49 -4.23 0 0 5.49 -3.66 0 0 -13.48 3.66 0 0 5.01 4.23 0 0 -5.01 3.66 0 0 13.48zm11.19 0l-0.67 -2.53 -4.38 0 -0.68 2.53 -4 0 4.4 -13.54 4.86 0 4.45 13.54 -3.98 0zm-1.42 -5.51l-0.58 -2.22c-0.14,-0.49 -0.3,-1.12 -0.5,-1.9 -0.19,-0.79 -0.32,-1.34 -0.38,-1.68 -0.05,0.31 -0.16,0.83 -0.32,1.55 -0.17,0.72 -0.53,2.13 -1.09,4.25l2.87 0zm17.92 2.53l2.83 0 0 7.17 -3.55 0 0 -4.19 -10.34 0 0 -13.48 3.66 0 0 10.5 3.74 0 0 -10.5 3.66 0 0 10.5zm4.63 -10.5l3.24 0 0 5.79c0,0.62 -0.05,1.85 -0.14,3.69l0.07 0 5.37 -9.48 4.5 0 0 13.48 -3.23 0 0 -5.64c0,-0.86 0.06,-2.13 0.17,-3.84l-0.08 0 -5.41 9.48 -4.49 0 0 -13.48zm28.57 6.73c0,2.27 -0.55,3.99 -1.67,5.17 -1.11,1.18 -2.74,1.77 -4.88,1.77 -2.12,0 -3.74,-0.59 -4.87,-1.78 -1.13,-1.19 -1.69,-2.91 -1.69,-5.18 0,-2.24 0.56,-3.96 1.68,-5.14 1.12,-1.18 2.75,-1.78 4.89,-1.78 2.15,0 3.77,0.59 4.88,1.77 1.11,1.17 1.66,2.89 1.66,5.17zm-9.27 -0.01c0,2.61 0.9,3.91 2.72,3.91 0.92,0 1.6,-0.32 2.05,-0.95 0.44,-0.63 0.67,-1.62 0.67,-2.96 0,-1.34 -0.23,-2.34 -0.68,-2.98 -0.45,-0.64 -1.13,-0.96 -2.03,-0.96 -1.82,0 -2.73,1.31 -2.73,3.94zm23.25 6.76l-3.66 0 0 -5.49 -4.23 0 0 5.49 -3.66 0 0 -13.48 3.66 0 0 5.01 4.23 0 0 -5.01 3.66 0 0 13.48zm11.19 0l-0.66 -2.53 -4.38 0 -0.68 2.53 -4.01 0 4.4 -13.54 4.86 0 4.45 13.54 -3.98 0zm-1.42 -5.51l-0.58 -2.22c-0.14,-0.49 -0.3,-1.12 -0.5,-1.9 -0.19,-0.79 -0.32,-1.34 -0.38,-1.68 -0.05,0.31 -0.16,0.83 -0.32,1.55 -0.17,0.72 -0.53,2.13 -1.09,4.25l2.87 0zm18.33 5.51l-3.66 0 0 -10.5 -2.57 0c-0.14,1.53 -0.33,3.09 -0.57,4.68 -0.23,1.59 -0.46,2.7 -0.67,3.34 -0.22,0.64 -0.49,1.15 -0.82,1.52 -0.33,0.38 -0.73,0.67 -1.22,0.86 -0.49,0.19 -1.07,0.29 -1.76,0.29 -0.52,0 -1,-0.07 -1.43,-0.2l0 -2.82c0.37,0.13 0.67,0.19 0.9,0.19 0.33,0 0.57,-0.14 0.74,-0.4 0.17,-0.27 0.32,-0.72 0.46,-1.37 0.14,-0.64 0.34,-1.83 0.59,-3.58 0.25,-1.74 0.49,-3.57 0.7,-5.49l9.31 0 0 13.48zm12.54 -4.47c0,1.44 -0.49,2.54 -1.47,3.31 -0.98,0.78 -2.37,1.16 -4.17,1.16l-3.98 0 0 -13.48 3.66 0 0 4.8 0.19 0c1.87,0 3.31,0.35 4.29,1.06 0.99,0.71 1.48,1.76 1.48,3.15zm-5.96 1.68l0.17 0c1.42,0 2.13,-0.53 2.13,-1.59 0,-1 -0.71,-1.51 -2.15,-1.51l-0.15 0 0 3.1zm19.65 2.79l-3.66 0 0 -5.49 -4.23 0 0 5.49 -3.66 0 0 -13.48 3.66 0 0 5.01 4.23 0 0 -5.01 3.66 0 0 13.48zm12.55 -4.47c0,1.44 -0.49,2.54 -1.47,3.31 -0.99,0.78 -2.38,1.16 -4.18,1.16l-3.98 0 0 -13.48 3.66 0 0 4.8 0.19 0c1.87,0 3.31,0.35 4.3,1.06 0.98,0.71 1.48,1.76 1.48,3.15zm-5.97 1.66l0.15 0c1.42,0 2.14,-0.53 2.14,-1.59 0,-1.02 -0.72,-1.53 -2.16,-1.53l-0.13 0 0 3.12zm10.86 2.81l-3.67 0 0 -13.48 3.67 0 0 13.48zm2.9 -13.48l3.25 0 0 5.79c0,0.62 -0.05,1.85 -0.15,3.69l0.08 0 5.37 -9.48 4.5 0 0 13.48 -3.23 0 0 -5.64c0,-0.86 0.05,-2.13 0.17,-3.84l-0.08 0 -5.42 9.48 -4.49 0 0 -13.48zm6.5 -1.07c-1.47,0 -2.57,-0.29 -3.3,-0.86 -0.73,-0.57 -1.13,-1.46 -1.22,-2.66l3.01 0c0.03,0.6 0.16,1.04 0.39,1.31 0.24,0.27 0.61,0.41 1.12,0.41 0.92,0 1.43,-0.57 1.51,-1.72l3.05 0c-0.25,2.34 -1.77,3.52 -4.56,3.52zm-156.54 36.9l-3.67 0 0 -10.5 -3.72 0 0 10.5 -3.66 0 0 -13.48 11.05 0 0 13.48zm11.17 0l-0.66 -2.53 -4.38 0 -0.68 2.53 -4 0 4.39 -13.54 4.86 0 4.45 13.54 -3.98 0zm-1.42 -5.52l-0.58 -2.21c-0.13,-0.49 -0.3,-1.13 -0.49,-1.91 -0.19,-0.78 -0.32,-1.34 -0.38,-1.68 -0.06,0.32 -0.17,0.83 -0.33,1.55 -0.16,0.72 -0.53,2.14 -1.09,4.25l2.87 0zm16.65 -3.68c0,1.51 -0.45,2.67 -1.34,3.49 -0.89,0.82 -2.15,1.23 -3.78,1.23l-1.03 0 0 4.48 -3.64 0 0 -13.48 4.67 0c1.7,0 2.98,0.37 3.83,1.11 0.86,0.75 1.29,1.8 1.29,3.17zm-6.15 1.76l0.67 0c0.54,0 0.98,-0.16 1.3,-0.46 0.33,-0.31 0.49,-0.73 0.49,-1.28 0,-0.91 -0.51,-1.36 -1.52,-1.36l-0.94 0 0 3.1zm20.08 7.44l-4.12 0 -4.01 -6.83 0 6.83 -3.66 0 0 -13.48 3.66 0 0 6.53 3.86 -6.53 4 0 -4.16 6.43 4.43 7.05z"/>
    <path class="fil2" d="M186.84 442.68c-15.47,-15.3 -31.46,-30.29 -46.93,-45.59 -15.5,15.33 -31.17,31.34 -46.67,46.68 -10.18,-10.07 -20.42,-20.42 -30.65,-30.68 -5.35,-5.38 -10.7,-10.73 -16.03,-16 0.05,-0.2 -35.21,35.74 -46.56,46.5 0.12,-2.06 0.12,-3.94 0.12,-5.83 0,-1.95 0,-3.9 0,-5.84 0.01,-2.21 0.01,-4.42 0.01,-6.63 0,-3.03 0.01,-6.07 0.02,-9.11l0.96 -253.76c0.1,-26.81 0.77,-46.28 7.36,-62.82 11.53,-28.93 60.99,-61.39 85,-99.6 23.15,34.84 68.88,67.24 82.53,93.91 8.73,17.06 11.02,38.35 11.21,68.84l-0.39 70.63c-0.07,11.67 0.67,14.48 0,23.34l-23.41 -24.23c34.62,-70.66 -12.44,-85.89 -67.77,-83.93 -68.13,2.42 -76,46.29 -47.89,104.26 31.02,63.98 87.52,116.54 138.79,166.99l0.3 17.17 0 5.7z"/>
   </g>
  </g>
 </g>
</svg>
