<?xml version="1.0" encoding="UTF-8"?>
<svg xmlns="http://www.w3.org/2000/svg" xmlns:xlink="http://www.w3.org/1999/xlink" width="158.74pt" height="158.74pt" viewBox="0 0 158.74 158.74" version="1.1">
<defs>
<clipPath id="clip1">
  <path d="M 0 0 L 158.738281 0 L 158.738281 158.738281 L 0 158.738281 Z M 0 0 "/>
</clipPath>
</defs>
<g id="surface1">
<g clip-path="url(#clip1)" clip-rule="nonzero">
<path style=" stroke:none;fill-rule:evenodd;fill:rgb(95.675659%,93.772888%,11.019897%);fill-opacity:1;" d="M 79.371094 0 C 123.199219 0 158.742188 35.542969 158.742188 79.371094 C 158.742188 123.199219 123.199219 158.738281 79.371094 158.738281 C 35.542969 158.738281 0 123.199219 0 79.371094 C 0 35.542969 35.542969 0 79.371094 0 "/>
</g>
<path style=" stroke:none;fill-rule:evenodd;fill:rgb(100%,100%,100%);fill-opacity:1;" d="M 79.371094 40.015625 C 101.101563 40.015625 118.722656 57.636719 118.722656 79.367188 C 118.722656 101.101563 101.101563 118.726563 79.371094 118.726563 C 57.636719 118.726563 40.015625 101.101563 40.015625 79.367188 C 40.015625 57.636719 57.636719 40.015625 79.371094 40.015625 "/>
<path style=" stroke:none;fill-rule:evenodd;fill:rgb(12.275696%,37.348938%,18.751526%);fill-opacity:1;" d="M 83.339844 60.324219 L 83.339844 69.527344 L 72.042969 60.445313 L 52.824219 75.894531 L 52.824219 79.054688 L 72.042969 63.605469 L 83.339844 72.6875 L 83.339844 81.558594 L 72.042969 72.476563 L 52.824219 87.925781 L 52.824219 91.085938 L 70.136719 77.167969 L 70.136719 98.339844 L 53.179688 98.339844 L 53.179688 102.152344 L 105.042969 102.152344 L 105.042969 98.339844 L 73.949219 98.339844 L 73.949219 77.167969 L 81.699219 83.398438 C 81.679688 83.683594 81.667969 83.972656 81.667969 84.261719 C 81.667969 90.960938 87.097656 96.386719 93.792969 96.386719 C 100.488281 96.386719 105.917969 90.960938 105.917969 84.261719 C 105.917969 78.460938 101.839844 73.609375 96.390625 72.421875 C 97.824219 70.917969 98.707031 68.878906 98.707031 66.636719 C 98.707031 63 96.386719 59.90625 93.148438 58.742188 C 93.492188 57.992188 93.683594 57.160156 93.683594 56.285156 C 93.683594 53.011719 91.027344 50.355469 87.753906 50.355469 C 84.589844 50.355469 82.003906 52.835938 81.832031 55.957031 L 72.042969 48.085938 L 52.824219 63.535156 L 52.824219 66.691406 L 72.042969 51.242188 Z M 83.339844 60.324219 "/>
<path style=" stroke:none;fill-rule:nonzero;fill:rgb(12.275696%,37.348938%,18.751526%);fill-opacity:1;" d="M 43.503906 121.238281 C 43.316406 121.054688 43.109375 120.972656 42.886719 120.996094 C 42.664063 121.019531 42.359375 121.175781 41.972656 121.457031 C 41.632813 121.707031 41.136719 122.125 40.492188 122.710938 C 39.84375 123.300781 38.859375 124.21875 37.53125 125.476563 L 34.332031 122.378906 L 40.175781 116.34375 L 41.234375 117.371094 L 36.359375 122.40625 L 37.484375 123.492188 C 39.265625 121.832031 40.507813 120.738281 41.207031 120.214844 C 41.675781 119.855469 42.09375 119.632813 42.464844 119.542969 C 42.832031 119.457031 43.171875 119.476563 43.472656 119.605469 C 43.777344 119.734375 44.097656 119.957031 44.433594 120.28125 Z M 43.503906 121.238281 "/>
<path style=" stroke:none;fill-rule:nonzero;fill:rgb(12.275696%,37.348938%,18.751526%);fill-opacity:1;" d="M 29.824219 117.105469 L 36.078125 114.492188 C 36.617188 114.273438 37.066406 114.152344 37.425781 114.128906 C 37.785156 114.105469 38.105469 114.171875 38.390625 114.332031 C 38.671875 114.492188 38.972656 114.761719 39.285156 115.132813 L 39.484375 115.375 L 38.46875 116.21875 L 38.238281 115.941406 C 38.027344 115.691406 37.808594 115.550781 37.582031 115.527344 C 37.355469 115.503906 37.019531 115.589844 36.574219 115.78125 L 33.277344 121.253906 L 32.28125 120.058594 L 34.398438 116.734375 L 30.8125 118.292969 Z M 29.824219 117.105469 "/>
<path style=" stroke:none;fill-rule:nonzero;fill:rgb(12.275696%,37.348938%,18.751526%);fill-opacity:1;" d="M 26.378906 112.0625 L 33.398438 107.359375 L 34.21875 108.585938 L 31.714844 110.261719 C 31.996094 110.488281 32.242188 110.765625 32.460938 111.09375 C 32.886719 111.730469 33.019531 112.367188 32.859375 113 C 32.695313 113.632813 32.25 114.195313 31.527344 114.679688 L 29.183594 116.25 L 28.363281 115.023438 L 30.765625 113.414063 C 31.496094 112.921875 31.640625 112.347656 31.195313 111.679688 C 31.023438 111.429688 30.820313 111.207031 30.578125 111.023438 L 27.199219 113.289063 Z M 26.378906 112.0625 "/>
<path style=" stroke:none;fill-rule:nonzero;fill:rgb(12.275696%,37.348938%,18.751526%);fill-opacity:1;" d="M 25.023438 109.945313 L 24.398438 108.636719 L 30.703125 105.609375 L 29.878906 103.890625 L 23.570313 106.917969 L 22.941406 105.609375 L 29.25 102.582031 L 28.425781 100.859375 L 22.117188 103.886719 L 21.488281 102.578125 L 29.0625 98.945313 L 32.597656 106.3125 Z M 25.023438 109.945313 "/>
<path style=" stroke:none;fill-rule:nonzero;fill:rgb(12.275696%,37.348938%,18.751526%);fill-opacity:1;" d="M 26.054688 93.957031 L 27.378906 93.535156 L 28.707031 97.671875 L 20.707031 100.234375 L 19.417969 96.214844 L 20.742188 95.789063 L 21.582031 98.40625 L 23.558594 97.769531 L 22.789063 95.371094 L 24.070313 94.960938 L 24.839844 97.359375 L 26.929688 96.6875 Z M 26.054688 93.957031 "/>
<path style=" stroke:none;fill-rule:nonzero;fill:rgb(12.275696%,37.348938%,18.751526%);fill-opacity:1;" d="M 24.867188 88.585938 L 26.226563 88.296875 L 27.136719 92.542969 L 18.921875 94.296875 L 18.039063 90.167969 L 19.398438 89.875 L 19.972656 92.5625 L 22.003906 92.128906 L 21.476563 89.664063 L 22.792969 89.386719 L 23.320313 91.847656 L 25.464844 91.390625 Z M 24.867188 88.585938 "/>
<path style=" stroke:none;fill-rule:nonzero;fill:rgb(12.275696%,37.348938%,18.751526%);fill-opacity:1;" d="M 17.273438 85.195313 L 17.234375 83.742188 L 24.226563 83.550781 L 24.175781 81.644531 L 17.183594 81.835938 L 17.144531 80.382813 L 24.136719 80.195313 L 24.085938 78.285156 L 17.089844 78.476563 L 17.050781 77.023438 L 25.449219 76.796875 L 25.671875 84.964844 Z M 17.273438 85.195313 "/>
<path style=" stroke:none;fill-rule:nonzero;fill:rgb(12.275696%,37.348938%,18.751526%);fill-opacity:1;" d="M 22.464844 73.148438 L 23.203125 73.75 L 25.800781 74.054688 L 25.632813 75.496094 L 17.289063 74.527344 L 17.457031 73.085938 L 20.878906 73.484375 L 19.957031 72.882813 L 17.675781 71.203125 L 17.871094 69.511719 L 21.25 72.171875 L 26.257813 70.121094 L 26.066406 71.789063 Z M 22.464844 73.148438 "/>
<path style=" stroke:none;fill-rule:nonzero;fill:rgb(12.275696%,37.348938%,18.751526%);fill-opacity:1;" d="M 25.46875 66.214844 C 25.273438 65.980469 24.953125 65.808594 24.507813 65.707031 L 21.582031 65.046875 C 21.128906 64.941406 20.765625 64.957031 20.488281 65.085938 C 20.214844 65.214844 20.035156 65.460938 19.953125 65.820313 C 19.871094 66.179688 19.929688 66.480469 20.125 66.71875 C 20.320313 66.960938 20.640625 67.132813 21.085938 67.234375 L 24.011719 67.898438 C 24.457031 68 24.816406 67.980469 25.097656 67.847656 C 25.378906 67.714844 25.558594 67.46875 25.640625 67.109375 C 25.722656 66.753906 25.664063 66.453125 25.46875 66.214844 M 25.863281 69.160156 C 25.269531 69.507813 24.539063 69.578125 23.675781 69.382813 L 20.75 68.71875 C 19.882813 68.523438 19.253906 68.140625 18.867188 67.574219 C 18.476563 67.007813 18.378906 66.316406 18.5625 65.503906 C 18.742188 64.703125 19.132813 64.125 19.726563 63.78125 C 20.320313 63.4375 21.050781 63.359375 21.917969 63.558594 L 24.84375 64.222656 C 25.710938 64.417969 26.335938 64.800781 26.726563 65.371094 C 27.113281 65.9375 27.214844 66.621094 27.03125 67.425781 C 26.851563 68.238281 26.460938 68.816406 25.863281 69.160156 "/>
<path style=" stroke:none;fill-rule:nonzero;fill:rgb(12.275696%,37.348938%,18.751526%);fill-opacity:1;" d="M 26.398438 64.105469 C 26.484375 63.855469 26.472656 63.632813 26.355469 63.441406 C 26.242188 63.25 25.976563 63.035156 25.558594 62.800781 C 25.191406 62.597656 24.601563 62.320313 23.800781 61.980469 C 22.996094 61.636719 21.746094 61.125 20.054688 60.441406 L 21.535156 56.242188 L 29.457031 59.035156 L 28.964844 60.429688 L 22.355469 58.097656 L 21.835938 59.570313 C 24.085938 60.5 25.597656 61.171875 26.367188 61.585938 C 26.890625 61.863281 27.269531 62.152344 27.5 62.449219 C 27.734375 62.75 27.859375 63.066406 27.867188 63.394531 C 27.878906 63.726563 27.808594 64.109375 27.652344 64.546875 Z M 26.398438 64.105469 "/>
<path style=" stroke:none;fill-rule:nonzero;fill:rgb(12.275696%,37.348938%,18.751526%);fill-opacity:1;" d="M 29.746094 55.199219 C 30.089844 54.492188 29.902344 53.96875 29.191406 53.621094 C 28.476563 53.277344 27.949219 53.457031 27.609375 54.160156 L 27.292969 54.808594 L 29.429688 55.84375 Z M 22.449219 54.097656 L 23.09375 52.769531 L 26.03125 54.195313 L 26.394531 53.449219 C 26.765625 52.679688 27.261719 52.199219 27.871094 52.007813 C 28.488281 51.816406 29.148438 51.894531 29.863281 52.238281 C 30.632813 52.613281 31.113281 53.085938 31.304688 53.652344 C 31.492188 54.222656 31.398438 54.902344 31.011719 55.691406 L 30.007813 57.765625 Z M 22.449219 54.097656 "/>
<path style=" stroke:none;fill-rule:nonzero;fill:rgb(12.275696%,37.348938%,18.751526%);fill-opacity:1;" d="M 28.121094 43.957031 L 35.21875 48.453125 L 34.421875 49.710938 L 31.429688 47.8125 L 30.34375 49.527344 L 33.335938 51.421875 L 32.546875 52.667969 L 25.449219 48.175781 L 26.238281 46.925781 L 29.160156 48.777344 L 30.246094 47.0625 L 27.324219 45.214844 Z M 28.121094 43.957031 "/>
<path style=" stroke:none;fill-rule:nonzero;fill:rgb(12.275696%,37.348938%,18.751526%);fill-opacity:1;" d="M 36.769531 43.800781 C 36.695313 43.503906 36.484375 43.210938 36.128906 42.921875 L 33.800781 41.03125 C 33.4375 40.738281 33.105469 40.59375 32.800781 40.585938 C 32.496094 40.582031 32.226563 40.722656 31.996094 41.007813 C 31.765625 41.292969 31.683594 41.589844 31.75 41.890625 C 31.820313 42.195313 32.03125 42.488281 32.386719 42.777344 L 34.71875 44.664063 C 35.070313 44.953125 35.402344 45.097656 35.714844 45.101563 C 36.023438 45.105469 36.292969 44.96875 36.527344 44.679688 C 36.757813 44.394531 36.839844 44.101563 36.769531 43.800781 M 35.820313 46.617188 C 35.136719 46.664063 34.449219 46.40625 33.757813 45.847656 L 31.425781 43.960938 C 30.738281 43.402344 30.34375 42.78125 30.246094 42.101563 C 30.148438 41.417969 30.363281 40.757813 30.886719 40.109375 C 31.40625 39.46875 32.007813 39.125 32.695313 39.078125 C 33.378906 39.03125 34.070313 39.289063 34.757813 39.847656 L 37.089844 41.738281 C 37.78125 42.296875 38.171875 42.917969 38.269531 43.597656 C 38.367188 44.277344 38.15625 44.9375 37.636719 45.578125 C 37.113281 46.226563 36.507813 46.570313 35.820313 46.617188 "/>
<path style=" stroke:none;fill-rule:nonzero;fill:rgb(12.275696%,37.348938%,18.751526%);fill-opacity:1;" d="M 42.089844 38.550781 L 43.070313 39.539063 L 39.988281 42.601563 L 34.070313 36.640625 L 37.066406 33.664063 L 38.046875 34.652344 L 36.097656 36.589844 L 37.5625 38.0625 L 39.347656 36.285156 L 40.296875 37.238281 L 38.507813 39.015625 L 40.054688 40.570313 Z M 42.089844 38.550781 "/>
<path style=" stroke:none;fill-rule:nonzero;fill:rgb(12.275696%,37.348938%,18.751526%);fill-opacity:1;" d="M 44.304688 36.820313 C 44.519531 36.664063 44.632813 36.472656 44.648438 36.25 C 44.664063 36.027344 44.566406 35.699219 44.351563 35.273438 C 44.164063 34.894531 43.835938 34.335938 43.371094 33.597656 C 42.902344 32.859375 42.160156 31.730469 41.152344 30.210938 L 44.75 27.585938 L 49.699219 34.375 L 48.503906 35.246094 L 44.375 29.582031 L 43.117188 30.5 C 44.445313 32.542969 45.308594 33.949219 45.707031 34.730469 C 45.980469 35.253906 46.128906 35.703125 46.152344 36.082031 C 46.175781 36.460938 46.097656 36.789063 45.921875 37.070313 C 45.742188 37.347656 45.464844 37.625 45.089844 37.898438 Z M 44.304688 36.820313 "/>
<path style=" stroke:none;fill-rule:nonzero;fill:rgb(12.275696%,37.348938%,18.751526%);fill-opacity:1;" d="M 53.925781 30.289063 L 54.617188 31.496094 L 50.851563 33.660156 L 46.664063 26.378906 L 50.328125 24.273438 L 51.019531 25.476563 L 48.636719 26.847656 L 49.671875 28.648438 L 51.859375 27.390625 L 52.527344 28.554688 L 50.34375 29.8125 L 51.4375 31.71875 Z M 53.925781 30.289063 "/>
<path style=" stroke:none;fill-rule:nonzero;fill:rgb(12.275696%,37.348938%,18.751526%);fill-opacity:1;" d="M 55.71875 30.355469 C 55.128906 30.113281 54.65625 29.601563 54.308594 28.820313 L 52.945313 25.75 C 52.59375 24.960938 52.527344 24.265625 52.742188 23.660156 C 52.960938 23.054688 53.429688 22.59375 54.15625 22.273438 C 54.886719 21.945313 55.546875 21.902344 56.140625 22.144531 C 56.734375 22.382813 57.222656 22.886719 57.605469 23.652344 L 56.257813 24.25 C 56.058594 23.867188 55.835938 23.621094 55.589844 23.519531 C 55.339844 23.414063 55.054688 23.433594 54.722656 23.582031 C 54.4375 23.707031 54.261719 23.902344 54.1875 24.160156 C 54.113281 24.417969 54.164063 24.746094 54.335938 25.132813 L 55.703125 28.203125 C 55.871094 28.582031 56.074219 28.832031 56.316406 28.945313 C 56.554688 29.0625 56.820313 29.058594 57.113281 28.925781 C 57.449219 28.777344 57.660156 28.574219 57.75 28.320313 C 57.839844 28.066406 57.816406 27.746094 57.675781 27.351563 L 59.023438 26.75 C 59.339844 27.539063 59.382813 28.234375 59.15625 28.832031 C 58.925781 29.433594 58.441406 29.898438 57.695313 30.230469 C 56.972656 30.554688 56.3125 30.59375 55.71875 30.355469 "/>
<path style=" stroke:none;fill-rule:nonzero;fill:rgb(12.275696%,37.348938%,18.751526%);fill-opacity:1;" d="M 63.070313 19.226563 L 65.597656 27.238281 L 64.179688 27.6875 L 63.113281 24.3125 L 61.179688 24.921875 L 62.246094 28.296875 L 60.839844 28.742188 L 58.308594 20.730469 L 59.714844 20.289063 L 60.757813 23.582031 L 62.691406 22.972656 L 61.652344 19.675781 Z M 63.070313 19.226563 "/>
<path style=" stroke:none;fill-rule:nonzero;fill:rgb(12.275696%,37.348938%,18.751526%);fill-opacity:1;" d="M 65.359375 18.648438 L 66.773438 18.382813 L 67.28125 21.082031 C 67.347656 21.4375 67.417969 21.894531 67.488281 22.449219 C 67.5625 23.003906 67.609375 23.503906 67.636719 23.945313 L 67.675781 23.964844 L 67.738281 23.585938 C 67.816406 23.140625 67.902344 22.722656 67.992188 22.328125 L 68.992188 17.964844 L 70.441406 17.695313 L 71.992188 25.949219 L 70.578125 26.214844 L 70.09375 23.644531 C 70.019531 23.234375 69.9375 22.734375 69.855469 22.144531 C 69.773438 21.554688 69.714844 21.046875 69.6875 20.621094 L 69.644531 20.589844 L 69.558594 21.121094 C 69.4375 21.816406 69.351563 22.28125 69.296875 22.511719 L 68.351563 26.632813 L 66.910156 26.902344 Z M 65.359375 18.648438 "/>
<path style=" stroke:none;fill-rule:nonzero;fill:rgb(12.275696%,37.348938%,18.751526%);fill-opacity:1;" d="M 77.40625 17.09375 L 77.988281 25.519531 L 76.515625 25.621094 L 76.308594 22.617188 C 75.972656 22.746094 75.609375 22.820313 75.21875 22.847656 C 74.453125 22.902344 73.835938 22.699219 73.367188 22.242188 C 72.898438 21.785156 72.632813 21.121094 72.574219 20.25 L 72.378906 17.4375 L 73.851563 17.335938 L 74.050781 20.222656 C 74.109375 21.101563 74.539063 21.511719 75.339844 21.457031 C 75.640625 21.4375 75.933594 21.367188 76.214844 21.25 L 75.9375 17.195313 Z M 77.40625 17.09375 "/>
<path style=" stroke:none;fill-rule:nonzero;fill:rgb(12.275696%,37.348938%,18.751526%);fill-opacity:1;" d="M 83.726563 24.242188 L 83.675781 25.632813 L 79.335938 25.46875 L 79.648438 17.078125 L 83.871094 17.234375 L 83.816406 18.625 L 81.070313 18.523438 L 80.992188 20.597656 L 83.511719 20.691406 L 83.460938 22.035156 L 80.945313 21.941406 L 80.863281 24.132813 Z M 83.726563 24.242188 "/>
<path style=" stroke:none;fill-rule:nonzero;fill:rgb(12.275696%,37.348938%,18.751526%);fill-opacity:1;" d="M 85.203125 25.25 C 84.828125 24.734375 84.699219 24.050781 84.816406 23.203125 L 85.285156 19.875 C 85.40625 19.019531 85.71875 18.394531 86.222656 17.996094 C 86.726563 17.597656 87.371094 17.457031 88.15625 17.566406 C 88.949219 17.679688 89.53125 17.992188 89.910156 18.507813 C 90.285156 19.027344 90.429688 19.710938 90.351563 20.566406 L 88.890625 20.359375 C 88.925781 19.929688 88.867188 19.601563 88.714844 19.382813 C 88.558594 19.164063 88.304688 19.027344 87.945313 18.980469 C 87.636719 18.933594 87.382813 19.003906 87.183594 19.1875 C 86.984375 19.367188 86.855469 19.667969 86.796875 20.089844 L 86.328125 23.417969 C 86.269531 23.828125 86.3125 24.144531 86.453125 24.375 C 86.59375 24.597656 86.824219 24.734375 87.140625 24.777344 C 87.503906 24.828125 87.792969 24.769531 88.003906 24.601563 C 88.210938 24.433594 88.363281 24.144531 88.453125 23.738281 L 89.914063 23.945313 C 89.761719 24.78125 89.429688 25.390625 88.921875 25.78125 C 88.410156 26.167969 87.75 26.308594 86.941406 26.191406 C 86.15625 26.082031 85.578125 25.769531 85.203125 25.25 "/>
<path style=" stroke:none;fill-rule:nonzero;fill:rgb(12.275696%,37.348938%,18.751526%);fill-opacity:1;" d="M 96.269531 20.851563 L 94.625 20.449219 L 92.964844 27.246094 L 91.496094 26.886719 L 93.15625 20.089844 L 91.511719 19.6875 L 91.84375 18.324219 L 96.601563 19.488281 Z M 96.269531 20.851563 "/>
<path style=" stroke:none;fill-rule:nonzero;fill:rgb(12.275696%,37.348938%,18.751526%);fill-opacity:1;" d="M 98.964844 21.726563 L 98.277344 23.675781 L 99.035156 23.941406 C 99.316406 24.039063 99.558594 24.03125 99.761719 23.910156 C 99.964844 23.792969 100.121094 23.570313 100.238281 23.246094 C 100.460938 22.613281 100.273438 22.191406 99.679688 21.980469 Z M 99.328125 26.679688 C 99.449219 26.339844 99.445313 26.050781 99.316406 25.804688 C 99.183594 25.558594 98.941406 25.371094 98.589844 25.246094 L 97.820313 24.976563 L 97.09375 27.023438 L 97.875 27.300781 C 98.605469 27.558594 99.09375 27.351563 99.328125 26.679688 M 100.855469 26.050781 C 100.925781 26.421875 100.890625 26.800781 100.753906 27.183594 C 100.589844 27.652344 100.347656 28.027344 100.03125 28.308594 C 99.714844 28.59375 99.347656 28.765625 98.933594 28.828125 C 98.515625 28.894531 98.078125 28.847656 97.625 28.6875 L 95.238281 27.84375 L 98.039063 19.925781 L 100.359375 20.742188 C 100.984375 20.964844 101.417969 21.34375 101.660156 21.882813 C 101.902344 22.425781 101.90625 23.027344 101.671875 23.691406 C 101.550781 24.03125 101.375 24.324219 101.144531 24.574219 C 100.910156 24.820313 100.652344 24.992188 100.363281 25.085938 C 100.625 25.355469 100.789063 25.675781 100.855469 26.050781 "/>
<path style=" stroke:none;fill-rule:nonzero;fill:rgb(12.275696%,37.348938%,18.751526%);fill-opacity:1;" d="M 104.453125 29.824219 C 104.730469 29.6875 104.96875 29.414063 105.167969 29.003906 L 106.480469 26.308594 C 106.683594 25.890625 106.753906 25.53125 106.6875 25.234375 C 106.625 24.9375 106.425781 24.707031 106.097656 24.546875 C 105.765625 24.386719 105.460938 24.371094 105.179688 24.507813 C 104.902344 24.644531 104.664063 24.914063 104.460938 25.324219 L 103.148438 28.023438 C 102.949219 28.433594 102.882813 28.789063 102.949219 29.09375 C 103.015625 29.394531 103.214844 29.628906 103.542969 29.789063 C 103.875 29.949219 104.179688 29.960938 104.453125 29.824219 M 101.496094 29.539063 C 101.296875 28.882813 101.390625 28.15625 101.78125 27.355469 L 103.09375 24.660156 C 103.480469 23.859375 103.996094 23.335938 104.636719 23.089844 C 105.277344 22.839844 105.972656 22.898438 106.722656 23.261719 C 107.460938 23.621094 107.933594 24.132813 108.132813 24.789063 C 108.332031 25.449219 108.238281 26.175781 107.851563 26.972656 L 106.539063 29.671875 C 106.148438 30.46875 105.632813 30.992188 104.992188 31.242188 C 104.351563 31.488281 103.660156 31.433594 102.917969 31.074219 C 102.171875 30.710938 101.699219 30.199219 101.496094 29.539063 "/>
<path style=" stroke:none;fill-rule:nonzero;fill:rgb(12.275696%,37.348938%,18.751526%);fill-opacity:1;" d="M 111.949219 32.238281 L 111.066406 32.597656 L 109.566406 34.742188 L 108.375 33.90625 L 113.195313 27.027344 L 114.386719 27.859375 L 112.410156 30.683594 L 113.378906 30.160156 L 115.9375 28.949219 L 117.335938 29.925781 L 113.386719 31.628906 L 112.808594 37.011719 L 111.433594 36.050781 Z M 111.949219 32.238281 "/>
<path style=" stroke:none;fill-rule:nonzero;fill:rgb(12.275696%,37.348938%,18.751526%);fill-opacity:1;" d="M 117.292969 37.078125 L 118.066406 35.679688 C 118.230469 35.398438 118.597656 34.808594 119.175781 33.910156 L 119.148438 33.886719 C 118.488281 34.464844 117.953125 34.914063 117.542969 35.222656 L 116.261719 36.175781 Z M 116.59375 38.332031 L 115.113281 37.03125 L 113.855469 37.957031 L 112.699219 36.945313 L 119.789063 31.988281 L 120.980469 33.03125 L 116.996094 40.710938 L 115.839844 39.699219 Z M 116.59375 38.332031 "/>
<path style=" stroke:none;fill-rule:nonzero;fill:rgb(12.275696%,37.348938%,18.751526%);fill-opacity:1;" d="M 117.875 39.863281 C 118.054688 40.058594 118.253906 40.152344 118.476563 40.140625 C 118.703125 40.132813 119.015625 40 119.417969 39.738281 C 119.773438 39.511719 120.292969 39.125 120.976563 38.582031 C 121.660156 38.035156 122.703125 37.179688 124.105469 36.011719 L 127.101563 39.304688 L 120.886719 44.957031 L 119.894531 43.863281 L 125.078125 39.148438 L 124.03125 37.996094 C 122.144531 39.535156 120.835938 40.546875 120.105469 41.027344 C 119.613281 41.355469 119.183594 41.550781 118.808594 41.617188 C 118.433594 41.679688 118.097656 41.640625 117.804688 41.492188 C 117.507813 41.34375 117.203125 41.101563 116.890625 40.757813 Z M 117.875 39.863281 "/>
<path style=" stroke:none;fill-rule:nonzero;fill:rgb(12.275696%,37.348938%,18.751526%);fill-opacity:1;" d="M 131.261719 44.847656 L 124.855469 47.0625 C 124.304688 47.242188 123.847656 47.335938 123.488281 47.335938 C 123.128906 47.339844 122.8125 47.25 122.535156 47.070313 C 122.265625 46.894531 121.984375 46.609375 121.695313 46.214844 L 121.511719 45.964844 L 122.578125 45.183594 L 122.789063 45.476563 C 122.984375 45.742188 123.195313 45.894531 123.421875 45.929688 C 123.644531 45.96875 123.988281 45.90625 124.441406 45.742188 L 128.078125 40.488281 L 128.996094 41.746094 L 126.671875 44.933594 L 130.351563 43.597656 Z M 131.261719 44.847656 "/>
<path style=" stroke:none;fill-rule:nonzero;fill:rgb(12.275696%,37.348938%,18.751526%);fill-opacity:1;" d="M 130.082031 52.847656 L 129.328125 52.792969 L 126.949219 54.097656 L 126.257813 52.835938 L 128.644531 51.527344 L 129.007813 50.863281 L 125.253906 51.007813 L 124.460938 49.566406 L 129.722656 49.578125 L 131.925781 45.710938 L 132.738281 47.183594 L 131.257813 49.527344 L 130.613281 50.445313 L 133.621094 48.792969 L 134.3125 50.054688 L 131.292969 51.714844 L 132.457031 51.664063 L 135.203125 51.675781 L 136.007813 53.136719 L 131.550781 52.929688 L 128.746094 57.371094 L 127.960938 55.941406 Z M 130.082031 52.847656 "/>
<path style=" stroke:none;fill-rule:nonzero;fill:rgb(12.275696%,37.348938%,18.751526%);fill-opacity:1;" d="M 129.417969 57.925781 C 129.683594 57.34375 130.21875 56.898438 131.015625 56.585938 L 134.144531 55.363281 C 134.949219 55.046875 135.648438 55.011719 136.242188 55.257813 C 136.835938 55.5 137.277344 55.988281 137.566406 56.726563 C 137.855469 57.472656 137.867188 58.136719 137.601563 58.714844 C 137.335938 59.296875 136.8125 59.761719 136.027344 60.113281 L 135.492188 58.738281 C 135.882813 58.558594 136.140625 58.347656 136.253906 58.105469 C 136.371094 57.863281 136.363281 57.574219 136.230469 57.238281 C 136.117188 56.945313 135.933594 56.757813 135.675781 56.675781 C 135.417969 56.59375 135.09375 56.625 134.699219 56.78125 L 131.570313 58.007813 C 131.183594 58.15625 130.925781 58.351563 130.796875 58.585938 C 130.671875 58.820313 130.664063 59.085938 130.78125 59.382813 C 130.917969 59.726563 131.105469 59.949219 131.355469 60.046875 C 131.605469 60.148438 131.933594 60.136719 132.332031 60.015625 L 132.867188 61.390625 C 132.066406 61.667969 131.371094 61.679688 130.78125 61.425781 C 130.191406 61.171875 129.75 60.664063 129.453125 59.90625 C 129.164063 59.167969 129.152344 58.507813 129.417969 57.925781 "/>
<path style=" stroke:none;fill-rule:nonzero;fill:rgb(12.275696%,37.348938%,18.751526%);fill-opacity:1;" d="M 134.605469 64.121094 L 133.695313 63.832031 L 131.167969 64.515625 L 130.789063 63.113281 L 138.898438 60.921875 L 139.277344 62.324219 L 135.953125 63.222656 L 137.03125 63.4375 L 139.773438 64.152344 L 140.21875 65.796875 L 136.09375 64.574219 L 132.203125 68.335938 L 131.761719 66.714844 Z M 134.605469 64.121094 "/>
<path style=" stroke:none;fill-rule:nonzero;fill:rgb(12.275696%,37.348938%,18.751526%);fill-opacity:1;" d="M 134.371094 71.664063 C 134.640625 71.8125 135 71.851563 135.453125 71.78125 L 138.414063 71.320313 C 138.875 71.25 139.207031 71.101563 139.417969 70.878906 C 139.625 70.65625 139.699219 70.363281 139.644531 70 C 139.585938 69.636719 139.425781 69.378906 139.152344 69.226563 C 138.882813 69.074219 138.523438 69.035156 138.070313 69.101563 L 135.105469 69.5625 C 134.65625 69.632813 134.324219 69.78125 134.113281 70.011719 C 133.902344 70.238281 133.824219 70.53125 133.882813 70.894531 C 133.9375 71.257813 134.101563 71.515625 134.371094 71.664063 M 132.917969 69.074219 C 133.34375 68.53125 133.996094 68.195313 134.875 68.058594 L 137.835938 67.597656 C 138.714844 67.460938 139.4375 67.585938 140.007813 67.972656 C 140.578125 68.355469 140.925781 68.960938 141.054688 69.78125 C 141.179688 70.597656 141.03125 71.273438 140.605469 71.8125 C 140.179688 72.351563 139.527344 72.691406 138.648438 72.828125 L 135.683594 73.285156 C 134.808594 73.425781 134.085938 73.300781 133.515625 72.914063 C 132.945313 72.53125 132.597656 71.929688 132.46875 71.117188 C 132.34375 70.292969 132.492188 69.613281 132.917969 69.074219 "/>
<path style=" stroke:none;fill-rule:nonzero;fill:rgb(12.275696%,37.348938%,18.751526%);fill-opacity:1;" d="M 142.789063 76.046875 C 143.035156 75.757813 143.390625 75.597656 143.84375 75.566406 L 143.878906 76.511719 C 143.703125 76.523438 143.566406 76.585938 143.46875 76.6875 C 143.375 76.792969 143.328125 76.921875 143.335938 77.082031 C 143.339844 77.234375 143.394531 77.359375 143.496094 77.460938 C 143.601563 77.5625 143.742188 77.613281 143.917969 77.613281 L 143.949219 78.550781 C 143.484375 78.550781 143.121094 78.417969 142.855469 78.15625 C 142.589844 77.894531 142.449219 77.550781 142.433594 77.125 C 142.421875 76.695313 142.539063 76.335938 142.789063 76.046875 M 141.515625 74.519531 L 141.566406 75.957031 L 138.820313 76.054688 C 138.460938 76.066406 138 76.066406 137.4375 76.054688 C 136.878906 76.042969 136.375 76.015625 135.933594 75.976563 L 135.910156 76.015625 L 136.277344 76.132813 C 136.707031 76.277344 137.105469 76.421875 137.480469 76.570313 L 141.644531 78.210938 L 141.699219 79.6875 L 133.304688 79.984375 L 133.25 78.542969 L 135.867188 78.453125 C 136.28125 78.4375 136.789063 78.433594 137.386719 78.441406 C 137.980469 78.449219 138.492188 78.46875 138.917969 78.5 L 138.953125 78.464844 L 138.441406 78.300781 C 137.769531 78.078125 137.324219 77.921875 137.105469 77.832031 L 133.171875 76.277344 L 133.121094 74.816406 Z M 141.515625 74.519531 "/>
<path style=" stroke:none;fill-rule:nonzero;fill:rgb(12.275696%,37.348938%,18.751526%);fill-opacity:1;" d="M 134.34375 87.160156 C 134.558594 87.378906 134.894531 87.515625 135.347656 87.574219 L 138.324219 87.949219 C 138.78125 88.011719 139.144531 87.960938 139.40625 87.804688 C 139.667969 87.648438 139.820313 87.386719 139.867188 87.023438 C 139.914063 86.65625 139.828125 86.363281 139.613281 86.144531 C 139.394531 85.921875 139.058594 85.785156 138.605469 85.722656 L 135.632813 85.347656 C 135.179688 85.289063 134.820313 85.339844 134.554688 85.5 C 134.285156 85.660156 134.128906 85.921875 134.082031 86.289063 C 134.035156 86.652344 134.125 86.945313 134.34375 87.160156 M 133.664063 84.265625 C 134.222656 83.867188 134.941406 83.722656 135.824219 83.835938 L 138.800781 84.210938 C 139.679688 84.324219 140.339844 84.644531 140.78125 85.171875 C 141.222656 85.703125 141.390625 86.378906 141.285156 87.203125 C 141.183594 88.019531 140.851563 88.628906 140.292969 89.03125 C 139.730469 89.429688 139.011719 89.574219 138.132813 89.460938 L 135.15625 89.085938 C 134.273438 88.972656 133.613281 88.652344 133.171875 88.125 C 132.730469 87.597656 132.5625 86.921875 132.667969 86.105469 C 132.773438 85.28125 133.105469 84.667969 133.664063 84.265625 "/>
<path style=" stroke:none;fill-rule:nonzero;fill:rgb(12.275696%,37.348938%,18.751526%);fill-opacity:1;" d="M 133.082031 92.394531 C 132.996094 92.753906 133.023438 93.054688 133.160156 93.296875 C 133.300781 93.542969 133.5625 93.707031 133.953125 93.804688 C 134.332031 93.894531 134.644531 93.863281 134.886719 93.714844 C 135.128906 93.5625 135.292969 93.308594 135.378906 92.949219 L 135.574219 92.144531 L 133.277344 91.589844 Z M 140.421875 91.792969 L 139.363281 96.191406 L 138.019531 95.871094 L 138.734375 92.90625 L 136.917969 92.46875 L 136.695313 93.378906 C 136.503906 94.1875 136.128906 94.753906 135.570313 95.074219 C 135.015625 95.398438 134.359375 95.46875 133.597656 95.285156 C 131.921875 94.882813 131.289063 93.84375 131.691406 92.171875 L 132.257813 89.828125 Z M 140.421875 91.792969 "/>
<path style=" stroke:none;fill-rule:nonzero;fill:rgb(12.275696%,37.348938%,18.751526%);fill-opacity:1;" d="M 132.167969 95.359375 C 132.078125 95.609375 132.085938 95.832031 132.199219 96.023438 C 132.308594 96.21875 132.574219 96.4375 132.988281 96.671875 C 133.355469 96.886719 133.9375 97.167969 134.734375 97.523438 C 135.535156 97.875 136.773438 98.40625 138.460938 99.113281 L 136.921875 103.289063 L 129.039063 100.386719 L 129.546875 99 L 136.125 101.421875 L 136.664063 99.960938 C 134.425781 99 132.925781 98.304688 132.160156 97.878906 C 131.644531 97.59375 131.269531 97.300781 131.039063 97 C 130.8125 96.695313 130.691406 96.378906 130.6875 96.046875 C 130.679688 95.71875 130.757813 95.335938 130.917969 94.902344 Z M 132.167969 95.359375 "/>
<path style=" stroke:none;fill-rule:nonzero;fill:rgb(12.275696%,37.348938%,18.751526%);fill-opacity:1;" d="M 129.824219 105.472656 L 131.371094 105.871094 C 131.683594 105.957031 132.347656 106.164063 133.363281 106.496094 L 133.382813 106.464844 C 132.652344 105.972656 132.085938 105.566406 131.679688 105.25 L 130.4375 104.246094 Z M 128.433594 105.109375 L 129.316406 103.351563 L 128.105469 102.367188 L 128.796875 100.992188 L 135.375 106.605469 L 134.667969 108.023438 L 126.234375 106.097656 L 126.921875 104.726563 Z M 128.433594 105.109375 "/>
<path style=" stroke:none;fill-rule:nonzero;fill:rgb(12.275696%,37.348938%,18.751526%);fill-opacity:1;" d="M 126.207031 107.136719 C 126.832031 107.011719 127.507813 107.179688 128.226563 107.640625 L 131.058594 109.449219 C 131.785156 109.910156 132.226563 110.457031 132.378906 111.082031 C 132.53125 111.703125 132.394531 112.351563 131.96875 113.019531 C 131.535156 113.691406 131.007813 114.09375 130.382813 114.21875 C 129.753906 114.347656 129.070313 114.195313 128.328125 113.769531 L 129.121094 112.523438 C 129.5 112.738281 129.820313 112.816406 130.082031 112.769531 C 130.347656 112.71875 130.578125 112.542969 130.769531 112.238281 C 130.9375 111.976563 130.980469 111.71875 130.898438 111.460938 C 130.816406 111.203125 130.597656 110.960938 130.238281 110.730469 L 127.40625 108.921875 C 127.054688 108.699219 126.75 108.605469 126.484375 108.640625 C 126.21875 108.675781 126 108.828125 125.828125 109.097656 C 125.632813 109.40625 125.566406 109.691406 125.632813 109.953125 C 125.699219 110.214844 125.898438 110.46875 126.230469 110.722656 L 125.433594 111.964844 C 124.738281 111.480469 124.320313 110.925781 124.179688 110.300781 C 124.039063 109.675781 124.1875 109.015625 124.625 108.328125 C 125.050781 107.660156 125.578125 107.261719 126.207031 107.136719 "/>
<path style=" stroke:none;fill-rule:nonzero;fill:rgb(12.275696%,37.348938%,18.751526%);fill-opacity:1;" d="M 125.609375 119.015625 L 126.660156 117.6875 L 121.171875 113.34375 L 122.113281 112.160156 L 127.597656 116.503906 L 128.648438 115.175781 L 129.75 116.046875 L 126.710938 119.886719 Z M 125.609375 119.015625 "/>
<path style=" stroke:none;fill-rule:nonzero;fill:rgb(12.275696%,37.348938%,18.751526%);fill-opacity:1;" d="M 125.667969 121.078125 L 124.660156 122.105469 L 122.699219 120.179688 C 122.441406 119.929688 122.125 119.59375 121.746094 119.179688 C 121.367188 118.765625 121.042969 118.382813 120.769531 118.035156 L 120.726563 118.046875 L 120.890625 118.390625 C 121.082031 118.804688 121.25 119.195313 121.402344 119.566406 L 123.078125 123.71875 L 122.046875 124.769531 L 116.050781 118.886719 L 117.058594 117.859375 L 118.925781 119.691406 C 119.222656 119.980469 119.574219 120.347656 119.980469 120.785156 C 120.386719 121.222656 120.722656 121.605469 120.992188 121.9375 L 121.042969 121.9375 L 120.808594 121.457031 C 120.507813 120.8125 120.3125 120.382813 120.226563 120.164063 L 118.644531 116.242188 L 119.671875 115.195313 Z M 125.667969 121.078125 "/>
<path style=" stroke:none;fill-rule:nonzero;fill:rgb(12.275696%,37.348938%,18.751526%);fill-opacity:1;" d="M 68.351563 140.132813 C 68.421875 139.65625 68.570313 139.230469 68.800781 138.851563 C 69.035156 138.472656 69.292969 138.140625 69.582031 137.863281 C 69.875 137.585938 70.238281 137.277344 70.671875 136.933594 C 71.144531 136.558594 71.5 136.242188 71.734375 135.992188 C 71.96875 135.742188 72.105469 135.46875 72.148438 135.167969 C 72.179688 134.929688 72.140625 134.71875 72.03125 134.539063 C 71.917969 134.355469 71.730469 134.25 71.472656 134.210938 C 71.214844 134.175781 71.003906 134.234375 70.832031 134.386719 C 70.664063 134.539063 70.550781 134.773438 70.5 135.089844 L 69.167969 134.902344 C 69.304688 134.164063 69.589844 133.617188 70.023438 133.273438 C 70.457031 132.925781 70.996094 132.796875 71.644531 132.890625 C 72.121094 132.957031 72.507813 133.113281 72.808594 133.359375 C 73.109375 133.601563 73.320313 133.898438 73.441406 134.242188 C 73.5625 134.585938 73.597656 134.941406 73.546875 135.304688 C 73.496094 135.667969 73.367188 136.011719 73.160156 136.328125 C 72.953125 136.644531 72.71875 136.929688 72.464844 137.175781 C 72.207031 137.421875 71.867188 137.714844 71.449219 138.050781 C 70.9375 138.46875 70.554688 138.8125 70.308594 139.082031 C 70.058594 139.351563 69.914063 139.636719 69.871094 139.945313 L 72.875 140.371094 L 72.695313 141.667969 L 68.226563 141.035156 Z M 68.351563 140.132813 "/>
<path style=" stroke:none;fill-rule:nonzero;fill:rgb(12.275696%,37.348938%,18.751526%);fill-opacity:1;" d="M 77.171875 140.464844 C 77.34375 140.28125 77.4375 140.007813 77.457031 139.640625 L 77.628906 135.921875 C 77.644531 135.546875 77.578125 135.257813 77.421875 135.054688 C 77.265625 134.851563 77.03125 134.742188 76.722656 134.726563 C 76.417969 134.714844 76.179688 134.800781 76.007813 134.988281 C 75.835938 135.175781 75.738281 135.460938 75.722656 135.835938 L 75.550781 139.550781 C 75.53125 139.917969 75.601563 140.203125 75.757813 140.402344 C 75.914063 140.601563 76.140625 140.707031 76.445313 140.722656 C 76.757813 140.734375 77 140.652344 77.171875 140.464844 M 74.71875 141.296875 C 74.328125 140.839844 74.148438 140.234375 74.183594 139.476563 L 74.355469 135.761719 C 74.390625 134.992188 74.625 134.398438 75.054688 133.976563 C 75.488281 133.558594 76.0625 133.363281 76.78125 133.398438 C 77.511719 133.429688 78.070313 133.675781 78.46875 134.136719 C 78.863281 134.59375 79.042969 135.207031 79.007813 135.972656 L 78.835938 139.691406 C 78.800781 140.449219 78.566406 141.039063 78.128906 141.453125 C 77.691406 141.871094 77.113281 142.0625 76.386719 142.027344 C 75.664063 141.996094 75.109375 141.75 74.71875 141.296875 "/>
<path style=" stroke:none;fill-rule:nonzero;fill:rgb(12.275696%,37.348938%,18.751526%);fill-opacity:1;" d="M 79.988281 141.101563 C 79.964844 140.621094 80.03125 140.171875 80.1875 139.757813 C 80.34375 139.34375 80.539063 138.96875 80.769531 138.644531 C 81.003906 138.316406 81.300781 137.941406 81.664063 137.523438 C 82.058594 137.066406 82.347656 136.691406 82.53125 136.402344 C 82.710938 136.113281 82.796875 135.816406 82.78125 135.511719 C 82.769531 135.273438 82.691406 135.074219 82.550781 134.914063 C 82.40625 134.757813 82.203125 134.6875 81.9375 134.699219 C 81.683594 134.710938 81.484375 134.808594 81.34375 134.992188 C 81.207031 135.175781 81.140625 135.425781 81.148438 135.746094 L 79.804688 135.8125 C 79.800781 135.058594 79.980469 134.472656 80.339844 134.050781 C 80.699219 133.628906 81.207031 133.402344 81.863281 133.371094 C 82.339844 133.347656 82.75 133.425781 83.09375 133.609375 C 83.433594 133.792969 83.695313 134.042969 83.878906 134.359375 C 84.0625 134.675781 84.164063 135.015625 84.179688 135.386719 C 84.199219 135.753906 84.136719 136.113281 83.992188 136.464844 C 83.847656 136.816406 83.675781 137.136719 83.46875 137.425781 C 83.261719 137.714844 82.984375 138.066406 82.636719 138.476563 C 82.210938 138.984375 81.902344 139.390625 81.710938 139.703125 C 81.515625 140.011719 81.425781 140.324219 81.441406 140.632813 L 84.476563 140.488281 L 84.539063 141.792969 L 80.03125 142.011719 Z M 79.988281 141.101563 "/>
<path style=" stroke:none;fill-rule:nonzero;fill:rgb(12.275696%,37.348938%,18.751526%);fill-opacity:1;" d="M 88.714844 139.777344 C 88.851563 139.5625 88.890625 139.273438 88.839844 138.910156 L 88.3125 135.226563 C 88.257813 134.855469 88.136719 134.585938 87.945313 134.414063 C 87.757813 134.242188 87.507813 134.179688 87.199219 134.222656 C 86.898438 134.265625 86.679688 134.398438 86.546875 134.613281 C 86.410156 134.832031 86.371094 135.125 86.421875 135.5 L 86.953125 139.179688 C 87.003906 139.546875 87.125 139.8125 87.3125 139.976563 C 87.503906 140.144531 87.75 140.207031 88.050781 140.164063 C 88.359375 140.117188 88.582031 139.988281 88.714844 139.777344 M 86.460938 141.050781 C 85.992188 140.679688 85.703125 140.117188 85.59375 139.363281 L 85.066406 135.679688 C 84.957031 134.921875 85.078125 134.292969 85.421875 133.796875 C 85.769531 133.304688 86.296875 133.007813 87.011719 132.90625 C 87.730469 132.800781 88.328125 132.9375 88.800781 133.316406 C 89.277344 133.691406 89.566406 134.261719 89.675781 135.019531 L 90.207031 138.703125 C 90.3125 139.457031 90.191406 140.078125 89.839844 140.566406 C 89.488281 141.058594 88.957031 141.355469 88.234375 141.457031 C 87.523438 141.558594 86.929688 141.421875 86.460938 141.050781 "/>
<path style=" stroke:none;fill-rule:evenodd;fill:rgb(12.275696%,37.348938%,18.751526%);fill-opacity:1;" d="M 55.894531 131.984375 C 55.894531 133 55.070313 133.824219 54.050781 133.824219 C 53.035156 133.824219 52.207031 133 52.207031 131.984375 C 52.207031 130.964844 53.035156 130.140625 54.050781 130.140625 C 55.070313 130.140625 55.894531 130.964844 55.894531 131.984375 "/>
<path style=" stroke:none;fill-rule:evenodd;fill:rgb(12.275696%,37.348938%,18.751526%);fill-opacity:1;" d="M 106.511719 131.765625 C 106.511719 132.785156 105.6875 133.609375 104.667969 133.609375 C 103.652344 133.609375 102.824219 132.785156 102.824219 131.765625 C 102.824219 130.75 103.652344 129.925781 104.667969 129.925781 C 105.6875 129.925781 106.511719 130.75 106.511719 131.765625 "/>
</g>
</svg>
