<svg width="56" height="57" viewBox="0 0 56 57" fill="none" xmlns="http://www.w3.org/2000/svg">
<path d="M20.8188 48.4728C20.3773 48.4728 19.9358 48.3116 19.5872 47.966C18.9134 47.2979 18.9134 46.1922 19.5872 45.5241L34.7379 30.5041C35.8532 29.3983 35.8532 27.6014 34.7379 26.4957L19.5872 11.4757C18.9134 10.8076 18.9134 9.70184 19.5872 9.03377C20.2611 8.3657 21.3765 8.3657 22.0504 9.03377L37.201 24.0538C38.3861 25.2286 39.06 26.8182 39.06 28.4999C39.06 30.1816 38.4093 31.7711 37.201 32.946L22.0504 47.966C21.7018 48.2885 21.2603 48.4728 20.8188 48.4728Z" fill="white"/>
</svg>
