<svg width="40" height="40" viewBox="0 0 40 40" fill="none" xmlns="http://www.w3.org/2000/svg">
<path d="M25 37.9167H15C5.95 37.9167 2.08333 34.05 2.08333 25V15C2.08333 5.95004 5.95 2.08337 15 2.08337H25C34.05 2.08337 37.9167 5.95004 37.9167 15V25C37.9167 34.05 34.05 37.9167 25 37.9167ZM15 4.58337C7.31667 4.58337 4.58333 7.31671 4.58333 15V25C4.58333 32.6834 7.31667 35.4167 15 35.4167H25C32.6833 35.4167 35.4167 32.6834 35.4167 25V15C35.4167 7.31671 32.6833 4.58337 25 4.58337H15Z" fill="white"/>
<path d="M26.25 16.25H13.75C13.0667 16.25 12.5 15.6833 12.5 15C12.5 14.3167 13.0667 13.75 13.75 13.75H26.25C26.9333 13.75 27.5 14.3167 27.5 15C27.5 15.6833 26.9333 16.25 26.25 16.25Z" fill="white"/>
<path d="M26.25 26.25H13.75C13.0667 26.25 12.5 25.6833 12.5 25C12.5 24.3167 13.0667 23.75 13.75 23.75H26.25C26.9333 23.75 27.5 24.3167 27.5 25C27.5 25.6833 26.9333 26.25 26.25 26.25Z" fill="white"/>
</svg>
