<svg width="40" height="40" viewBox="0 0 40 40" fill="none" xmlns="http://www.w3.org/2000/svg">
<path d="M33.3333 21.6667C32.3333 21.6667 31.6667 21 31.6667 20C31.6667 13.5 26.5 8.33333 20 8.33333C16.8333 8.33333 14 9.5 11.6667 11.6667C11.1667 12.3333 10 12.3333 9.33334 11.6667C8.66667 11 8.66667 10 9.33334 9.33333C12.1667 6.5 16 5 20 5C28.3333 5 35 11.6667 35 20C35 21 34.3333 21.6667 33.3333 21.6667Z" fill="white"/>
<path d="M20 35C11.6667 35 5 28.3334 5 20C5 19 5.66667 18.3334 6.66667 18.3334C7.66667 18.3334 8.33333 19 8.33333 20C8.33333 26.5 13.5 31.6667 20 31.6667C23.1667 31.6667 26 30.5 28.3333 28.3334C29 27.6667 30 27.6667 30.6667 28.3334C31.3333 29 31.3333 30 30.6667 30.6667C27.8333 33.5 24 35 20 35Z" fill="white"/>
<path d="M33.3333 21.6666C33 21.6666 32.6667 21.5 32.3333 21.3333L26.6667 17.1666C26 16.6666 25.8333 15.5 26.3333 14.8333C26.8333 14.1666 28 14 28.6667 14.5L34.3333 18.6666C35 19.1666 35.1667 20.3333 34.6667 21C34.3333 21.5 33.8333 21.6666 33.3333 21.6666Z" fill="white"/>
<path d="M33.3333 21.6666C33 21.6666 32.6667 21.5 32.3333 21.3333C31.6667 20.8333 31.5 19.6666 32 18.9999L36.1667 13.3333C36.6667 12.6666 37.8333 12.5 38.5 13C39.1667 13.5 39.3333 14.6666 38.8333 15.3333L34.6667 21C34.3333 21.5 33.8333 21.6666 33.3333 21.6666Z" fill="white"/>
<path d="M12.3333 25.8334C12 25.8334 11.6667 25.6667 11.3333 25.5L5.66667 21.3334C5.00001 20.8334 4.83334 19.6667 5.33334 19C5.83334 18.3334 6.83334 18.1667 7.66667 18.6667L13.3333 22.8334C14 23.3334 14.1667 24.5 13.6667 25.1667C13.3333 25.6667 12.8333 25.8334 12.3333 25.8334Z" fill="white"/>
<path d="M2.50001 27.3334C2.16667 27.3334 1.83334 27.1667 1.50001 27C0.833339 26.5 0.666672 25.3334 1.16667 24.6667L5.33334 19C5.83334 18.3334 6.83334 18.1667 7.66667 18.6667C8.33334 19.1667 8.50001 20.3334 8.00001 21L3.83334 26.6667C3.50001 27.1667 3.00001 27.3334 2.50001 27.3334Z" fill="white"/>
</svg>
