<svg width="150" height="138" viewBox="0 0 150 138" fill="none" xmlns="http://www.w3.org/2000/svg">
<path d="M119.442 0H30.5547C7.0673 0 -7.61016 25.4259 4.13354 45.7632L48.5813 122.742C60.325 143.079 89.6799 143.079 101.424 122.742L145.871 45.7632C157.606 25.4259 142.929 0 119.442 0Z" fill="#008243"/>
<path d="M5.18076 45.1747L27.9758 84.655L27.9585 84.6636L49.6026 122.162C50.2257 123.244 50.918 124.265 51.6536 125.243C51.7401 125.355 51.818 125.459 51.9046 125.572C52.1123 125.84 52.3286 126.108 52.5536 126.368C54.7345 128.999 57.3134 131.197 60.2904 132.919C64.73 135.481 69.5763 136.753 74.3794 136.84C74.5871 136.848 74.7948 136.84 75.0025 136.84C75.2102 136.84 75.4179 136.84 75.6256 136.84C80.4287 136.753 85.2663 135.489 89.7146 132.919C92.6916 131.197 95.2705 128.999 97.4514 126.368C97.6677 126.108 97.8841 125.849 98.0918 125.58C98.1783 125.468 98.2562 125.364 98.3428 125.252C99.0784 124.282 99.7707 123.261 100.394 122.179L122.038 84.6809L122.021 84.6723L144.816 45.192C149.922 36.3475 150.095 25.85 145.361 16.8843L125.101 28.5847C94.0936 46.4815 55.8941 46.4815 24.8863 28.5847L4.63554 16.8669C-0.0982803 25.8327 0.0748037 36.3301 5.18076 45.1747Z" fill="url(#paint0_linear_103_4945)"/>
<path d="M106.331 49.7182C105.655 46.4037 104.409 43.3228 102.644 40.441C100.749 37.3514 98.3168 34.7465 95.4263 32.5657C94.0935 31.5531 92.6743 30.6618 91.1944 29.8829C90.9348 29.7444 88.451 28.4982 87.3693 28.1174C87.3519 28.152 89.9828 31.3368 90.1905 31.6483C91.2377 33.1888 91.9906 34.8763 92.38 36.6764C92.9685 39.3765 92.9425 42.1026 92.2416 44.794C91.7656 46.62 91.03 48.3249 89.9482 49.8653C87.2827 53.6559 83.423 55.629 79.1305 56.9358C77.9795 57.2906 76.7766 57.1781 75.5996 57.2819C74.9765 57.3425 74.3534 57.4897 73.7303 57.507C72.8216 57.5329 71.9389 57.6541 71.0475 57.8531C67.8109 58.5887 65.3098 60.458 63.3713 63.0283C60.6971 66.5765 59.8058 70.6007 60.7058 74.9797C61.4154 78.4241 63.1809 81.2193 65.9762 83.3569C68.7195 85.4512 71.8956 86.3426 75.2707 86.6455C77.9968 86.8878 80.6709 86.4724 83.3105 85.8147C86.0798 85.131 88.7193 84.0925 91.2204 82.6906C93.531 81.3924 95.6426 79.8347 97.5812 78.0433C99.061 76.6673 100.376 75.1268 101.553 73.4825C103.535 70.7132 105.024 67.7016 105.95 64.4303C106.703 61.7735 107.04 59.0474 107.006 56.2781C107.023 54.0713 106.772 51.8904 106.331 49.7182ZM97.6244 63.0197C97.8235 63.4004 97.4427 63.5908 97.3648 63.8764C97.8754 64.0582 97.5119 64.3611 97.4946 64.6466C97.4513 65.2438 96.8715 65.6419 96.9581 66.2823C96.9754 66.438 96.7677 66.6198 96.5427 66.6284C96.3263 66.6371 96.1705 66.5332 96.0926 66.3255C95.9542 65.9621 95.634 66.0313 95.409 66.1092C95.158 66.2044 94.9243 66.4034 95.1753 66.7582C95.357 67.0179 95.409 67.2862 95.0282 67.4765C94.7253 67.6323 94.8984 67.9352 94.933 68.1516C94.9676 68.4025 95.1667 68.2295 95.3051 68.2121C95.409 68.1948 95.5388 68.1862 95.5561 68.29C95.6253 68.6362 95.9542 68.9564 95.6513 69.3545C95.5215 69.5276 95.5907 69.7266 95.6773 69.9084C95.8244 70.2113 95.7811 70.4276 95.409 70.5315C94.7253 70.7305 94.0762 70.8171 93.3579 70.6094C92.9512 70.4882 92.4406 70.6267 92.0165 70.8171C91.9906 70.8257 91.9646 70.8603 91.9646 70.8776C91.8954 71.57 91.1511 71.4921 90.805 71.8729C90.6578 72.0373 90.3896 71.8296 90.1732 71.8036C89.9309 71.7777 89.8184 71.795 89.8184 72.0892C89.8184 72.4613 89.5328 72.6344 89.1693 72.5133C88.7972 72.3835 88.4424 72.4181 88.0529 72.5738C88.1914 72.6258 88.3299 72.6864 88.4683 72.7383C89.0135 72.92 89.0135 72.9114 88.7885 73.4306C89.0309 73.4825 89.2905 73.3527 89.5155 73.4998C89.628 73.5691 89.7665 73.6123 89.7491 73.8027C89.7318 73.9672 89.6107 74.0191 89.4982 74.0364C88.9443 74.097 88.9789 74.6249 88.7799 74.9537C88.6933 75.0922 88.8837 75.1961 88.9703 75.2999C89.0741 75.4211 89.1693 75.5595 89.0828 75.7153C89.0049 75.8624 88.8318 75.8365 88.7107 75.7845C88.451 75.6807 88.3212 75.7845 88.2087 76.0009C88.0789 76.2605 87.8972 76.5115 87.8798 76.8057C87.8625 77.1173 87.551 77.1605 87.4039 77.3509C87.8712 77.6884 87.8799 77.749 87.5164 78.199C87.3779 78.3635 87.4385 78.3981 87.5423 78.5625C87.7241 78.8568 87.9058 78.9433 88.2174 78.9433C88.3558 78.9433 88.4943 79.0731 88.6155 79.1597C88.8145 79.3068 88.8664 79.4539 88.6068 79.601C88.5116 79.6529 88.3818 79.7135 88.3472 79.8087C88.1828 80.2414 87.9577 80.5443 87.4298 80.3453C87.4039 80.3366 87.3346 80.3626 87.3173 80.3885C87.0577 80.8559 86.4865 81.1242 86.4519 81.7299C86.426 82.1367 86.1923 82.1713 85.8807 82.0848C85.7509 82.0501 85.6125 81.9982 85.4913 81.9376C85.0413 81.704 84.8509 81.7559 84.6345 82.2146C84.548 82.3877 84.4874 82.578 84.4182 82.7598C84.3576 82.9242 84.2538 83.1146 84.1066 83.1233C83.4662 83.1579 83.4403 83.8848 82.9729 84.1012C83.0508 84.7156 82.6527 84.8887 82.1594 84.9926C82.0469 85.0185 81.9085 85.1224 81.9085 85.2522C81.8912 85.7195 81.5623 85.6589 81.2594 85.6762C80.7488 85.7022 80.3248 85.6849 80.0911 85.0791C79.9526 84.707 79.5719 84.5339 79.1218 84.4647C78.3516 84.3521 77.5901 84.3781 76.8285 84.4127C76.6294 84.4214 76.491 84.3695 76.3612 84.205C76.1708 83.9454 75.8419 83.7464 75.7554 83.4694C75.6515 83.106 75.4006 82.8204 75.34 82.4482C75.2707 82.0415 74.9159 81.6694 75.1755 81.2107C75.2015 81.1588 75.0198 81.0376 75.063 80.9511C75.089 80.8991 74.9246 80.4664 74.8121 80.1549C74.7775 80.1376 74.7515 80.1116 74.7342 80.0857C74.4313 79.6789 73.964 79.4452 73.7563 78.926C73.6178 78.5885 73.4534 78.1644 72.986 78.026C72.6831 77.9308 72.7264 77.5846 72.6831 77.3423C72.6226 76.9615 72.4581 76.9096 72.1466 77.074C71.9216 77.1865 71.6879 77.2817 71.4716 77.4115C71.2119 77.576 70.9783 77.6884 70.736 77.3942C70.6667 77.3163 70.5629 77.325 70.459 77.3423C70.3638 77.3596 70.2686 77.3769 70.1648 77.3769C69.2128 77.4288 68.7888 76.9269 69.0484 76.0095C69.109 75.7932 69.0571 75.7413 68.884 75.6374C68.4426 75.3605 68.0099 75.0922 67.456 75.1874C67.3176 75.2134 67.1272 75.1787 67.0579 75.2566C66.8156 75.5163 66.6685 75.3951 66.4002 75.2653C65.9069 75.0403 66.106 74.6768 66.08 74.3479C66.0714 74.2268 66.1839 74.1922 66.2704 74.1576C66.7118 74.0018 66.9628 73.7248 66.8849 73.2229C66.8589 73.0585 66.9368 72.894 67.0926 72.8508C67.5166 72.7383 67.4907 72.4527 67.3435 72.1758C67.1964 71.8902 67.2916 71.7604 67.508 71.5959C68.0013 71.2325 68.0099 71.0507 67.6205 70.6007C67.4907 70.4536 67.3781 70.2891 67.2743 70.1334C67.231 70.0641 67.1791 69.917 67.1878 69.9084C67.5253 69.7612 67.3522 69.3199 67.6118 69.1468C67.7243 69.0689 67.8282 68.9737 67.7589 68.8439C67.4474 68.2554 67.9147 67.9179 68.1916 67.5371C68.3474 67.3294 68.5638 67.2775 68.884 67.2775C69.2128 67.2688 69.6542 67.5371 69.9657 67.139C70.0782 66.9919 70.3033 67.0785 70.4763 67.1477C70.8398 67.2948 71.2119 67.4333 71.61 67.3467C71.8524 67.2948 71.9129 67.4506 71.9995 67.6237C72.2591 68.1429 72.2591 68.1516 72.7697 67.84C72.8822 67.7708 72.9687 67.8227 73.0293 67.8833C73.1937 68.0304 73.3841 68.0218 73.5832 68.0218C74.1717 68.0304 74.388 67.8314 74.4486 67.2342C74.4573 67.1304 74.4053 67.0006 74.5178 66.9227C75.0111 66.6198 74.8207 66.2477 74.6303 65.8669C74.5611 65.7371 74.4053 65.5813 74.5005 65.4515C74.6044 65.313 74.7861 65.4428 74.9332 65.4688C75.2188 65.5121 75.5131 65.5553 75.7986 65.6332C76.0063 65.6851 76.3092 65.6851 76.3612 65.4169C76.465 64.8803 76.8631 64.9841 77.166 65.0534C77.4083 65.114 77.4429 65.0101 77.5728 64.8803C78.1439 64.3178 78.0401 63.686 77.867 63.0197C77.8497 62.9677 77.841 62.9158 77.8237 62.8552C77.7112 62.3273 77.841 62.1456 78.3776 62.2062C78.6286 62.2321 78.7238 62.1542 78.8103 61.9465C78.9055 61.6956 79.0872 61.4792 79.3209 61.3494C79.6411 61.1763 79.7017 60.934 79.6065 60.6225C79.5199 60.3628 79.5892 60.2244 79.8748 60.1378C80.5411 59.9561 80.7315 59.3416 80.9738 58.8051C81.1469 58.407 81.2508 57.9829 81.3719 57.5762C81.4498 57.3166 81.5883 57.1954 81.8566 57.2906C82.3672 57.4723 82.9556 57.3079 83.172 56.9704C83.4835 56.4771 83.8557 56.6502 84.2191 56.5463C84.773 56.3819 85.1278 56.5637 85.4394 56.9791C85.5605 57.1435 85.699 57.23 85.8981 57.1002C86.0625 56.9877 86.2442 57.0483 86.3827 57.1002C86.9192 57.2993 87.577 57.2214 87.975 57.7493C88.0183 57.8099 88.0962 57.8618 88.1568 57.8185C88.4597 57.5848 88.7972 57.706 89.126 57.6714C89.3857 57.6454 89.5241 57.4377 89.628 57.2214C89.7145 57.0483 89.7838 56.8665 89.8357 56.6762C89.9655 56.2348 90.1559 55.9146 90.7184 56.079C90.9261 56.1396 91.1165 55.9838 91.1684 55.7848C91.2636 55.43 91.5319 55.4473 91.7656 55.5165C92.0252 55.5857 91.9906 55.854 91.9387 56.0444C91.8435 56.3992 91.93 56.5117 92.2935 56.4425C92.4666 56.4079 92.6569 56.4425 92.8387 56.4338C93.1935 56.4165 93.4445 56.5377 93.5743 56.9012C93.6522 57.1175 93.756 57.3166 94.0156 56.9877C94.2839 56.6415 94.708 56.7281 94.8984 57.1175C94.9763 57.2733 95.0888 57.3858 95.2186 57.4983C95.4782 57.7147 95.6859 57.9829 95.7811 58.3118C95.8157 58.4329 95.8503 58.5281 95.9888 58.5281C96.2744 58.5368 96.3436 58.7532 96.3436 58.9608C96.3436 59.6186 96.6465 60.1724 96.8888 60.7436C97.0186 61.0465 97.1138 61.3408 97.0446 61.6783C96.984 61.9552 97.0965 62.111 97.3821 62.1283C97.7283 62.1542 97.7715 62.3533 97.6417 62.6129C97.6071 62.786 97.5639 62.9072 97.6244 63.0197Z" fill="white"/>
<path d="M80.8354 84.9147C80.5065 84.2483 79.9526 83.8502 79.2257 83.7377C78.793 83.6685 78.3343 83.6079 77.8583 83.6079C77.5381 83.6079 77.2439 83.6338 76.967 83.6944C76.941 83.7031 76.9237 83.7031 76.9237 83.7031C76.915 83.7031 76.8977 83.7031 76.8631 83.6598C76.2573 83.0281 75.9631 82.2578 75.9977 81.3491C76.0063 81.0722 75.9717 80.6741 75.5823 80.4058C75.5736 80.3885 75.565 80.3712 75.5477 80.3366C75.6169 80.1808 75.7034 79.8347 75.2707 79.5231L75.2361 79.4972C75.1409 79.3933 75.0198 79.2895 74.9073 79.177C74.6909 78.9779 74.5005 78.8048 74.3967 78.5798C74.1803 78.1125 73.9467 77.6365 73.5399 77.4721C73.4966 77.4548 73.4793 77.4375 73.4793 77.4375C73.4707 77.4288 73.4534 77.3596 73.4447 77.3077C73.4274 77.2471 73.4101 77.1778 73.3928 77.1173C73.2716 76.7451 73.1072 76.2345 72.5447 76.2345C72.3456 76.2345 72.1552 76.3038 71.8783 76.4076C71.7312 76.4682 71.5927 76.5461 71.4802 76.6153C71.3504 76.6932 71.2119 76.7798 71.1341 76.7798C71.0908 76.7798 71.0389 76.7451 71.0042 76.7192C70.909 76.6413 70.7879 76.6067 70.6581 76.6067C70.5542 76.6067 70.459 76.6326 70.3985 76.6499L70.3638 76.6586C70.3119 76.6672 70.26 76.6759 70.1994 76.6759C70.1042 76.6759 69.9917 76.6586 69.8705 76.6326C69.8446 76.624 69.8186 76.624 69.8013 76.6153C69.81 76.5894 69.8186 76.5547 69.8273 76.5201C70.0436 75.8105 69.8013 75.2653 69.1176 74.9537C69.083 74.9364 69.0398 74.9191 69.0224 74.9018C68.6849 74.5903 68.2695 74.4258 67.7935 74.4258C67.6464 74.4258 67.508 74.4431 67.3608 74.4691C67.4993 74.2787 67.5685 74.0277 67.5772 73.7162C67.5772 73.6643 67.5772 73.6123 67.5685 73.5517C67.5685 73.5258 67.5685 73.5085 67.5685 73.4912C68.2782 73.1796 68.1657 72.5046 68.1138 72.2017L68.1051 72.1498C68.0964 72.0805 68.0964 72.0459 68.0964 72.0286C68.1051 72.0286 68.1138 72.02 68.1311 72.0027C68.434 71.795 68.6157 71.5007 68.633 71.1719C68.6503 70.817 68.4859 70.4709 68.157 70.1853C68.1138 70.1507 68.0878 70.1247 68.0618 70.0987C68.1657 69.8997 68.2089 69.7093 68.2263 69.5362C68.3474 69.4756 68.4513 69.3978 68.5205 69.2852C68.7022 68.9997 68.5984 68.7054 68.5465 68.541C68.5205 68.4718 68.5378 68.3419 68.6243 68.2208C68.6936 68.1256 68.7628 68.091 68.7888 68.091C68.858 68.0996 68.9186 68.0996 68.9792 68.0996C69.2474 68.0996 69.4984 68.065 69.7494 68.0391C69.9657 68.0131 70.1907 67.9785 70.3898 67.9785C70.6321 67.9785 70.8312 68.0217 71.0129 68.1083C71.0908 68.1516 71.1773 68.1689 71.2725 68.1689C71.3158 68.1689 71.3591 68.1602 71.4023 68.1602C71.4196 68.1602 71.4456 68.1516 71.4716 68.1516C71.4975 68.1516 71.5148 68.1689 71.5408 68.2381C71.6879 68.6275 72.0168 68.8699 72.3803 68.8699C72.5101 68.8699 72.6485 68.8352 72.7783 68.7833C72.8303 68.7573 72.8822 68.7487 72.9514 68.7487C73.0207 68.7487 73.0985 68.7573 73.1678 68.766L73.2457 68.7747C73.3755 68.792 73.5053 68.8006 73.6351 68.8006C73.8861 68.8006 74.1111 68.766 74.3188 68.6968C74.8553 68.5237 75.1323 68.1169 75.063 67.615C75.4092 67.3467 75.5823 66.9573 75.5823 66.464C75.6602 66.4813 75.7381 66.49 75.816 66.49C76.0237 66.49 76.3265 66.4207 76.5775 66.0832C76.6294 66.0226 76.6987 65.9621 76.7506 65.9447C76.915 65.988 77.0535 66.0053 77.192 66.0053C78.0314 66.0053 78.3689 65.3043 78.5074 64.9668C78.7151 64.7678 78.9141 64.4303 78.8189 63.8851C78.7843 63.6947 78.7411 63.5129 78.6978 63.3225C78.6978 63.3225 78.6372 63.0802 78.6372 63.0629C78.6545 63.0629 78.6718 63.0543 78.6891 63.0543C78.7151 63.0543 78.7324 63.0456 78.7584 63.0456C79.3036 63.0023 79.5892 62.76 79.6324 62.31C79.6411 62.2148 79.6844 62.1542 79.7709 62.111C80.2902 61.8427 80.5325 61.384 80.4632 60.7955C80.87 60.6224 81.1729 60.2849 81.3892 59.7743C81.6402 59.1772 81.8219 58.6926 81.9604 58.2425C81.9691 58.2079 81.9777 58.1906 81.9864 58.1733C82.1248 58.2166 82.2633 58.2339 82.3931 58.2339C82.8691 58.2339 83.2153 57.9829 83.4922 57.7752C83.5787 57.706 83.6566 57.6541 83.7345 57.6021C83.7951 57.5675 83.8557 57.5329 83.9076 57.4896C84.0374 57.4031 84.1066 57.3685 84.1586 57.3685C84.2624 57.3771 84.3403 57.3771 84.4268 57.3771C84.6519 57.3771 84.6951 57.3858 84.7384 57.4291C85.0846 57.7666 85.448 57.931 85.8548 57.931C86.0192 57.931 86.1836 57.905 86.3567 57.8445C86.374 57.8445 86.3827 57.8445 86.3913 57.8445C86.4259 57.8445 86.4433 57.8531 86.4519 57.8618C86.6683 58.0348 86.9192 58.1127 87.2221 58.1127C87.2394 58.1127 87.2654 58.1127 87.2914 58.1127C87.4904 58.4589 87.75 58.6233 88.0529 58.6233C88.1481 58.6233 88.2433 58.606 88.3299 58.5714C88.5895 58.4762 88.8837 58.4329 89.2472 58.4329C89.4722 58.4329 89.8876 58.3291 89.9742 57.957C89.9915 57.8704 90.0694 57.7752 90.1732 57.6541C90.303 57.4896 90.4501 57.3079 90.528 57.0569C90.5886 56.8665 90.6146 56.8406 90.8136 56.806C90.8396 56.7973 90.8742 56.8059 90.9088 56.7973C91.0127 56.7973 91.1511 56.7886 91.2896 56.754C91.3242 56.8233 91.3675 56.8925 91.4281 56.9531C91.6531 57.1867 91.956 57.2214 92.1983 57.2214C92.2329 57.2214 92.3627 57.2127 92.3627 57.2127C92.4579 57.2127 92.5444 57.204 92.6396 57.204C92.7348 57.204 92.8127 57.204 92.882 57.2127C92.9166 57.7839 93.2454 57.9829 93.4531 58.0522C93.5397 58.0868 93.6349 58.0954 93.7301 58.0954C94.0589 58.0954 94.2926 57.905 94.4224 57.7579C94.483 57.8271 94.5436 57.8964 94.5955 57.957C94.7772 58.156 94.933 58.3291 95.0022 58.5281C95.0195 58.5627 95.0282 58.606 95.0368 58.6406C95.0888 58.8397 95.184 59.2637 95.6167 59.4195C95.6946 59.9474 95.859 60.4407 96.1013 60.8907C96.2138 61.0984 96.2571 61.3321 96.2484 61.6004L96.2398 61.7042C96.2225 61.9379 96.1965 62.3013 96.4388 62.5783C96.5254 62.6821 96.6379 62.7514 96.7677 62.8033C96.7504 62.9591 96.7244 63.1495 96.6984 63.2446C96.508 63.4177 96.4042 63.6427 96.4128 63.8677C96.4215 64.0754 96.534 64.2658 96.7157 64.3957C96.7157 64.4043 96.7071 64.4216 96.7071 64.4389C96.6984 64.5082 96.6898 64.5428 96.6811 64.586C96.6552 64.7418 96.5686 64.9062 96.4734 65.088C96.4042 65.2091 96.335 65.339 96.2744 65.4774C96.1532 65.4168 96.0407 65.3649 95.9369 65.3303C95.8071 65.2784 95.6772 65.2611 95.5474 65.2611C95.2965 65.2611 94.9157 65.3563 94.5782 65.8149L94.5262 65.8755C94.1282 66.3861 94.1974 66.7582 94.3878 67.0265C94.1195 67.4852 94.0762 68.29 94.3099 68.6795C94.4484 68.9045 94.6647 69.0429 94.9243 69.0602C94.8378 69.2679 94.7512 69.5622 94.8551 69.8824C94.8291 69.891 94.8032 69.891 94.7772 69.8997C94.6128 69.9343 94.4137 69.9862 94.2233 70.0814C94.1541 70.0468 94.0676 70.0035 93.9724 69.9776C93.9551 69.9689 93.8945 69.943 93.8599 69.917C93.7214 69.8391 93.531 69.7353 93.28 69.7353C93.1502 69.7353 93.0204 69.7612 92.8993 69.8218C92.6223 69.9516 92.3194 70.0209 91.9992 70.0468C91.6271 70.0728 91.3588 70.2718 91.2377 70.6353C91.1511 70.8863 90.8396 71.0853 90.528 71.0853C90.4847 71.0853 90.4501 71.0853 90.4069 71.0767C90.277 71.0507 90.1645 71.042 90.0607 71.042C89.7232 71.042 89.3078 71.1805 89.1607 71.8036C88.7626 71.6911 88.4337 71.6392 88.1049 71.6392C88.0097 71.6392 87.9058 71.6478 87.8106 71.6565C87.2654 71.7171 87.0577 72.0892 87.0404 72.4267C87.0231 72.8075 87.2221 73.0671 87.6375 73.2056H87.6462C87.6116 73.3354 87.6116 73.4739 87.6722 73.6296C87.8106 73.9671 88.1654 74.0537 88.3472 74.0883C88.1481 74.3306 87.9491 74.6422 87.9924 75.0662C87.4991 75.3172 87.3346 75.8018 87.2221 76.1393C87.1962 76.2259 87.1702 76.3038 87.1356 76.3817C87.1183 76.4336 87.101 76.4769 87.0837 76.5288C86.7981 76.5894 86.5212 76.7711 86.4519 77.0913C86.4086 77.2903 86.4346 77.5759 86.7894 77.8096C86.6423 78.0346 86.6337 78.2942 86.7375 78.6144C86.9279 79.1856 87.2567 79.4539 87.5943 79.5837C87.577 79.6097 87.551 79.6443 87.5337 79.6616C87.525 79.6616 87.4818 79.6443 87.4818 79.6443L87.4558 79.6356C87.4558 79.6356 87.3693 79.627 87.3606 79.627C87.1702 79.627 86.9971 79.7049 86.8846 79.8433C86.7894 79.9558 86.6683 80.0683 86.5558 80.1808C86.2615 80.4578 85.924 80.7607 85.7855 81.2366C85.7163 81.2107 85.6644 81.1847 85.6125 81.1501C85.4394 81.0549 85.2663 81.003 85.0932 81.003C84.7817 81.003 84.5047 81.1501 84.2624 81.4443C84.0028 81.7559 83.8557 82.1021 83.7258 82.4223C83.7258 82.4309 83.7172 82.4396 83.7172 82.4482C83.7085 82.4482 83.6912 82.4482 83.6826 82.4482C83.3883 82.4828 82.7652 82.5521 82.6614 83.2963C82.6527 83.305 82.6008 83.3656 82.5575 83.4088C82.4104 83.5646 82.1768 83.8156 82.1941 84.2137C82.1941 84.2223 82.1941 84.2396 82.1941 84.2396C82.1681 84.2483 82.1162 84.2742 82.0037 84.3002C81.7873 84.3608 81.3892 84.4646 81.1902 84.8714C81.1556 84.8714 81.1209 84.8714 81.0777 84.8714C81.0344 84.8714 80.9825 84.8714 80.9392 84.8714C80.9046 84.8714 80.8786 84.8714 80.844 84.8714C80.844 84.9147 80.8354 84.9147 80.8354 84.9147Z" fill="white"/>
<path d="M75.8592 22.7778C57.0018 22.8037 41.9955 37.9052 41.7186 56.3299C41.4157 76.2605 57.4864 90.7648 75.1323 91.0937C94.5262 91.4572 110.311 75.9056 110.156 56.4597C110.026 38.5456 95.2272 22.7172 75.8592 22.7778ZM75.9631 90.0033C57.3999 89.9946 42.8263 74.971 42.8176 56.8925C42.8176 38.9697 57.3134 23.7816 76.0669 23.9115C93.9983 23.9201 109.186 38.3726 109.013 57.4204C108.866 75.5249 93.7906 90.0033 75.9631 90.0033Z" fill="white"/>
<path d="M90.8569 39.5322C90.779 38.7533 90.528 38.009 90.0261 37.3773C89.152 36.2868 88.001 35.5945 86.6596 35.283C85.249 34.9541 83.821 35.1358 82.4277 35.482C80.8267 35.8801 79.3295 36.5465 77.8151 37.1955C77.4429 37.36 77.0621 37.6282 76.6035 37.533C77.417 37.0744 78.2045 36.5897 78.992 36.0965C80.2555 35.3089 81.5104 34.5301 82.5316 33.4137C83.821 32.003 84.5566 30.3847 84.3489 28.4375C84.2624 27.6413 84.1499 26.8884 83.1806 26.5769C81.77 26.1269 80.3507 25.7461 78.8795 25.5384C78.6978 25.5124 78.5074 25.4778 78.2651 25.573C78.3949 25.6682 78.4728 25.7374 78.5593 25.798C79.3036 26.2913 79.9873 26.8538 80.5757 27.5202C82.272 29.4241 82.246 31.2674 80.7921 33.18C79.5459 34.8156 77.841 35.8974 76.0929 36.9099C76.015 36.9532 75.9111 37.0138 75.816 36.9619C75.6948 36.8926 75.7208 36.7715 75.7381 36.659C75.8073 36.2263 76.0756 35.8974 76.3352 35.5772C76.8891 34.8935 77.4429 34.2098 77.7631 33.3877C78.5507 31.3713 77.9449 29.1125 76.2573 27.7279C75.089 26.7673 73.6957 26.3432 72.2158 26.2134C71.5235 26.1528 70.8225 26.0663 70.1302 26.1788C69.9744 26.2047 69.7753 26.2134 69.8705 26.4384C70.0263 26.8105 69.8186 26.8279 69.5417 26.8365C68.7974 26.8452 68.0618 26.8711 67.3176 26.8884C67.0147 26.8971 66.7897 26.975 66.7031 27.3211C66.6252 27.6413 66.4089 27.8144 66.0281 27.8058C65.5175 27.7885 64.9983 27.8577 64.479 27.8577C64.1242 27.8577 63.8905 27.9875 63.6655 28.2644C63.3886 28.6106 63.1722 29.052 62.6789 29.1731C61.8914 29.3635 61.1125 29.5539 60.3163 29.7183C59.9529 29.7962 59.6846 29.9433 59.5115 30.2982C59.2952 30.7309 59.0702 31.1722 58.5942 31.3972C58.1268 31.6136 57.6855 31.8905 57.1922 32.0463C56.4652 32.2713 56.1018 32.7386 55.972 33.4569C55.9287 33.7166 55.8075 33.9502 55.5393 34.0887C54.8642 34.4175 54.1979 34.7551 53.5228 35.0926C53.3065 35.1964 53.1594 35.3608 53.1421 35.6032C53.0901 36.607 52.6228 37.2907 51.6449 37.6109C51.6103 37.6196 51.5756 37.6629 51.5324 37.6715C50.8227 37.8965 50.5545 38.3638 50.6929 39.0994C50.7275 39.2812 50.7449 39.5062 50.5372 39.6273C50.1218 39.8783 49.7669 40.2158 49.3515 40.4668C48.7198 40.8476 48.0621 41.2543 48.5207 42.1976C48.6246 42.4053 48.4515 42.6217 48.2957 42.7948C47.9409 43.1842 47.6207 43.6083 47.2313 43.9631C46.7207 44.4218 46.6255 44.9237 46.8591 45.5381C47.0668 46.092 47.0582 46.6026 46.6168 47.0786C46.3139 47.3988 46.0803 47.7882 45.8033 48.1344C45.2927 48.7748 45.2754 48.7748 45.7427 49.4412C45.9072 49.6748 45.9331 49.8566 45.7774 50.1162C45.4572 50.6354 45.2062 51.198 44.8946 51.7172C44.6869 52.0634 44.6783 52.3317 45.0245 52.574C45.2581 52.7471 45.2581 52.9461 45.1456 53.223C44.8773 53.8634 44.6696 54.5298 44.4619 55.1962C44.3235 55.6462 44.2369 56.1049 44.7562 56.3991C44.9379 56.503 44.9466 56.6847 44.9206 56.8751C44.8254 57.4636 44.7475 58.0607 44.6177 58.6492C44.4792 59.2723 44.4879 59.7915 45.1802 60.0944C45.535 60.2502 45.6649 60.5618 45.6302 60.9858C45.5783 61.6522 45.6649 62.3359 45.5783 62.9936C45.4831 63.7292 45.7254 64.2138 46.4005 64.4821C46.7207 64.6119 46.7726 64.8456 46.7553 65.1485C46.7293 65.7889 46.712 66.4293 46.6947 67.0783C46.6774 67.8832 46.6774 67.8832 47.4217 68.1601C47.5428 68.2034 47.6553 68.264 47.7765 68.2899C48.0101 68.3332 48.0794 68.4803 48.114 68.6967C48.2265 69.5015 48.3477 70.2977 48.4861 71.0939C48.6332 71.942 48.5034 71.8035 49.291 71.665C49.5938 71.6131 49.715 71.6737 49.7929 71.9766C49.94 72.5564 50.1218 73.1276 50.3035 73.6988C50.5112 74.3738 50.5198 74.3738 51.2208 74.3825C51.4631 74.3825 51.6362 74.4171 51.7574 74.668C52.0516 75.2998 52.3805 75.9056 52.6834 76.5287C52.8478 76.8748 53.0901 77.0825 53.4882 77.0739C53.8603 77.0652 54.094 77.2556 54.2758 77.5845C54.5354 78.0605 54.8383 78.5105 55.1239 78.9692C55.5219 79.6096 55.5219 79.6182 56.2316 79.3846C56.5085 79.2894 56.6643 79.3499 56.8028 79.6096C57.0018 79.9903 57.2614 80.3365 57.4432 80.7259C57.5989 81.0721 57.8413 81.1673 58.1788 81.0981C58.6807 80.9942 59.0442 81.176 59.2692 81.6433C59.3298 81.7645 59.4336 81.8683 59.5029 81.9808C59.6846 82.2577 59.901 82.4308 60.2644 82.3616C60.4462 82.327 60.6019 82.4049 60.7144 82.5433C61.2077 83.1837 61.9174 83.4693 62.6184 83.7636C63.0165 83.9366 63.3972 84.1876 63.8646 84.1963C63.9078 83.9972 63.7434 83.9453 63.6309 83.8501C62.8693 83.2184 62.1943 82.5087 61.5799 81.7298C59.7192 79.3759 58.8105 76.6672 58.5423 73.7334C58.2826 70.9035 58.7067 68.1428 59.7365 65.486C60.6366 63.1753 62.1078 61.2541 64.0203 59.731C65.7598 58.3463 67.6983 57.2559 69.8705 56.6328C71.7052 56.1049 73.5745 55.8452 75.4611 55.6895C76.716 55.5856 77.9622 55.4558 79.1738 55.1096C80.7142 54.6769 82.1594 53.9759 83.5441 53.1798C85.7509 51.9163 87.5337 50.2287 88.7885 48.0046C89.8357 46.1526 90.5194 44.1881 90.7703 42.0678C90.9174 41.2284 90.9434 40.3803 90.8569 39.5322ZM75.4784 48.4459C74.9938 49.0258 74.3967 49.4498 73.7043 49.8393C73.7043 49.4239 74.0159 49.3373 74.2236 49.1815C75.2275 48.4459 75.4611 47.9094 75.1323 46.6891C74.8553 45.6939 74.2495 44.9323 73.2457 44.5602C73.1418 44.5256 73.0293 44.4996 72.9255 44.4823C72.4062 44.4391 72.3456 44.5169 72.536 45.0016C72.562 45.0622 72.5966 45.1314 72.6139 45.192C72.8735 46.0834 72.7956 46.2564 71.9475 46.6632C71.9389 46.6718 71.9216 46.6718 71.9129 46.6805C71.0821 47.0872 71.0908 47.0872 70.7879 46.1785C70.6754 45.8324 70.5283 45.4949 70.3725 45.0881C70.234 45.2958 70.26 45.4429 70.26 45.5901C70.26 45.9622 70.2773 46.343 70.1648 46.7151C70.0177 47.217 69.8705 47.3382 69.334 47.3469C68.6416 47.3555 67.9493 47.2776 67.2483 47.468C66.3223 47.719 65.9762 48.0478 65.881 49.0085C65.8031 49.7354 66.0454 50.1422 66.8675 50.6268C67.1531 50.7912 67.482 50.8864 67.7935 50.9989C68.0618 51.0941 68.2349 51.0768 68.2955 50.696C68.4686 49.6575 69.2734 48.896 70.3032 48.7229C70.8225 48.6363 70.909 48.6883 71.0562 49.1729C71.2379 49.8133 71.4023 50.4624 71.5841 51.1114C71.6446 51.3364 71.6273 51.4749 71.3504 51.5268C70.8831 51.6134 70.4331 51.7518 69.9744 51.8557C69.758 51.9076 69.6715 52.0115 69.7234 52.2451C69.8013 52.5913 69.9138 52.9115 70.234 53.1192C70.6927 53.4048 71.1254 53.3269 71.4456 52.8942C71.5321 52.773 71.6273 52.6605 71.7225 52.5307C71.9302 53.024 71.7745 53.4394 71.3071 53.6904C70.485 54.1317 69.4551 53.7336 69.1522 52.7903C68.9186 52.072 68.4599 51.7778 67.7589 51.6653C66.8502 51.5268 65.9416 51.4057 65.1108 50.947C64.1761 50.4277 63.553 49.6316 63.0684 48.6969C62.9299 48.4286 62.7482 48.1777 62.5924 47.918C62.4712 47.7103 62.3241 47.7103 62.1424 47.8315C60.351 49.0344 59.3471 50.696 59.2259 52.8509C59.1307 54.5212 59.5375 56.0789 60.2731 57.5674C60.4981 58.0174 60.4635 58.2424 60.126 58.6319C59.9009 58.0347 59.6846 57.4549 59.4682 56.8837C59.0355 55.75 58.5942 54.6337 58.3259 53.4394C58.0836 52.3663 58.0576 51.2845 57.9624 50.2027C57.8586 49.0258 57.8153 47.8315 57.3739 46.7151C57.2614 46.4295 57.1316 46.1526 56.9758 45.893C56.7422 45.5035 56.2749 45.4603 55.7123 45.7285C55.02 46.0574 54.8642 46.7151 54.6911 47.3642C54.5613 47.8315 54.4661 48.2988 54.2758 48.7835C54.12 48.6104 54.0594 48.4459 54.0334 48.2729C53.7219 46.2824 53.9123 44.3266 54.319 42.3707C54.6738 40.6658 55.5479 39.3071 56.9326 38.2513C57.8932 37.5244 58.7586 36.6676 59.9183 36.2349C59.9529 36.2176 59.9961 36.2003 60.0221 36.1657C60.4375 35.4993 61.0866 35.4907 61.7616 35.5426C62.151 35.5772 62.5405 35.5772 62.9299 35.6205C63.7434 35.707 64.4617 35.3695 65.1713 35.0666C66.3483 34.5647 67.4387 34.8329 68.4945 35.3782C69.8013 36.0618 70.71 37.1609 71.4543 38.4071C71.7398 38.8831 71.9995 39.3764 72.2418 39.8697C72.3543 40.0947 72.4841 40.1639 72.7351 40.1379C73.1505 40.0947 73.5486 39.9389 73.9726 39.9562C74.6823 39.9822 75.0977 40.3197 75.3659 40.9861C75.6342 41.6611 75.6169 42.3274 75.3573 42.9765C75.0111 43.816 75.2275 44.5775 75.5563 45.3477C75.7467 45.7891 75.9458 46.2391 75.9977 46.7324C76.0583 47.3815 75.8938 47.944 75.4784 48.4459Z" fill="white"/>
<path d="M68.5898 42.9506C68.2436 42.9506 67.8888 42.9419 67.5426 42.9506C67.3089 42.9592 67.1964 42.8814 67.231 42.639C67.2657 42.3621 67.1964 42.0765 67.5513 41.8948C67.8022 41.765 67.7416 41.315 67.4993 41.1073C66.8157 40.5274 65.9935 40.3024 65.1367 40.1207C64.2973 39.9389 63.4146 39.9303 62.5924 39.6274C61.8655 39.3591 61.6924 38.9178 62.1251 38.2687C62.6097 37.5417 63.1809 36.9533 64.1069 36.7456C64.981 36.5552 65.7685 36.0013 66.7205 36.0878C67.984 36.2003 69.0484 36.7282 69.8965 37.6542C70.4504 38.26 70.4158 39.0043 69.8186 39.688C69.559 39.9822 69.6196 40.1813 69.8186 40.4409C70.26 41.0121 70.2513 41.0207 69.6542 41.4188C69.559 41.4794 69.4811 41.5486 69.4119 41.6438C69.1869 41.9294 69.2302 42.0765 69.5936 42.1371C69.8533 42.189 70.1042 42.2842 70.3292 42.4227C70.459 42.5006 70.5369 42.639 70.5196 42.7688C70.5023 42.9333 70.3292 42.89 70.2081 42.8987C69.6629 42.9246 69.1177 42.9506 68.5811 42.9766C68.5898 42.9592 68.5898 42.9592 68.5898 42.9506Z" fill="white"/>
<path d="M62.8866 44.5949C62.8607 43.8939 63.0078 43.2448 63.1895 42.5958C63.2587 42.3361 63.3972 42.215 63.6395 42.1717C64.5396 42.0246 65.4223 42.0938 66.2531 42.4833C66.6598 42.6737 66.8502 43.4785 66.5993 43.8506C66.4348 44.1016 66.2358 44.3179 65.9675 44.4391C65.3444 44.7333 64.9203 45.192 64.5915 45.7805C64.3838 46.1613 64.1588 46.5161 63.7088 46.6805C63.4491 46.7757 63.328 46.7065 63.2328 46.4728C62.9732 45.8757 62.8433 45.2353 62.8866 44.5949Z" fill="white"/>
<path d="M75.1236 42.1891C75.115 42.6564 74.9938 43.0891 74.8121 43.5219C74.7169 43.7382 74.5784 43.7642 74.3794 43.7209C74.1284 43.669 73.9034 43.5565 73.6957 43.418C73.3062 43.1497 72.8562 43.0459 72.4062 42.9766C71.7225 42.8728 71.4975 42.4055 71.861 41.817C72.3803 40.9602 73.739 40.441 74.6823 40.7093C74.838 40.7525 74.9246 40.8477 74.9505 40.9948C75.0111 41.3843 75.1409 41.7737 75.1236 42.1891Z" fill="white"/>
<path d="M62.2808 36.3735C62.5145 36.3475 62.5404 36.46 62.4712 36.6504C62.3933 36.8581 62.2029 36.884 62.0212 36.9014C61.6058 36.9533 61.2596 37.1523 60.9481 37.4206C60.8961 37.4639 60.8529 37.5331 60.7923 37.5591C60.6538 37.6197 60.4807 37.7495 60.3682 37.6543C60.2211 37.5418 60.3682 37.3773 60.4202 37.2389C60.6365 36.685 60.9913 36.3388 61.6491 36.4167C61.8568 36.4513 62.0731 36.3908 62.2808 36.3735Z" fill="white"/>
<path d="M65.855 92.3053L66.8157 92.6169L65.2493 97.5065L64.254 97.1863L64.0809 95.092C64.0636 94.815 64.029 94.3391 64.029 94.14L64.0031 94.1314C63.8906 94.2958 63.5877 94.6679 63.4059 94.8843L62.0472 96.494L61.052 96.1737L62.6184 91.2841L63.5877 91.5957L63.2069 92.7986C62.9905 93.3871 62.7742 93.9669 62.5578 94.5554L62.5924 94.5814L63.4405 93.439L63.8992 92.8505L64.8771 93.1621L64.9117 93.9064L64.9377 95.3343H64.981C65.1541 94.7372 65.3098 94.1314 65.4829 93.5256L65.855 92.3053ZM61.0001 90.5226L59.3731 91.9592C59.0442 92.2534 58.7327 92.5823 58.4211 92.8938L58.4125 92.8679C58.75 92.314 59.2 91.4659 59.4423 90.9466L59.8837 90.0033L58.9663 89.5793L56.7941 94.2352L57.7201 94.6679L59.5462 93.0583C59.8058 92.8332 60.0481 92.565 60.2991 92.3226L60.3077 92.3486C59.9616 92.9025 59.5462 93.6727 59.3385 94.1054L58.8365 95.1785L59.7539 95.6026L61.9261 90.9466L61.0001 90.5226ZM57.374 88.6619L56.2922 90.4533L55.3922 89.9081L56.4739 88.1167L55.5739 87.5715L52.9171 91.9592L53.8171 92.5044L54.8816 90.7476L55.7816 91.2928L54.7171 93.0496L55.6172 93.5948L58.274 89.1985L57.374 88.6619ZM54.1287 86.5157L52.2334 87.5715C51.844 87.7879 51.4718 88.0475 51.0997 88.2812V88.2465C51.5497 87.7792 52.1728 87.0436 52.519 86.5849L53.1507 85.7541L52.3459 85.1397L49.2304 89.2158L50.0439 89.8389L52.1728 88.6619C52.4757 88.4975 52.77 88.2898 53.0642 88.1081V88.1427C52.6055 88.61 52.0344 89.2764 51.7401 89.6572L51.0218 90.6005L51.8267 91.2149L54.9422 87.1388L54.1287 86.5157ZM50.7795 85.8753C51.5151 85.0878 51.4891 84.2656 50.7622 83.5819C50.0006 82.8636 49.1785 82.881 48.4169 83.6512L49.1785 84.3695C49.516 84.0579 49.7756 84.0493 50.0699 84.3262C50.3035 84.5512 50.2949 84.8195 49.992 85.1397L48.6246 86.5936C48.3131 86.9225 48.0361 86.9484 47.8111 86.7321C47.5255 86.4638 47.5255 86.2042 47.8284 85.8407L47.0669 85.1224C46.3486 85.9359 46.3659 86.758 47.1101 87.459C47.8371 88.1513 48.6679 88.1254 49.4121 87.3379L50.7795 85.8753ZM48.7371 81.6434L48.0275 80.8386L44.9206 83.5819L44.2543 82.829L43.51 83.4867L45.5524 85.7974L46.2966 85.1397L45.6303 84.3868L48.7371 81.6434ZM45.5178 77.6019L44.7216 78.1904L45.7168 79.5405L44.7995 80.2155L43.9341 79.0385L43.1638 79.6097L44.0293 80.7867L43.1725 81.4184L42.2205 80.1289L41.4244 80.7174L42.9994 82.8463L47.1274 79.7914L45.5178 77.6019ZM45.1803 77.1L40.7753 79.7482L40.0051 78.4673C39.4599 77.5587 39.6849 76.6846 40.6282 76.1134C41.5628 75.5509 42.4455 75.7586 42.9908 76.6673L43.2244 77.0481L44.6437 76.2L45.1803 77.1ZM42.3763 77.5673L42.1513 77.1952C41.935 76.8404 41.6061 76.7798 41.182 77.0308C40.758 77.2904 40.6455 77.6106 40.8618 77.9654L41.0868 78.3375L42.3763 77.5673ZM41.9436 74.6941C42.9215 74.2355 43.1898 73.4566 42.7658 72.5566C42.3244 71.6132 41.5455 71.3277 40.5589 71.769L41.0003 72.7123C41.4244 72.5479 41.6753 72.6258 41.8484 72.9979C41.9869 73.2921 41.8744 73.5345 41.4763 73.7249L39.6762 74.5816C39.2608 74.772 39.0012 74.6941 38.8627 74.4085C38.6896 74.0537 38.7935 73.8114 39.2002 73.5864L38.7589 72.6431C37.7896 73.1364 37.504 73.9066 37.9454 74.8326C38.3781 75.7413 39.157 76.0182 40.1349 75.5595L41.9436 74.6941ZM37.6944 71.4315L41.5888 70.0122L41.2253 69.0083L37.3309 70.4276L36.9848 69.4843L36.0501 69.8218L37.1059 72.721L38.0406 72.3835L37.6944 71.4315ZM40.7666 67.7016L35.7992 69.0083L35.3924 67.4593C35.1934 66.689 35.6174 65.9967 36.4569 65.7717C36.829 65.6765 37.2704 65.7284 37.5819 65.9275C37.6944 65.5034 38.0406 65.1746 38.4819 65.062C39.3647 64.8284 40.1262 65.2784 40.3512 66.1352L40.7666 67.7016ZM37.5213 67.4766L37.4175 67.0785C37.3396 66.7929 37.1232 66.6977 36.7684 66.7842C36.4309 66.8708 36.3011 67.0612 36.3876 67.3814L36.4828 67.7448L37.5213 67.4766ZM39.5551 66.9487L39.4512 66.5679C39.3474 66.1698 39.105 66.014 38.7502 66.1092C38.3867 66.2044 38.2569 66.4554 38.3608 66.8362L38.4646 67.2429L39.5551 66.9487ZM34.4751 63.4437C34.3106 62.4139 34.8645 61.6956 35.9549 61.5312L37.7377 61.2542C38.8281 61.0811 39.5637 61.6004 39.7281 62.6302C39.8926 63.6601 39.3387 64.3784 38.2483 64.5428L36.4655 64.8197C35.3751 64.9842 34.6308 64.4736 34.4751 63.4437ZM36.2924 63.7466L38.0752 63.4697C38.5512 63.3918 38.7762 63.1581 38.7156 62.7774C38.655 62.3966 38.3694 62.2408 37.8935 62.31L36.1107 62.587C35.6347 62.6648 35.4097 62.8985 35.4703 63.2793C35.5309 63.6687 35.8165 63.8245 36.2924 63.7466ZM39.2089 57.8878L35.0635 57.957L35.0462 56.8925L39.1916 56.8233L39.1743 55.7848L34.0424 55.8627L34.0943 59.0041L39.2262 58.9263L39.2089 57.8878ZM39.2175 55.0146L34.1029 54.5472L34.2414 53.0674C34.3366 52.0116 35.0376 51.4404 36.1367 51.5356C37.2271 51.6308 37.8156 52.3231 37.7117 53.3789L37.6685 53.829L39.3127 53.9761L39.2175 55.0146ZM36.0328 52.6001C35.5395 52.5568 35.2626 52.7472 35.2193 53.1712L35.1761 53.6039L36.6732 53.7424L36.7165 53.3097C36.7598 52.8856 36.5261 52.6433 36.0328 52.6001ZM39.7714 50.4106L37.9887 49.173C37.6165 48.922 37.2271 48.7057 36.8463 48.472L36.8723 48.4547C37.4954 48.6538 38.4214 48.8788 38.9839 48.9913L40.0051 49.1903L40.2041 48.1951L35.1674 47.1999L34.9684 48.2038L36.9675 49.5884C37.2531 49.7875 37.5646 49.9605 37.8588 50.1423L37.8329 50.1596C37.2184 49.9519 36.3617 49.7355 35.8943 49.6403L34.726 49.4067L34.527 50.4019L39.5637 51.3971L39.7714 50.4106ZM40.4032 47.4422L35.4963 45.919L35.9376 44.4998C36.2492 43.4872 37.054 43.0718 38.1098 43.4007C39.157 43.7209 39.581 44.5171 39.2695 45.5383L39.1397 45.9623L40.7147 46.4556L40.4032 47.4422ZM37.7983 44.4219C37.3223 44.2748 37.0107 44.4046 36.8896 44.8113L36.7598 45.2267L38.1964 45.6767L38.3262 45.2613C38.4473 44.8546 38.2656 44.569 37.7983 44.4219ZM37.3396 40.4583C37.7463 39.4977 38.5944 39.1861 39.607 39.6188L41.2686 40.3285C42.2811 40.7612 42.6359 41.592 42.2292 42.5526C41.8224 43.5132 40.9743 43.8247 39.9618 43.392L38.3002 42.6824C37.279 42.241 36.9242 41.4189 37.3396 40.4583ZM38.7156 41.6872L40.3772 42.3968C40.8186 42.5872 41.1388 42.5093 41.2859 42.1458C41.4417 41.791 41.2772 41.5054 40.8359 41.315L39.1743 40.6054C38.7329 40.415 38.4127 40.4929 38.2656 40.8564C38.1185 41.2112 38.2742 41.4968 38.7156 41.6872ZM40.7061 38.4851L38.8887 37.3687L40.256 34.9456L43.8735 36.988L44.1071 36.5726L45.7168 37.4812L45.2062 38.3813L44.4447 37.9486L43.3542 39.8871L44.1158 40.3198L43.6139 41.2112L42.0042 40.3025L42.1686 40.0169C41.9696 39.3765 41.3119 38.8573 40.7061 38.4851ZM40.2301 37.0053L41.4763 37.7755C42.0128 38.1043 42.4802 38.4938 42.7744 38.9611L43.3802 37.8793L40.6109 36.3129L40.2301 37.0053ZM45.8207 35.8889L44.1245 34.66L44.7389 33.8032L46.4351 35.0321L47.0496 34.184L42.8869 31.1724L42.2725 32.0205L43.9341 33.2234L43.3196 34.0802L41.658 32.8772L41.0436 33.7253L45.2062 36.737L45.8207 35.8889ZM47.4996 33.5696L43.735 30.0733L44.4706 29.2858L45.8986 30.6185L46.1063 30.4021C46.8678 29.5713 47.6813 29.6838 48.3736 30.3243C49.1612 31.0599 49.1958 31.7435 48.4429 32.557L47.4996 33.5696ZM46.6255 31.2849L47.5342 32.133L47.6813 31.9685C47.9582 31.6657 47.9496 31.406 47.638 31.1118C47.3178 30.8175 47.0582 30.8175 46.7726 31.1204L46.6255 31.2849ZM50.5632 30.2723L46.7986 26.7761L46.089 27.5376L49.8535 31.0339L50.5632 30.2723ZM50.8747 30.0214L51.7488 29.2858L51.2295 27.702L52.6921 28.4809L53.5661 27.7453L50.9266 26.4991L50.191 23.8683L49.3256 24.6039L49.8016 26.0231L48.4775 25.3222L47.6121 26.0578L50.0785 27.2174L50.8747 30.0214ZM55.0633 26.6635L52.3113 22.3278L53.5661 21.5316C54.4662 20.9605 55.3402 21.1682 55.9287 22.0942C56.5172 23.0201 56.3268 23.9029 55.4268 24.4654L55.046 24.7077L55.9287 26.101L55.0633 26.6635ZM55.0287 22.674C54.7604 22.2499 54.4402 22.1547 54.0854 22.3797L53.7219 22.6134L54.5268 23.8856L54.8902 23.6519C55.245 23.4269 55.2883 23.0894 55.0287 22.674ZM60.576 23.5221L60.126 22.6394L58.6288 23.4009L58.1096 22.3884L59.4077 21.722L58.975 20.8739L57.6769 21.5403L57.1922 20.597L58.6202 19.87L58.1702 18.9873L55.8076 20.1902L58.1355 24.7683L60.576 23.5221ZM60.4029 21.8691C60.801 22.873 61.5626 23.1932 62.4886 22.8298C63.4578 22.449 63.7954 21.6874 63.4232 20.6749L62.454 21.0557C62.5924 21.4884 62.4972 21.7307 62.1164 21.8865C61.8136 22.0076 61.5799 21.8778 61.4155 21.4711L60.6799 19.6191C60.5154 19.195 60.6106 18.9354 60.9049 18.8229C61.277 18.6758 61.5107 18.7883 61.7097 19.2123L62.679 18.8315C62.2463 17.8363 61.4934 17.4988 60.5414 17.8796C59.6067 18.2517 59.2779 19.0133 59.676 20.0258L60.4029 21.8691ZM64.3752 21.1595L64.1588 21.2201L64.4185 22.1115L64.6002 22.0595C65.4916 21.7999 65.8291 21.5057 65.8464 20.3027L65.9156 16.2439L64.8685 16.5468L64.8771 18.7277L63.6742 16.893L62.627 17.1959L64.8771 20.4326C64.8425 20.9345 64.7214 21.0557 64.3752 21.1595ZM70.1475 17.1872C70.3466 18.2604 69.8533 19.0133 68.8061 19.2123L68.3648 19.2989L68.6676 20.9172L67.6465 21.1076L66.6945 16.0622L68.1571 15.7853C69.2042 15.5862 69.9485 16.1055 70.1475 17.1872ZM69.0917 17.3863C68.9965 16.893 68.7369 16.6853 68.3215 16.7632L67.8974 16.8411L68.1744 18.3209L68.5984 18.2431C69.0225 18.1565 69.1869 17.8709 69.0917 17.3863ZM72.6659 19.4114C72.3457 19.4373 72.1553 19.2469 72.112 18.8142L71.9389 16.8238C71.8956 16.3738 72.0601 16.1487 72.3803 16.1228C72.7784 16.0882 72.9688 16.2612 73.038 16.7286L74.0765 16.6334C73.9467 15.5516 73.3236 15.0237 72.3024 15.1102C71.2985 15.1968 70.7706 15.8372 70.8658 16.919L71.0389 18.9094C71.1341 19.9825 71.7658 20.5104 72.7611 20.4239C73.7996 20.3287 74.3361 19.7056 74.2669 18.6238L73.2284 18.719C73.237 19.169 73.0726 19.3767 72.6659 19.4114ZM78.118 16.7545L78.092 18.5633C78.0747 19.6623 77.443 20.3027 76.3958 20.2854C75.3573 20.2681 74.7429 19.6018 74.7602 18.5027L74.7861 16.694C74.8034 15.5949 75.4352 14.9545 76.4823 14.9718C77.5209 14.9891 78.1353 15.6555 78.118 16.7545ZM77.0362 16.7372C77.0449 16.2526 76.8458 15.993 76.465 15.9843C76.0756 15.9757 75.8766 16.2353 75.8679 16.7199L75.8419 18.5286C75.8333 19.0133 76.0323 19.2729 76.4131 19.2816C76.8026 19.2902 77.0016 19.0306 77.0103 18.5459L77.0362 16.7372ZM82.0556 16.9536C82.0124 17.343 81.8047 17.7325 81.5104 17.9488C81.8652 18.2084 82.047 18.6411 81.9951 19.0998C81.8912 20.0085 81.1989 20.5537 80.3161 20.4499L78.7065 20.2681L79.2863 15.1708L80.8787 15.3526C81.6575 15.4391 82.1508 16.0882 82.0556 16.9536ZM80.3854 18.3469L79.97 18.3036L79.8402 19.42L80.2296 19.4633C80.6363 19.5066 80.87 19.3421 80.9133 18.9787C80.9652 18.5979 80.7748 18.3902 80.3854 18.3469ZM80.9998 16.8757C81.0344 16.5295 80.9133 16.3391 80.5758 16.3045L80.2036 16.2612L80.0825 17.3257L80.4892 17.369C80.7835 17.4036 80.9566 17.2392 80.9998 16.8757ZM86.8414 18.4507L86.8587 18.4767C86.625 19.0825 86.3394 19.9998 86.1923 20.5537L85.924 21.5576L86.902 21.8172L88.2087 16.8497L87.2222 16.5901L85.7077 18.5027C85.4913 18.771 85.3009 19.0739 85.0932 19.3594L85.0759 19.3335C85.3183 18.7277 85.5952 17.8882 85.7163 17.4296L86.0192 16.2786L85.0413 16.0189L83.7345 20.9864L84.7211 21.246L86.0625 19.5412C86.3481 19.195 86.5904 18.8142 86.8414 18.4507ZM90.1905 23.1586C91.1079 23.5481 91.8781 23.2452 92.2935 22.2499L93.0724 20.4152C93.4964 19.4114 93.1849 18.6498 92.2589 18.2517C91.3156 17.8536 90.554 18.1652 90.104 19.1517L91.0646 19.5585C91.2723 19.1344 91.5146 19.0306 91.8781 19.1864C92.1723 19.3075 92.2589 19.5671 92.0771 19.9912L91.8694 20.4845L90.9002 20.0777L90.5713 20.8653L91.5406 21.272L91.3069 21.8345C91.1338 22.2413 90.8915 22.3624 90.5973 22.2326C90.2252 22.0768 90.13 21.8259 90.2857 21.4018L89.3251 20.9951C88.9097 21.9903 89.2386 22.7519 90.1905 23.1586ZM93.1503 24.4654L93.8599 23.1673L94.3359 22.899L94.2234 25.0539L95.2532 25.6164L95.3051 22.3451L97.5293 21.0037L96.4908 20.4326L95.1926 21.3066L94.682 21.6788L95.6253 19.9566L94.7253 19.4633L92.2589 23.9635L93.1503 24.4654ZM99.6322 22.2932C100.489 22.8817 100.636 23.7731 100.013 24.6817L98.9918 26.1703C98.3687 27.0789 97.486 27.2607 96.6292 26.6722C95.7725 26.0837 95.6253 25.1923 96.2484 24.2837L97.2696 22.7951C97.8841 21.8951 98.7755 21.7047 99.6322 22.2932ZM98.1524 23.4096L97.1312 24.8981C96.8542 25.2962 96.8715 25.625 97.2004 25.8414C97.5206 26.0578 97.8322 25.9626 98.1004 25.5645L99.1216 24.076C99.3986 23.6779 99.3813 23.349 99.0524 23.1326C98.7408 22.9076 98.4293 23.0115 98.1524 23.4096ZM99.7101 26.802C99.1909 27.2174 99.0005 27.2001 98.7668 26.9924L98.161 27.702C98.8101 28.2559 99.3466 28.455 100.299 27.6501C100.749 27.2693 101.363 26.6635 102.306 25.6683L102.947 26.2135L100.247 29.3723L101.034 30.0473L104.366 26.1443L102.177 24.275C100.705 25.8501 100.126 26.4645 99.7101 26.802ZM104.02 28.1001C104.816 27.3472 105.725 27.3472 106.443 28.1088C107.161 28.8617 107.109 29.7704 106.313 30.5233L104.998 31.7608C104.202 32.5138 103.293 32.5138 102.583 31.7522C101.865 30.9993 101.917 30.0906 102.713 29.3377L104.02 28.1001ZM104.764 28.8877L103.457 30.1252C103.103 30.4541 103.051 30.7743 103.319 31.0599C103.587 31.3454 103.907 31.3108 104.262 30.9733L105.569 29.7358C105.924 29.4069 105.967 29.0867 105.707 28.8011C105.439 28.5242 105.11 28.5588 104.764 28.8877ZM104.833 34.2359L108.096 31.683L109.048 32.9032L109.827 32.2887L108.226 30.255L104.184 33.4224L104.833 34.2359ZM106.599 36.6764L108.736 36.3389C109.178 36.2697 109.61 36.1572 110.043 36.062L110.035 36.0966C109.455 36.3822 108.615 36.8668 108.131 37.1697L107.257 37.7322L107.802 38.589L112.129 35.8283L111.584 34.9715L109.178 35.3523C108.84 35.4042 108.485 35.4994 108.148 35.5687L108.157 35.5341C108.745 35.2571 109.515 34.8244 109.913 34.5648L110.917 33.9244L110.372 33.0676L106.045 35.837L106.599 36.6764ZM108.641 40.1554L110.805 40.0515C111.255 40.0256 111.696 39.965 112.137 39.9217L112.129 39.9477C111.514 40.164 110.64 40.5535 110.121 40.8044L109.186 41.2631L109.636 42.1718L114.24 39.8958L113.79 38.9784L111.359 39.0909C111.012 39.1082 110.658 39.1602 110.311 39.1948L110.32 39.1688C110.935 38.9525 111.748 38.6149 112.172 38.3986L113.237 37.8707L112.787 36.962L108.183 39.238L108.641 40.1554ZM110.459 44.2228L115.348 42.6478L115.66 43.6257L113.79 44.2315L114.414 44.3094L115.963 44.569L116.326 45.7027L113.79 45.1488L111.601 47.3989L116.759 47.5114L116.992 48.6018L112.233 50.8952L112.008 49.8394L112.804 49.4932L112.57 48.4288L111.705 48.4461L111.48 47.3903L111.151 46.3691L112.717 44.8806L112.189 44.7507L110.779 45.2094L110.459 44.2228ZM113.583 48.4114L113.721 49.0692L114.266 48.8268C114.613 48.6884 115.201 48.4634 115.599 48.3249L115.59 48.2989C115.175 48.3336 114.543 48.3941 114.171 48.3941L113.583 48.4114ZM113.92 51.3192C113.254 51.2673 113.133 51.1202 113.098 50.8087L112.163 50.9125C112.259 51.7606 112.51 52.2799 113.756 52.3404C114.353 52.3751 115.21 52.3577 116.577 52.2799L116.664 53.1193L112.536 53.5607L112.648 54.5992L117.754 54.054L117.442 51.1894C115.288 51.3106 114.448 51.3539 113.92 51.3192ZM113.505 55.5079V55.2828L112.579 55.3002V55.4906C112.596 56.4252 112.795 56.8233 113.946 57.1521L117.849 58.2858L117.832 57.1954L115.72 56.6242L117.806 55.9492L117.789 54.8588L114.076 56.1829C113.591 56.0185 113.505 55.8713 113.505 55.5079ZM117.728 60.1119L117.858 58.9436L115.417 60.0253L112.769 58.2426L112.639 59.3763L114.457 60.4667L114.041 60.6657L112.51 60.4927L112.397 61.4965L113.929 61.6696L114.292 61.9552L112.276 62.6216L112.146 63.7553L115.123 62.5956L117.269 64.1793L117.399 63.011L116.092 62.1629L115.53 61.8341L117.503 62.0504L117.616 61.0465L115.642 60.8302L116.266 60.6311L117.728 60.1119ZM115.547 64.612L113.6 64.162C112.553 63.9197 111.852 64.3611 111.627 65.3303C111.393 66.3429 111.817 67.0525 112.864 67.3208L113.098 66.3083C112.665 66.1784 112.518 65.9534 112.613 65.564C112.683 65.2524 112.925 65.1226 113.358 65.2265L115.305 65.6765C115.746 65.7803 115.911 66.0054 115.833 66.3083C115.746 66.6977 115.521 66.8188 115.054 66.741L114.82 67.7535C115.885 67.9612 116.586 67.5371 116.819 66.5419C117.044 65.564 116.603 64.863 115.547 64.612ZM110.865 68.3853L112.267 68.8612L112.613 69.2853L110.476 69.5362L110.095 70.644L113.323 70.1334L115.028 72.0979L115.409 70.9728L114.318 69.8391L113.86 69.4064L115.72 70.0382L116.049 69.0689L111.194 67.4073L110.865 68.3853ZM114.111 74.3999C113.678 75.3432 112.821 75.6461 111.826 75.1874L110.182 74.4345C109.178 73.9758 108.849 73.1364 109.282 72.1931C109.714 71.2498 110.571 70.9555 111.566 71.4055L113.211 72.1585C114.214 72.6171 114.543 73.4566 114.111 74.3999ZM112.761 73.1364L111.116 72.3835C110.675 72.1844 110.363 72.2537 110.199 72.6085C110.035 72.9633 110.19 73.2489 110.632 73.4479L112.276 74.2008C112.717 74.3999 113.029 74.3307 113.193 73.9758C113.349 73.6297 113.202 73.3441 112.761 73.1364ZM109.567 76.0528L109.593 76.0442C110.104 76.4423 110.839 76.9356 111.246 77.1865L112.267 77.7923L112.787 76.9182L108.373 74.2874L107.854 75.1614L109.117 76.9269C109.377 77.2904 109.671 77.6279 109.957 77.974L109.931 77.9827C109.411 77.5933 108.607 77.0567 108.122 76.7711L107.231 76.2346L106.711 77.1086L111.125 79.7395L111.644 78.8654L110.225 76.8836C110.017 76.598 109.784 76.3298 109.567 76.0528ZM112.38 78.6231C112.12 79.0558 112.189 79.5664 112.683 79.8866L113.012 79.3414C112.847 79.2462 112.83 79.0645 112.908 78.926C112.986 78.7962 113.159 78.727 113.323 78.8222L113.652 78.277C113.141 78 112.639 78.1731 112.38 78.6231ZM108.529 83.3829C107.871 84.1877 106.971 84.2656 106.114 83.5733L104.712 82.4309C103.855 81.7386 103.743 80.8386 104.401 80.0337C105.058 79.2289 105.958 79.151 106.815 79.8434L108.217 80.9857C109.074 81.678 109.186 82.5781 108.529 83.3829ZM107.542 81.8252L106.14 80.6828C105.768 80.3799 105.439 80.3713 105.197 80.6741C104.955 80.977 105.024 81.2886 105.405 81.6001L106.807 82.7425C107.179 83.0454 107.508 83.054 107.75 82.7512C107.992 82.4396 107.914 82.1281 107.542 81.8252ZM102.999 81.8425L106.633 85.4686L104.617 87.4936L103.925 86.8013L105.197 85.5205L104.496 84.8281L104.158 85.1743C103.388 85.9445 102.549 85.8407 101.9 85.1916C101.129 84.4214 101.138 83.7118 101.908 82.9329L102.999 81.8425ZM103.812 84.1445L102.955 83.2877L102.678 83.5646C102.402 83.8416 102.367 84.1272 102.661 84.4301C102.964 84.733 103.258 84.707 103.535 84.4214L103.812 84.1445ZM101.207 84.8541L100.619 84.1272C99.9611 84.6637 99.6582 85.157 100.281 86.2388C100.576 86.758 101.06 87.4677 101.865 88.5754L101.207 89.1033L98.5937 85.8753L97.7889 86.533L101.017 90.5226L103.258 88.7052C101.978 86.9657 101.484 86.282 101.233 85.8147C100.913 85.2349 100.974 85.0531 101.207 84.8541ZM97.5033 86.7494L99.2774 91.7255L98.3428 92.3313L94.509 88.7052L95.409 88.1167L96.0148 88.7398L96.9235 88.1427L96.6033 87.3379L97.5033 86.7494ZM97.512 89.6399L97.287 89.086L96.7244 89.4581L97.1398 89.8822C97.3994 90.1505 97.8062 90.6264 98.0831 90.9466L98.1091 90.9293C97.9274 90.5572 97.6504 89.986 97.512 89.6399ZM95.1321 90.1418C94.6301 89.1898 93.8426 88.9475 92.9599 89.4148C92.0339 89.8995 91.7829 90.687 92.2675 91.6563L93.1935 91.1716C93.0118 90.7562 93.081 90.5053 93.4358 90.3149C93.7214 90.1678 93.9724 90.263 94.1801 90.6524L95.1061 92.4178C95.3138 92.8246 95.2532 93.0842 94.9763 93.2313C94.6215 93.4131 94.3791 93.3265 94.1368 92.9284L93.2108 93.4131C93.7474 94.3564 94.5263 94.6073 95.435 94.1314C96.3263 93.664 96.5687 92.8679 96.0667 91.9072L95.1321 90.1418ZM92.0512 94.5381L90.4675 90.7043L89.4809 91.1111L91.0646 94.9449L90.1386 95.3256L90.5194 96.243L93.3666 95.066L92.9858 94.1487L92.0512 94.5381ZM87.2308 91.9246L86.9798 94.0794C86.9279 94.5208 86.9193 94.9708 86.8933 95.4122L86.8673 95.3949C86.7462 94.7545 86.5125 93.8198 86.3481 93.2746L86.0452 92.2794L85.0759 92.5736L86.5644 97.4892L87.5424 97.1949L87.828 94.7804C87.8712 94.4343 87.8712 94.0794 87.8972 93.7333L87.9231 93.7506C88.0357 94.391 88.2434 95.2478 88.3818 95.7064L88.728 96.8401L89.6973 96.5459L88.2087 91.6303L87.2308 91.9246Z" fill="white"/>
<path d="M75.9198 98.4325C77.0382 98.4325 77.9449 97.5258 77.9449 96.4074C77.9449 95.289 77.0382 94.3823 75.9198 94.3823C74.8014 94.3823 73.8947 95.289 73.8947 96.4074C73.8947 97.5258 74.8014 98.4325 75.9198 98.4325Z" fill="white"/>
<defs>
<linearGradient id="paint0_linear_103_4945" x1="77.7641" y1="127.712" x2="73.2538" y2="-31.2774" gradientUnits="userSpaceOnUse">
<stop offset="0.0686" stop-color="white" stop-opacity="0"/>
<stop offset="0.8541" stop-color="white" stop-opacity="0.2666"/>
<stop offset="0.9526" stop-color="white" stop-opacity="0.3"/>
</linearGradient>
</defs>
</svg>
