<svg width="158" height="146" viewBox="0 0 158 146" fill="none" xmlns="http://www.w3.org/2000/svg">
<g filter="url(#filter0_d_103_4937)">
<path d="M34.5585 137.995H123.445C146.933 137.995 161.61 112.569 149.866 92.2317L105.419 15.253C93.675 -5.08432 64.3201 -5.08432 52.5764 15.253L8.12866 92.2317C-3.60638 112.569 11.0711 137.995 34.5585 137.995Z" fill="#008243"/>
<path d="M148.819 92.8288L126.024 53.3486L126.042 53.3399L104.397 15.8415C103.774 14.7597 103.082 13.7385 102.346 12.7606C102.26 12.6481 102.182 12.5442 102.095 12.4317C101.888 12.1634 101.671 11.8952 101.446 11.6355C99.2656 9.00467 96.6867 6.80651 93.7096 5.08434C89.27 2.5227 84.4237 1.25054 79.6206 1.164C79.4129 1.15535 79.2052 1.164 78.9975 1.164C78.7898 1.164 78.5821 1.164 78.3744 1.164C73.5714 1.25054 68.7337 2.51405 64.2855 5.08434C61.3084 6.80651 58.7295 9.00467 56.5487 11.6355C56.3323 11.8952 56.116 12.1548 55.9083 12.4231C55.8217 12.5356 55.7438 12.6394 55.6573 12.7519C54.9217 13.7212 54.2294 14.7424 53.6063 15.8241L31.9449 53.3399L31.9622 53.3486L9.16715 92.8288C4.06119 101.673 3.88811 112.171 8.62193 121.137L28.8813 109.436C59.8892 91.5394 98.0886 91.5394 129.096 109.436L149.356 121.137C154.098 112.171 153.925 101.673 148.819 92.8288Z" fill="url(#paint0_linear_103_4937)"/>
</g>
<path d="M73.2079 39.9259L85.1593 49.5234C85.367 45.5078 88.6816 42.3144 92.749 42.3144C92.8529 42.3144 92.9654 42.3145 93.0692 42.3231C96.9722 42.4875 100.183 45.7069 100.347 49.6012C100.408 50.9426 100.105 52.2062 99.5425 53.3225C103.982 53.9197 107.409 57.7189 107.409 62.3229C107.409 65.6201 105.652 68.4933 103.03 70.0856C110.594 71.1328 116.306 77.9523 115.579 85.9487C114.938 92.9932 109.166 98.653 102.104 99.1723C101.845 99.1896 101.585 99.2069 101.334 99.2069C101.23 99.2069 101.126 99.2069 101.022 99.2069C93.45 99.2069 87.2104 93.1143 86.6478 85.5247L86.6392 85.4468L75.8215 76.5503V80.1072V102.772H101.827V107.749H55.9083V102.772H70.88V76.5503L49.1926 94.525V90.4056L73.3031 70.5443L88.2748 82.8505V70.9943L73.2945 58.6795L49.1926 78.5408V75.1137L73.3031 55.2524L88.2748 67.5586V55.7024L73.2945 43.3876L49.1926 63.2489V59.467L73.2079 39.9259ZM73.1906 32.6824L69.6597 35.5556L45.6358 55.0966L43.5588 56.7842V59.467V63.2489V75.1916V78.5408V90.4835V94.525V106.511L50.2744 100.946V102.772V107.749V113.382H55.9083H101.853H107.487V107.749V103.776C114.895 101.249 120.477 94.4817 121.204 86.4507C121.914 78.6965 118.201 71.5569 112.091 67.5759C112.723 65.923 113.052 64.1489 113.052 62.3056C113.052 57.0611 110.248 52.3533 105.99 49.7484C105.99 49.6186 105.981 49.4887 105.981 49.3503C105.696 42.5221 100.122 36.9575 93.3029 36.6719C93.1211 36.6633 92.9308 36.6633 92.749 36.6633C89.0104 36.6633 85.6266 38.2124 83.2121 40.7221L76.7302 35.5209L73.1906 32.6824ZM54.8611 97.1472L65.2374 88.545V97.1472H55.9083H54.8611ZM81.4813 97.1472V88.8911C82.165 91.9633 83.5237 94.7673 85.393 97.1472H81.4813Z" fill="#F6F6F6"/>
<path d="M73.208 39.9259L85.1594 49.5234C85.3671 45.5079 88.6816 42.3145 92.7491 42.3145C92.8529 42.3145 92.9654 42.3145 93.0693 42.3231C96.9723 42.4876 100.183 45.7069 100.347 49.6013C100.408 50.9427 100.105 52.2062 99.5426 53.3226C103.982 53.9197 107.409 57.7189 107.409 62.3229C107.409 65.6201 105.652 68.4933 103.03 70.0857C110.594 71.1328 116.306 77.9523 115.579 85.9487C114.938 92.9932 109.166 98.653 102.104 99.1723C101.845 99.1896 101.585 99.2069 101.334 99.2069C101.23 99.2069 101.126 99.2069 101.022 99.2069C93.45 99.2069 87.2104 93.1144 86.6479 85.5247L86.6392 85.4468L75.8215 76.5503V80.1072V102.772H101.827V107.749H55.9083V102.772H70.88V76.5503L49.1927 94.525V90.4056L73.3032 70.5443L88.2749 82.8506V70.9944L73.2945 58.6795L49.1927 78.5408V75.1137L73.3032 55.2524L88.2749 67.5587V55.7025L73.2945 43.3876L49.1927 63.2489V59.467L73.208 39.9259ZM73.1993 35.5815L71.079 37.3037L47.0551 56.8448L45.8089 57.8573V59.467V63.2489V70.4145L51.3389 65.8624L73.2945 47.7752L84.8911 57.3121V60.419L75.4494 52.6562L73.3032 50.8907L71.1569 52.6562L47.0464 72.5175L45.8176 73.53V75.1224V78.5494V85.7064L51.3476 81.1543L73.3032 63.0671L84.8997 72.604V75.7109L75.458 67.9481L73.3118 66.1826L71.1656 67.9481L47.0551 87.8094L45.8262 88.8219V90.4143V94.5337V101.725L51.3649 97.1386L67.5049 83.7592V99.406H55.9083H52.5245V102.79V107.766V111.15H55.9083H101.853H105.237V107.766V102.79V102.106C112.567 100.323 118.262 93.9452 118.962 86.2689C119.655 78.6879 115.587 71.7646 109.175 68.5106C110.23 66.6673 110.802 64.547 110.802 62.3315C110.802 57.4333 107.92 53.0976 103.679 51.0725C103.74 50.5359 103.757 50.008 103.731 49.4715C103.498 43.803 98.8762 39.1817 93.2164 38.9567C93.0606 38.948 92.9048 38.948 92.7577 38.948C88.9239 38.948 85.5315 40.9125 83.567 43.9155L75.3282 37.3037L73.1993 35.5815ZM79.2313 99.3973V83.716L83.4631 87.1949C84.2334 92.2576 87.0633 96.628 91.0182 99.406H79.2313V99.3973Z" fill="#008243"/>
<path d="M103.047 70.0856C105.67 68.4933 107.426 65.6114 107.426 62.3229C107.426 57.7189 103.999 53.9197 99.5598 53.3225C100.114 52.2062 100.417 50.9426 100.365 49.6013C100.2 45.6982 96.9809 42.4789 93.0865 42.3231C88.8719 42.15 85.393 45.404 85.1766 49.5234L73.2079 39.9259L49.1926 59.467V63.2489L73.3031 43.3962L88.2835 55.7111V67.5673L73.3118 55.2611L49.1926 75.1137V78.5408L73.3031 58.6881L88.2748 70.9943V82.8505L73.3031 70.5443L49.1926 90.4056V94.525L70.8713 76.559V102.781H55.8996V107.757H101.845V102.781H75.8474V80.1158V76.559L86.6651 85.4554L86.6738 85.5333C87.245 93.2269 93.6404 99.3886 101.36 99.2155C101.62 99.2069 101.87 99.1982 102.13 99.1809C109.183 98.6617 114.956 93.0019 115.605 85.9574C116.323 77.9523 110.611 71.1328 103.047 70.0856Z" fill="white"/>
<defs>
<filter id="filter0_d_103_4937" x="0" y="0" width="158" height="145.995" filterUnits="userSpaceOnUse" color-interpolation-filters="sRGB">
<feFlood flood-opacity="0" result="BackgroundImageFix"/>
<feColorMatrix in="SourceAlpha" type="matrix" values="0 0 0 0 0 0 0 0 0 0 0 0 0 0 0 0 0 0 127 0" result="hardAlpha"/>
<feOffset dy="4"/>
<feGaussianBlur stdDeviation="2"/>
<feComposite in2="hardAlpha" operator="out"/>
<feColorMatrix type="matrix" values="0 0 0 0 0 0 0 0 0 0 0 0 0 0 0 0 0 0 0.25 0"/>
<feBlend mode="normal" in2="BackgroundImageFix" result="effect1_dropShadow_103_4937"/>
<feBlend mode="normal" in="SourceGraphic" in2="effect1_dropShadow_103_4937" result="shape"/>
</filter>
<linearGradient id="paint0_linear_103_4937" x1="76.2382" y1="10.287" x2="80.7485" y2="169.276" gradientUnits="userSpaceOnUse">
<stop offset="0.0686" stop-color="white" stop-opacity="0"/>
<stop offset="0.8541" stop-color="white" stop-opacity="0.2666"/>
<stop offset="0.9526" stop-color="white" stop-opacity="0.3"/>
</linearGradient>
</defs>
</svg>
