<svg width="50" height="52" viewBox="0 0 50 52" fill="none" xmlns="http://www.w3.org/2000/svg">
<path d="M40.5088 22.6857C42.4812 21.488 43.8026 19.3203 43.8026 16.8467C43.8026 13.3836 41.2248 10.5259 37.8855 10.0768C38.3021 9.23702 38.5299 8.28663 38.4908 7.27765C38.3672 4.34186 35.9456 1.92031 33.0163 1.80314C29.8462 1.67295 27.2294 4.12053 27.0666 7.21907L18.0639 0L0 14.6985V17.5432L18.1355 2.61032L29.4035 11.8734V20.7914L18.1421 11.5349L0 26.4677V29.0455L18.1355 14.1127L29.397 23.3692V32.2873L18.1355 23.0307L0 37.9701V41.0686L16.3064 27.5548V47.2787H5.04488V51.0217H39.604V47.2787H20.0493V30.2303V27.5548L28.1863 34.2466L28.1928 34.3052C28.6224 40.0922 33.4329 44.727 39.2394 44.5968C39.4347 44.5903 39.6235 44.5838 39.8188 44.5707C45.1241 44.1802 49.4659 39.9229 49.9541 34.6242C50.4944 28.6029 46.1981 23.4734 40.5088 22.6857Z" fill="white"/>
</svg>
