<svg width="160" height="145" viewBox="0 0 160 145" fill="none" xmlns="http://www.w3.org/2000/svg">
<path d="M19.8218 54.8911C20.3336 55.151 20.8488 55.2281 21.2796 54.6702C21.3224 54.6139 21.5644 54.6472 21.6675 54.7116C21.84 54.8198 21.9743 54.9854 22.1213 55.1246C22.9909 54.385 22.9909 54.385 23.4934 55.4225C23.5096 55.457 23.5316 55.4892 23.5444 55.526C23.7701 56.1748 24.3305 55.3523 24.62 55.7722C24.9222 56.2104 25.1966 56.2265 25.5451 55.763C25.9249 55.2569 26.8975 55.4639 27.363 56.0896C27.5263 56.3093 27.7254 56.5014 28.0276 56.8396C28.1295 56.3795 28.1631 56.0816 28.2696 55.8113C28.3287 55.6606 28.4989 55.4674 28.6366 55.4535C28.8034 55.4363 29.0813 55.541 29.1473 55.6732C29.3094 55.9988 29.5479 56.0356 29.8547 56.0333C30.0411 56.0321 30.2333 56.0712 30.4151 56.1195C30.8725 56.2392 30.9709 56.521 30.7891 56.9443C30.5541 57.4918 30.3978 58.0531 30.583 58.6605C31.0971 58.6605 31.5765 58.649 32.0558 58.6639C32.4877 58.6777 32.7957 58.8112 32.7656 59.3472C32.7459 59.7118 33.4441 60.3548 33.8077 60.3675C33.8771 60.3698 33.9721 60.349 34.0149 60.303C34.2025 60.0994 34.3403 59.8337 34.5614 59.6842C34.7699 59.5427 35.0582 59.5174 35.3036 59.4438C35.3036 59.3437 35.3198 59.2805 35.3013 59.231C35.2017 58.9584 34.9273 58.6398 35.3453 58.4442C35.7483 58.2556 36.1454 58.3614 36.3886 58.7651C36.5055 58.9584 36.5449 59.1976 36.6525 59.3966C36.7486 59.5726 36.8911 59.7245 37.0126 59.8866C37.1504 59.7716 37.2917 59.6623 37.4237 59.5416C37.5221 59.4518 37.6078 59.3483 37.6819 59.2678C37.7514 59.2678 37.8104 59.2529 37.8232 59.2701C38.3152 59.9315 38.8363 59.8705 39.5136 59.4818C40.118 59.1355 40.8267 59.0631 41.5075 59.4369C41.8375 59.6186 42.1478 59.6198 42.4257 59.2747C42.5681 59.0976 42.8228 59.0102 43.0278 58.8825C42.8182 58.4994 42.3712 58.0508 42.4407 57.7069C42.5148 57.3423 43.0799 57.0743 43.4538 56.743C43.2454 56.5129 43.0555 56.3047 42.8298 56.0563C43.4411 55.7745 43.2987 55.3673 43.0775 54.9198C42.868 54.4977 42.9907 54.2837 43.5071 54.2941C43.6553 54.2975 43.9344 54.0905 43.939 53.972C43.9679 53.2531 44.4207 53.0886 45.0158 53.0507C45.1212 53.0438 45.2219 52.9851 45.3782 52.9333C45.3099 52.7872 45.2648 52.6722 45.2045 52.5652C44.841 51.9222 44.8688 51.8302 45.4755 51.4299C45.5727 51.3655 45.6503 51.2056 45.6561 51.086C45.6781 50.6765 45.6642 50.2659 45.6642 49.7632C45.5785 49.7667 45.3863 49.7563 45.2011 49.7874C44.8097 49.8529 44.5839 49.7126 44.4658 49.3307C44.3836 49.0639 44.2238 48.8211 44.1185 48.5589C44.0571 48.4071 43.9807 48.2265 44.0096 48.0792C44.093 47.6559 44.2273 47.243 44.3848 46.6736C44.9243 47.2269 45.4176 47.6628 45.8228 48.1678C46.1945 48.6314 46.2964 48.6762 46.7607 48.2621C47.3524 47.7353 48.0911 47.8216 48.7684 47.9124C49.271 47.9792 49.2768 48.46 49.1598 48.889C49.0568 49.2663 48.8553 49.6493 49.3022 50.0945C49.4967 49.9162 49.726 49.7621 49.8812 49.5539C50.4022 48.8545 50.9267 48.2092 52.0024 48.8326C52.0024 48.4611 51.9873 48.2161 52.0058 47.9723C52.0371 47.5639 52.117 47.2016 52.5651 46.9876C52.777 46.8864 52.9009 46.6 53.107 46.3435C53.6755 46.6161 54.0518 46.2388 54.5022 45.8753C54.7685 45.6602 55.2282 45.6361 55.6068 45.6119C56.1105 45.5797 56.6211 45.6188 57.1271 45.6533C57.4293 45.674 57.7373 45.7154 58.0267 45.8006C58.4065 45.9121 58.6543 45.8615 58.9114 45.5118C59.0908 45.2668 59.4312 45.0564 59.7323 45C60.214 44.9091 60.2568 44.7446 60.0634 44.3466C59.8944 43.9993 59.7936 43.6197 59.6281 43.1596C60.075 43.1596 60.3784 43.1826 60.6771 43.1492C60.8218 43.1331 61.0777 43.0123 61.0766 42.941C61.0673 42.1278 61.5513 41.7367 62.3467 41.5504C61.8535 40.6785 61.1043 40.5025 60.1445 40.4979C60.405 40.2724 60.5833 40.1597 60.7003 40.001C60.794 39.8744 60.8867 39.6674 60.8427 39.5455C60.8045 39.4396 60.5752 39.3499 60.427 39.3442C60.1132 39.3327 59.796 39.3798 59.5667 39.3971C59.7439 38.9715 60.0217 38.5746 60.0588 38.1559C60.1271 37.3876 59.3571 37.7384 58.9519 37.5164C59.0271 37.337 59.1325 37.1886 59.1441 37.0344C59.1661 36.7331 59.224 36.388 59.107 36.1338C58.8315 35.5322 58.6717 34.6603 58.8407 33.9218C59.3826 33.9701 59.9326 34.0173 60.4826 34.0668C61.0858 34.122 61.2607 33.9897 61.2595 33.3858C61.2572 32.6968 61.2167 32.0089 61.1773 31.3211C61.1414 30.7 61.1912 30.5792 61.7053 30.2905C61.7724 30.425 61.8986 30.5585 61.8963 30.6896C61.8813 31.6052 62.5586 32.055 63.1468 32.5622C63.2858 32.6819 63.4699 32.7681 63.647 32.8245C64.1692 32.9901 64.4749 32.706 64.3684 32.1734C64.204 31.3533 64.2028 31.343 64.9658 31.2923C65.5737 31.2521 65.4186 30.7655 65.473 30.4308C65.51 30.2007 65.4313 29.9523 65.3919 29.6061C65.8296 29.7027 66.1735 29.7786 66.6042 29.8729C66.6042 29.3127 66.6042 28.7687 66.6042 28.1245C67.1183 28.4466 67.5525 28.7043 67.7111 27.8036C68.0469 28.0624 68.3039 28.2603 68.598 28.4857C68.8644 27.8623 69.3217 27.784 69.9018 28.0371C70.1866 28.1613 70.3939 28.0716 70.4159 27.7254C70.4402 27.3251 70.5062 26.9214 70.4645 26.528C70.4483 26.3773 70.1924 26.1472 70.0326 26.1346C69.4873 26.0943 69.39 25.7584 69.4387 25.3432C69.5267 24.5875 69.6563 23.8364 69.7768 23.03C70.0153 23.137 70.2839 23.2578 70.5525 23.3797C71.3943 23.7616 72.6182 23.5442 73.292 22.9058C73.6915 22.5274 73.6857 22.0811 73.6105 21.5818C73.5526 21.1954 73.5989 20.7928 73.5989 20.312C73.9254 20.4316 74.1002 20.4949 74.3179 20.5742C74.4927 20.1256 74.825 20.052 75.272 20.1532C75.8046 20.2729 75.9771 20.0923 75.9019 19.547C75.8486 19.1571 75.7618 18.7729 75.6761 18.3151C76.4669 18.4117 76.4669 18.0137 76.3268 17.5099C76.2504 17.235 76.2226 16.9452 76.1404 16.6725C76.0362 16.3275 76.0906 16.0675 76.3557 15.7914C76.5167 15.6235 76.5977 15.3233 76.6035 15.0806C76.6116 14.7159 76.7008 14.5273 77.0991 14.4594C77.883 14.3249 77.8726 14.2984 77.7452 13.522C77.7151 13.3414 77.773 13.1481 77.7672 12.9607C77.7591 12.7168 77.81 12.42 77.6908 12.2417C77.2566 11.5953 77.5078 11.187 78.0682 10.8212C78.1887 10.743 78.2778 10.6003 78.3519 10.4715C78.5175 10.1816 78.6715 9.88486 78.8174 9.58464C78.8706 9.47421 78.9447 9.31663 78.9031 9.23381C78.859 9.14639 78.6865 9.07737 78.5719 9.08083C78.345 9.08658 78.118 9.17515 77.8922 9.174C77.7093 9.17285 77.3758 9.10268 77.3712 9.04287C77.3538 8.81511 77.3828 8.41598 77.5009 8.37227C78.4063 8.04559 78.5291 7.33473 78.4712 6.55601C79.0698 6.44903 79.6186 6.35011 80.2404 6.23853C80.2334 6.69059 80.1026 7.199 80.4175 7.71547C80.6815 8.14681 80.6839 8.73575 80.8251 9.34999C81.0578 9.1763 81.1447 9.13259 81.2037 9.06357C81.7363 8.46084 81.7074 8.55056 82.3697 8.88873C82.8583 9.13834 83.4951 9.10498 84.066 9.19355C84.3647 9.23956 84.6646 9.27637 84.9645 9.32008C85.0015 9.32583 85.0513 9.36954 85.071 9.35689C85.5029 9.08083 85.9718 8.9612 86.4859 8.99341C86.4963 8.99456 86.5612 8.69664 86.538 8.5471C86.4743 8.12496 86.3782 7.70742 86.2752 7.18635C86.9282 7.32093 87.4493 7.58894 87.9541 7.17254C87.9969 7.13689 88.3119 7.39915 88.4798 7.54638C88.8167 7.8443 89.1397 8.15832 89.5832 8.57241C89.6237 8.27449 89.6619 8.15602 89.6515 8.04214C89.6075 7.57053 89.5762 7.09433 89.4813 6.63077C89.435 6.40647 89.2439 6.21553 89.1455 5.99698C89.0737 5.83709 88.9672 5.62084 89.0239 5.49547C89.0749 5.38159 89.3262 5.35743 89.4883 5.29302C89.7708 5.18029 90.051 5.06297 90.3358 4.95599C90.5593 4.87203 90.8094 4.69719 91.0085 4.7409C91.6234 4.87548 92.2417 5.04917 92.8171 5.29992C93.2027 5.46786 93.4563 5.44715 93.7353 5.15384C94.0827 4.78691 94.4578 4.49819 94.8596 5.12853C95.0414 4.96635 95.1745 4.82832 95.3274 4.71444C95.8033 4.35786 96.3671 4.5603 96.4378 5.15269C96.4957 5.63465 96.6543 5.86355 97.1811 5.8854C97.3594 5.89231 97.5991 6.20288 97.6802 6.42257C97.8434 6.86082 97.9893 7.14724 98.5694 7.03221C99.0082 6.94479 99.3544 7.15414 99.5119 7.66946C99.5883 7.91676 99.9229 8.09735 100.163 8.28024C100.278 8.36881 100.449 8.38262 100.586 8.44818C101.263 8.7691 101.441 8.68399 101.62 7.94552C101.652 7.81669 101.675 7.68326 101.728 7.56248C101.916 7.13574 102.078 7.11733 102.354 7.48426C102.378 7.51532 102.401 7.54523 102.424 7.57629C102.862 8.18822 102.935 8.19973 103.603 7.72122C104.146 8.70239 104.726 7.79253 105.356 7.70281C105.18 8.40332 105.147 9.04862 105.752 9.51217C105.895 9.6226 106.144 9.69736 106.31 9.65596C106.636 9.57314 106.921 9.45121 107.212 9.75143C107.255 9.79629 107.524 9.69161 107.632 9.59384C107.852 9.396 108.034 9.15674 108.289 8.87148C108.365 9.00031 108.397 9.04747 108.421 9.09808C108.54 9.35344 108.597 9.68931 108.796 9.83194C108.907 9.91131 109.25 9.66516 109.492 9.57314C109.817 9.44891 110.02 9.56508 110.076 9.90326C110.111 10.1069 110.117 10.3151 110.134 10.5002C110.201 10.5359 110.233 10.5635 110.267 10.5704C110.568 10.6268 110.871 10.6797 111.173 10.7337C111.093 11.0524 111.014 11.3721 110.934 11.6908C110.897 11.8368 110.86 11.9829 110.861 11.9783C111.353 12.1888 111.74 12.3556 112.196 12.5512C112.239 11.6505 112.757 11.4239 113.571 11.6252C113.691 11.6551 113.847 11.4964 113.994 11.4757C114.459 11.4113 114.924 11.3526 115.392 11.3307C115.553 11.3238 115.72 11.4757 115.884 11.4791C116.533 11.4895 116.933 11.6275 116.644 12.4189C116.581 12.5914 116.834 12.8767 116.942 13.1136C117.908 12.6892 118.202 11.945 118.196 11.0489C118.194 10.6785 118.377 10.5037 118.682 10.3622C119.427 10.016 119.901 8.9865 119.699 8.18937C119.487 7.35429 119.549 7.15759 120.293 6.7619C120.443 6.68253 120.708 6.82402 120.922 6.85277C121.193 6.88958 121.464 6.91374 121.736 6.94364C121.764 6.65493 121.886 6.33516 121.801 6.08555C121.619 5.55988 121.345 5.09403 121.776 4.54075C121.891 4.39467 121.763 4.06109 121.746 3.81379C121.734 3.61479 121.721 3.4158 121.71 3.24441C122.177 3.1984 122.575 3.15929 123.028 3.11328C123.538 3.84484 123.865 4.04959 124.919 4.23938C125.339 3.57568 124.555 3.06152 124.634 2.33225C124.959 2.46913 125.207 2.57381 125.491 2.69343C125.563 2.5577 125.615 2.44268 125.681 2.3357C125.926 1.94461 126.175 1.94231 126.41 2.33225C126.557 2.57496 126.692 2.82456 126.822 3.05576C127.149 2.81421 127.482 2.63132 127.719 2.36446C127.837 2.23103 127.766 1.94116 127.803 1.72606C127.848 1.46841 127.843 1.12908 128.003 0.986448C128.131 0.873722 128.52 0.930085 128.718 1.04166C129.212 1.32117 129.621 1.4408 130.092 0.971494C130.34 0.724188 130.691 0.649422 130.74 1.2188C130.753 1.38559 130.899 1.55007 131.008 1.69731C131.322 2.1206 131.263 2.3449 130.766 2.50364C130.583 2.5623 130.378 2.56345 130.208 2.64282C130.088 2.69918 130.01 2.84412 129.914 2.94879C130.374 3.27086 130.041 4.03809 130.679 4.28539C130.771 4.32105 130.748 4.63392 130.79 4.81451C130.841 5.03076 130.844 5.34593 130.983 5.43335C131.146 5.53457 131.52 5.52997 131.655 5.4092C132.171 4.95139 132.534 5.00776 132.943 5.54723C133.039 5.67491 133.462 5.70021 133.632 5.60129C134.007 5.38159 134.279 5.43565 134.555 5.71632C134.879 6.04644 135.222 6.0729 135.576 5.77268C135.84 5.54953 136.061 5.59094 136.266 5.84745C136.493 6.13041 136.64 6.03839 136.847 5.78878C137.033 5.56333 137.313 5.4161 137.551 5.23436C137.585 5.27117 137.62 5.30682 137.653 5.34363C137.563 5.67146 137.315 6.0752 137.427 6.3087C137.548 6.56061 138.004 6.65263 138.376 6.84702C138.244 7.02071 138.091 7.22201 137.911 7.45781C138.137 7.63725 138.354 7.80864 138.604 8.00763C138.136 8.38837 138.069 8.7415 138.532 9.16364C138.644 9.26602 138.53 9.59499 138.559 9.81584C138.586 10.0309 138.662 10.2403 138.717 10.4519C138.953 10.3622 139.335 10.3312 139.398 10.1736C139.611 9.641 139.972 9.42705 140.507 9.31203C140.674 9.27637 140.872 8.92669 140.881 8.71274C140.901 8.24804 140.918 7.83855 141.421 7.61655C141.926 7.39224 142.31 7.61079 142.686 7.90756C142.773 7.97543 142.873 8.02719 143.011 8.11576C143.106 7.92021 143.148 7.71547 143.275 7.60389C143.452 7.44516 143.681 7.32553 143.907 7.24501C144.155 7.15644 144.424 7.12883 144.798 7.05177C144.882 7.28412 145.006 7.62575 145.136 7.98808C144.913 8.11461 144.702 8.23308 144.384 8.41367C144.612 8.58276 144.784 8.70009 144.947 8.83352C145.141 8.99341 145.324 9.1671 145.513 9.33503C145.348 9.47306 145.185 9.61339 145.018 9.74913C144.947 9.80779 144.868 9.85725 144.691 9.98148C145.083 10.1207 145.453 10.1575 145.676 10.3565C145.915 10.5693 146.015 10.935 146.211 11.2985C146.383 11.2456 146.593 11.1352 146.807 11.126C147.118 11.1133 147.43 11.1731 147.743 11.2019C147.709 11.4849 147.684 11.769 147.64 12.0508C147.622 12.1589 147.563 12.2613 147.52 12.3706C148.436 12.5397 148.495 12.5397 148.505 13.369C148.512 14.1098 148.485 14.7746 149.601 14.7321C149.629 14.8252 149.657 14.9172 149.685 15.0104C149.416 15.1818 149.139 15.3417 148.882 15.528C148.598 15.7339 148.609 15.9582 148.882 16.1837C149.205 16.4505 149.519 16.7289 149.865 17.0268C150.001 16.8715 150.09 16.6771 150.225 16.6369C150.4 16.5851 150.642 16.6012 150.8 16.6875C151.089 16.8462 151.317 17.1142 151.608 17.2695C151.919 17.4375 152.018 17.6031 151.777 17.8872C151.411 18.3197 151.309 18.7936 151.513 19.3308C151.653 19.7 151.435 19.7828 151.116 19.8335C150.817 19.8806 150.531 20.0014 150.305 20.0693C150.515 20.6938 150.657 21.2011 150.86 21.6842C150.929 21.8499 151.141 22.0489 151.304 22.0638C151.616 22.0926 151.827 22.1317 151.985 22.4537C152.053 22.5918 152.377 22.6608 152.586 22.6642C153.015 22.6711 153.265 22.7137 153.226 23.2693C153.207 23.5545 153.505 23.8617 153.701 24.2378C153.715 24.163 153.72 24.2067 153.7 24.2355C153.021 25.2063 153.021 25.2052 154.252 25.4088C154.377 25.4295 154.499 25.464 154.754 25.5203C154.409 25.7895 154.153 25.9885 153.855 26.2208C153.962 26.2968 154.027 26.3623 154.104 26.3957C154.722 26.6602 154.733 26.6752 154.274 27.1859C153.98 27.5126 154.057 27.7863 154.378 28.0037C154.763 28.2637 155.03 28.4742 154.548 28.9228C154.406 29.0539 154.418 29.4427 154.485 29.6774C154.624 30.1593 154.624 30.5044 154.03 30.6171C153.936 30.6355 153.782 30.7667 153.791 30.8253C153.873 31.3568 153.817 32.0274 154.125 32.3759C154.559 32.867 154.879 33.3743 155.099 33.9644C155.265 34.4084 155.517 34.5545 155.987 34.3831C156.17 34.3164 156.504 34.3152 156.605 34.4291C157.037 34.9134 157.345 34.7776 157.695 34.2082C158.05 34.9387 158.593 34.9295 159.214 34.6925C159.321 34.6511 159.493 34.7765 159.635 34.8248C159.541 34.9651 159.478 35.1641 159.346 35.2343C159.096 35.3677 158.781 35.3838 158.539 35.5264C158.115 35.7772 157.688 36.0452 157.333 36.3799C156.889 36.7998 156.944 37.0609 157.441 37.4497C157.529 37.5187 157.612 37.5946 157.761 37.7211C157.538 37.8431 157.333 37.9086 157.196 38.0421C157.038 38.1939 156.859 38.4021 156.847 38.5942C156.839 38.7219 157.088 38.9163 157.262 38.9922C157.727 39.1935 158.145 39.3603 157.749 39.9883C157.683 40.0918 157.806 40.3403 157.883 40.5013C158.256 41.2743 158.122 41.5262 157.262 41.6044C157.071 41.6217 156.868 41.563 156.686 41.6044C156.424 41.6642 156.088 41.7171 155.953 41.8989C155.849 42.0392 155.979 42.3797 156.055 42.6143C156.155 42.9215 156.304 43.2125 156.482 43.63C156.735 43.6611 157.194 43.6277 157.572 43.7876C157.961 43.9521 158.268 44.3064 158.718 44.6618C157.895 44.9942 157.174 45.2852 156.398 45.5981C156.547 45.873 156.643 46.049 156.754 46.2538C156.497 46.4275 156.239 46.6011 155.894 46.8323C156.144 47.0095 156.317 47.1406 156.497 47.2591C157.088 47.649 156.993 48.0033 156.578 48.5359C155.91 49.394 155.34 50.3142 154.5 51.0435C154.335 51.1872 154.508 51.6864 154.475 52.0177C154.449 52.2742 154.355 52.5261 154.272 52.7734C154.156 53.1174 153.951 53.4475 153.917 53.7972C153.872 54.2389 153.877 54.6461 153.541 55.0164C153.375 55.2005 153.335 55.5421 153.326 55.8159C153.312 56.2265 153.151 56.4186 152.763 56.2518C151.919 55.8883 151.077 55.5111 150.272 55.074C150.111 54.9865 150.024 54.5909 150.059 54.3608C150.111 54.01 150.295 53.6775 150.429 53.3394C150.577 52.969 150.416 52.831 150.061 52.8689C149.795 52.8977 149.531 52.9575 149.269 53.0184C148.794 53.13 148.444 53.0357 148.273 52.525C148.209 52.334 148.099 52.0764 147.945 52.0189C147.75 51.9453 147.341 51.9694 147.282 52.0833C147.048 52.5376 146.703 52.5169 146.302 52.4583C145.948 52.4065 145.59 52.3743 145.16 52.326C145.212 52.6216 145.246 52.8172 145.283 53.0276C145.046 53.1668 144.816 53.3014 144.586 53.4371C144.283 53.6177 144.051 53.7891 144.326 54.2044C144.412 54.3343 144.259 54.6196 144.202 54.9003C144.405 54.9532 144.655 55.0337 144.909 55.082C145.246 55.1464 145.4 55.2856 145.223 55.6341C145.07 55.9343 145.055 56.1851 145.4 56.4083C145.517 56.483 145.589 56.7901 145.534 56.9351C145.336 57.4481 145.443 57.7874 145.97 57.9795C146.005 57.9922 146.051 58.0129 146.065 58.0416C146.19 58.2993 146.308 58.5604 146.429 58.8204C146.162 58.8054 145.859 58.8664 145.639 58.7594C145.107 58.5006 144.619 58.1544 143.94 58.2464C143.933 58.3718 143.904 58.4833 143.926 58.5846C144.072 59.2448 144.029 59.2931 143.382 59.1183C143.16 59.0585 142.945 58.9768 142.725 58.9101C142.696 58.9009 142.655 58.9285 142.572 58.9549C142.859 59.3759 143.143 59.7797 143.414 60.1915C143.671 60.5826 143.617 60.8287 143.093 60.8793C142.857 60.9023 142.626 60.9874 142.414 61.0404C142.414 61.1577 142.402 61.2209 142.417 61.2278C143.263 61.627 143.147 62.4092 143.221 63.1373C143.264 63.556 143.291 64.1449 143.557 64.3347C144.009 64.6568 144.501 64.2404 144.887 63.9321C145.145 63.7285 145.34 63.4467 145.553 63.1913C145.668 63.0545 145.761 62.9003 145.862 62.7531C145.923 62.7577 145.983 62.7634 146.044 62.768C146.18 63.3984 146.314 64.0287 146.449 64.6591C146.512 64.6579 146.576 64.6579 146.638 64.6568C146.716 64.4555 146.772 64.2427 146.878 64.0552C146.943 63.9402 147.079 63.8642 147.182 63.7711C147.261 63.8872 147.432 64.0425 147.402 64.115C147.115 64.8052 147.502 65.4689 147.458 66.113C147.407 66.8664 147.133 67.5922 147.452 68.3549C147.489 68.4434 147.288 68.731 147.149 68.7758C146.481 68.9898 146.04 69.2992 146.306 70.0964C146.342 70.2056 146.263 70.3529 146.229 70.5219C146.353 70.5576 146.454 70.6002 146.559 70.614C147.048 70.6749 147.231 70.9636 147.134 71.4157C147.011 71.9874 147.26 72.3992 147.619 72.8098C147.791 73.0077 147.861 73.2952 147.978 73.5414C147.759 73.6345 147.541 73.7289 147.322 73.8197C147.288 73.8335 147.24 73.8197 147.209 73.8382C146.301 74.3776 145.389 74.2419 144.439 73.9302C144.224 73.8588 143.785 74.0325 143.65 74.2292C143.335 74.687 142.96 74.7342 142.499 74.6077C141.955 74.457 141.562 74.587 141.192 75.0505C140.951 75.3507 140.544 75.6142 140.168 75.6935C139.536 75.827 139.246 75.4715 139.319 74.8251C139.383 74.2614 139.256 74.0832 138.709 74.1775C138.31 74.2465 137.932 74.4604 137.554 74.6284C137.343 74.7215 137.149 74.855 136.859 74.9378C137.149 74.0348 136.716 73.4137 136.192 72.8466C136.047 72.6902 135.728 72.5165 135.585 72.5775C135.385 72.6637 135.192 72.9409 135.141 73.1687C134.961 73.9635 134.983 73.9405 134.183 73.9624C133.727 73.975 133.259 74.2028 132.821 74.143C131.998 74.0314 131.454 74.3707 130.865 74.8768C130.306 75.3553 129.714 75.0252 129.488 74.1602C129.292 74.243 129.1 74.3109 128.921 74.4041C128.46 74.6445 128.037 74.6709 127.572 74.3581C127.408 74.2476 127.007 74.2626 126.878 74.388C126.746 74.5157 126.765 74.8573 126.807 75.0885C126.858 75.3611 126.988 75.6245 127.119 75.8741C127.179 75.9891 127.311 76.0869 127.434 76.1433C127.62 76.2284 127.825 76.2686 127.906 76.2939C127.959 76.6896 127.976 76.9853 128.043 77.2682C128.124 77.6098 127.953 77.7709 127.663 77.7467C127.327 77.7191 126.998 77.6006 126.667 77.5167C126.407 77.4511 126.151 77.3361 125.889 77.3246C125.755 77.3188 125.511 77.4741 125.491 77.588C125.355 78.3518 125.266 79.1236 125.159 79.9219C124.657 79.9311 124.347 79.6516 124.143 79.2846C123.888 78.8257 123.598 78.8337 123.286 79.1661C122.889 79.5906 122.498 79.9138 121.905 79.5032C121.877 79.4836 121.825 79.4802 121.793 79.4928C121.047 79.7677 120.59 79.494 120.327 78.7762C120.291 78.6796 120.045 78.5726 119.947 78.6083C119.815 78.6554 119.698 78.8222 119.638 78.9649C119.581 79.0983 119.607 79.2662 119.597 79.4192C119.572 79.8437 119.391 79.9736 118.951 79.8575C118.551 79.7516 118.121 79.7551 117.705 79.7091C117.682 79.7758 117.658 79.8414 117.635 79.9081C117.792 80.1726 117.95 80.4372 118.128 80.7363C117.966 80.8007 117.844 80.8478 117.724 80.895C117.118 81.1354 117.056 81.316 117.381 81.8704C117.615 82.2695 117.199 83.5947 116.765 83.712C116.622 83.7511 116.362 83.6269 116.255 83.4969C115.65 82.7642 115.659 82.7561 114.764 83.0598C114.077 83.2933 113.74 83.2059 113.347 82.6905C112.864 82.0568 112.668 81.9923 111.938 82.342C111.555 82.5261 111.22 82.6537 110.807 82.3961C110.674 82.3121 110.324 82.342 110.238 82.449C109.855 82.9321 109.45 82.7849 109.017 82.5801C108.952 82.5502 108.878 82.5387 108.69 82.4846C108.957 83.1955 110 83.2841 109.786 84.1226C110.143 84.3918 110.82 83.9443 110.866 84.5597C110.89 84.8795 110.527 85.2292 110.4 85.6502C110.58 85.5351 110.754 85.4132 110.939 85.3074C111.221 85.1464 111.495 84.9474 111.799 84.8542C112.328 84.692 112.556 84.9727 112.524 85.5121C112.482 86.2149 112.158 86.5129 111.465 86.5681C111.211 86.5876 110.755 86.8683 110.771 86.9684C110.839 87.3871 111.188 87.5308 111.625 87.5561C111.949 87.5746 112.288 87.6838 112.576 87.8334C113.079 88.0933 114.011 87.9932 114.46 87.5481C114.593 87.4158 114.666 87.226 114.797 87.0132C115.132 87.4423 115.301 87.869 115.566 87.9392C115.819 88.0059 116.171 87.6999 116.469 87.563C116.469 87.9484 116.373 88.3498 116.497 88.665C116.615 88.9652 116.962 89.1769 117.256 89.4759C117.194 89.5254 117.039 89.6243 116.915 89.752C116.771 89.9004 116.529 90.0879 116.546 90.2339C116.633 90.9828 116.087 90.816 115.774 90.7125C115.107 90.4916 114.613 90.4962 114.34 91.2531C114.313 91.3267 114.05 91.3647 113.912 91.3393C113.542 91.2726 113.18 91.1622 112.815 91.0702C112.785 91.1127 112.753 91.1553 112.723 91.1967C112.877 91.3992 113.033 91.6005 113.183 91.8064C113.409 92.1158 113.41 92.3654 112.991 92.5057C112.882 92.5425 112.753 92.5759 112.681 92.6541C112.507 92.8439 112.262 93.0463 112.235 93.2683C112.217 93.4098 112.526 93.6031 112.706 93.7526C112.842 93.8665 113.004 93.9504 113.155 94.0471C113.148 94.1184 113.141 94.1885 113.134 94.2599C112.48 94.3427 111.827 94.4266 111.028 94.5279C111.277 94.743 111.418 94.8856 111.58 94.9972C111.722 95.0938 111.902 95.1364 112.041 95.2353C112.654 95.6724 112.954 96.3913 113.61 96.8422C113.938 97.0676 113.883 97.9073 113.911 98.4744C113.931 98.8712 113.532 98.8885 113.326 98.7298C112.96 98.4457 112.598 98.1052 112.371 97.7106C112.115 97.2666 111.857 97.2218 111.512 97.5059C111.147 97.8073 110.894 97.7463 110.598 97.4081C110.477 97.2689 110.227 97.2413 110.035 97.1643C109.942 97.3989 109.776 97.6324 109.778 97.8671C109.778 98.1132 109.936 98.3594 110.045 98.6596C109.524 98.6596 109.06 98.6596 108.487 98.6596C108.62 98.9932 108.735 99.26 108.834 99.5338C108.966 99.8973 108.938 100.163 108.44 100.047C108.015 99.9467 107.705 99.9882 107.523 100.471C107.466 100.622 107.153 100.696 106.943 100.767C106.471 100.928 106.408 101.083 106.722 101.448C107.025 101.802 107.471 102.07 107.378 102.652C107.371 102.699 107.648 102.811 107.803 102.859C108.201 102.983 108.277 103.257 107.975 103.477C107.689 103.685 107.297 103.835 106.947 103.847C106.519 103.863 106.223 104.003 106.068 104.361C105.8 104.977 105.35 105.076 104.747 104.962C103.899 104.802 103.133 104.95 102.584 105.69C102.519 105.777 102.488 105.889 102.387 106.103C102.672 106.103 102.894 106.147 103.091 106.094C103.573 105.965 104.041 105.79 104.516 105.637C104.877 105.521 105.116 105.641 105.218 106.011C105.243 106.103 105.273 106.194 105.305 106.285C105.569 107.054 105.691 107.111 106.502 106.755C106.466 107.285 106.765 107.787 106.208 108.226C106.084 108.324 106.153 108.697 106.175 108.938C106.2 109.211 106.27 109.48 106.321 109.75C106.027 109.73 105.725 109.742 105.439 109.68C104.968 109.578 104.507 109.428 103.979 109.369C104.374 109.837 104.343 110.214 104.048 110.686C103.821 111.049 104.109 111.408 104.565 111.472C105.486 111.602 105.652 111.781 105.704 112.728C105.723 113.053 105.718 113.379 105.733 113.705C105.757 114.242 106.011 114.447 106.47 114.185C107.054 113.849 107.524 113.861 108.042 114.29C108.145 114.377 108.451 114.286 108.629 114.205C108.929 114.07 109.202 113.878 109.59 113.647C109.607 113.937 109.622 114.078 109.622 114.219C109.622 114.776 109.859 115.03 110.402 115.052C111.249 115.086 111.197 115.104 110.982 115.902C110.794 116.598 110.373 116.744 109.768 116.762C109.52 116.77 109.272 116.821 109.027 116.871C108.329 117.013 108.335 117.081 108.41 117.791C108.44 118.075 108.276 118.473 108.062 118.671C107.523 119.17 107.161 119.658 107.527 120.417C107.578 120.523 107.486 120.695 107.461 120.837C107.322 120.809 107.17 120.808 107.045 120.751C106.552 120.527 106.067 120.286 105.507 120.015C105.568 119.77 105.657 119.413 105.747 119.044C105.468 118.966 105.236 118.935 105.036 118.84C104.427 118.551 104.234 118.658 104.206 119.333C104.2 119.462 104.205 119.592 104.205 119.759C103.865 119.668 103.576 119.564 103.277 119.518C102.878 119.457 102.706 119.622 102.808 120.049C102.94 120.6 103.041 121.159 103.149 121.717C103.219 122.083 103.02 122.273 102.682 122.294C102.16 122.325 101.652 122.304 101.351 122.883C101.294 122.992 100.904 122.978 100.679 122.944C100.378 122.898 100.089 122.777 99.8234 122.697C99.7701 123.384 99.7203 123.966 99.6798 124.548C99.6543 124.923 99.5154 125.196 99.1252 125.326C98.706 125.466 98.6377 125.737 98.9561 126.053C99.3116 126.405 99.2734 126.704 98.8959 127.012C98.4455 127.379 98.5045 127.819 98.6829 128.316C98.7732 128.564 98.7002 128.871 98.7002 129.151C98.5138 128.982 98.3193 128.822 98.1444 128.642C97.8689 128.359 97.6188 128.052 97.3328 127.781C97.2575 127.709 97.0838 127.702 96.9658 127.724C96.7979 127.755 96.6207 127.811 96.4829 127.906C95.8195 128.365 95.1548 128.313 94.4103 127.916C94.9071 127.126 94.2668 126.484 94.1406 125.752C94.0896 125.738 94.0375 125.724 93.9866 125.71C93.8858 125.933 93.7596 126.149 93.689 126.381C93.4979 127.007 93.2583 127.077 92.765 126.63C92.5439 126.429 92.3204 126.23 92.1016 126.032C91.4323 126.719 91.3235 127.408 91.9001 128.181C91.8503 128.211 91.8005 128.241 91.7519 128.271C91.3466 128.114 90.9414 127.958 90.3717 127.737C90.4122 128.293 90.4203 128.734 90.4829 129.167C90.5616 129.715 90.4504 129.868 89.8912 129.862C89.7569 129.86 89.6214 129.845 89.4871 129.83C88.6546 129.738 88.6268 129.766 88.643 130.607C88.6453 130.715 88.6222 130.855 88.5539 130.928C88.0386 131.479 88.2968 131.817 88.8514 132.094C88.9093 132.123 88.9394 132.209 88.9105 132.169C88.6476 132.697 88.445 133.163 88.1891 133.598C88.0594 133.818 87.8707 134.046 87.6507 134.162C87.1783 134.412 86.7441 134.12 86.7372 133.599C86.7314 133.114 86.479 132.852 86.0714 133.029C85.2667 133.377 84.5175 133.415 83.7719 132.917C83.7302 132.889 83.6607 132.894 83.6051 132.896C83.5704 132.897 83.5357 132.922 83.3365 133.006C83.714 133.296 84.0069 133.568 84.3439 133.766C84.6727 133.96 84.8325 134.177 84.8684 134.575C84.8927 134.838 85.137 135.08 85.3489 135.446C84.917 135.478 84.5187 135.521 84.1192 135.533C83.6897 135.546 83.2613 135.486 83.2346 136.136C83.2288 136.275 82.8873 136.471 82.6742 136.515C82.3408 136.584 81.9841 136.534 81.6391 136.558C81.2292 136.587 81.0023 136.787 81.2141 137.202C81.6113 137.984 81.4561 138.813 81.4805 139.628C81.4932 140.08 81.5117 140.535 81.5742 140.981C81.6402 141.452 81.4666 141.671 81.008 141.519C80.5947 141.383 80.208 141.155 79.8259 140.939C79.4565 140.729 79.1381 140.741 78.9679 141.149C78.7919 141.57 78.5082 141.53 78.1678 141.44C77.8633 141.36 77.553 141.3 77.1327 141.204C77.2693 141.56 77.355 141.785 77.4777 142.104C76.7598 141.954 76.1056 141.817 75.4503 141.68C75.4144 141.746 75.3797 141.812 75.3438 141.878C75.6193 142.11 75.8984 142.335 76.1682 142.573C76.4403 142.813 76.9138 142.948 76.7494 143.45C76.5757 143.975 76.218 144.332 75.6332 144.39C75.2894 144.425 74.9235 144.519 74.6027 144.442C74.2878 144.366 73.9393 144.168 73.7424 143.919C73.4032 143.489 73.1276 143.397 72.7235 143.804C72.1527 144.38 71.385 144.311 70.6648 144.38C70.5711 144.389 70.409 144.313 70.3777 144.237C70.1589 143.706 69.7524 143.612 69.221 143.609C68.6664 143.607 68.5135 143.282 68.7231 142.736C69.0681 141.839 68.906 141.573 67.9485 141.464C67.9288 141.462 67.9103 141.46 67.8918 141.457C66.4815 141.302 66.302 141.136 66.2592 139.716C66.2441 139.234 66.082 139.033 65.6061 138.973C65.3607 138.942 65.1291 138.768 64.9021 138.64C64.7875 138.576 64.7088 138.423 64.5918 138.391C64.2943 138.309 63.9747 138.204 63.6852 138.249C63.5636 138.268 63.4965 138.638 63.3691 138.93C63.3066 138.93 63.1387 138.951 62.9778 138.927C62.1129 138.8 62.0387 138.836 61.7296 139.618C61.7088 139.671 61.7076 139.732 61.6833 139.784C61.5223 140.137 61.373 140.528 60.8681 140.428C60.5277 140.36 60.3378 139.819 60.4779 139.347C60.5578 139.079 60.6771 138.822 60.6748 138.46C60.3182 138.708 59.9615 138.957 59.6049 139.205C59.5632 139.186 59.5215 139.167 59.4787 139.148C59.6188 138.64 59.7589 138.134 59.899 137.627C59.8596 137.592 59.8203 137.559 59.7809 137.525C59.4636 137.714 59.1256 137.878 58.8372 138.103C58.5431 138.332 58.3428 138.303 58.1113 138.028C57.9526 137.841 57.7604 137.672 57.5555 137.534C57.0703 137.206 56.5864 137.23 56.2089 137.66C55.9136 137.996 55.6566 138.021 55.3208 137.766C54.8171 137.383 54.3158 137.423 53.8526 137.827C53.4323 138.194 53.0132 138.119 52.5871 137.873C52.3555 137.74 52.1297 137.589 51.9178 137.426C51.5589 137.151 51.2104 137.101 50.8051 137.349C50.4091 137.591 50.122 137.551 50.078 136.991C50.0676 136.853 49.9194 136.67 49.7862 136.607C49.183 136.319 49.0429 135.841 49.0984 135.229C49.1795 134.333 48.8657 134.085 47.944 134.2C47.6905 134.233 47.2424 134.182 47.1845 134.045C47.0212 133.657 46.9981 133.205 46.9703 132.775C46.9668 132.729 47.2899 132.659 47.4624 132.604C47.6685 132.537 47.8757 132.474 48.083 132.408C47.9429 132.225 47.8387 131.984 47.6546 131.873C47.2517 131.632 47.0502 131.31 47.027 130.854C46.9934 130.201 46.6391 129.809 46.0197 129.612C45.7869 129.538 45.5415 129.439 45.3574 129.286C44.8514 128.864 44.951 128.416 45.5079 128.084C45.7464 127.943 46.0266 127.601 46.0116 127.368C45.9815 126.893 46.1899 126.25 45.5704 125.989C44.9788 125.74 44.6279 125.491 44.8815 124.753C44.9533 124.545 44.5886 124.19 44.3859 123.835C45.0679 123.542 45.2798 122.945 45.2659 122.232C45.2578 121.789 45.0853 121.465 44.6522 121.285C43.8614 120.956 43.7178 120.737 43.7838 120.102C43.851 119.461 44.2528 119.23 44.841 119.199C44.8942 119.196 44.9452 119.162 45.0668 119.116C45.0042 118.904 44.9741 118.679 44.8757 118.488C44.6302 118.01 44.3616 117.546 44.0884 117.083C43.7167 116.453 43.3624 116.433 42.905 116.999C42.8031 117.126 42.685 117.241 42.4581 117.488C42.3736 116.905 42.2995 116.482 42.2531 116.054C42.2057 115.604 42.1443 115.218 41.5225 115.265C41.394 115.274 41.181 115.023 41.1219 114.854C41.0513 114.648 41.0906 114.399 41.1045 114.17C41.1289 113.746 40.9297 113.541 40.5152 113.475C40.0903 113.408 39.6804 113.209 39.2415 113.465C39.1501 113.518 38.8791 113.454 38.849 113.381C38.7946 113.245 38.7981 113.022 38.8803 112.907C39.1779 112.487 39.3052 112.181 38.6267 112.02C38.4936 111.988 38.3824 111.674 38.3488 111.475C38.3199 111.299 38.4137 111.103 38.4519 110.916C38.6244 110.071 38.6244 110.071 37.7699 109.965C37.7525 109.886 37.705 109.792 37.7189 109.709C37.815 109.135 37.4723 109.03 37.008 109.015C36.2843 108.991 36.238 108.92 36.3145 108.203C36.3503 107.864 36.4997 107.511 36.018 107.275C35.8768 107.206 35.9358 106.757 35.8768 106.488C35.82 106.227 35.7286 105.973 35.6522 105.716C35.3847 105.871 35.0593 105.974 34.8636 106.193C34.6691 106.409 34.617 106.746 34.4804 107.02C34.316 107.348 34.0798 107.417 33.9061 107.05C33.7556 106.73 33.6537 106.377 33.5958 106.027C33.5205 105.569 33.4927 105.101 33.4788 104.635C33.4661 104.191 33.4429 103.735 33.5263 103.303C33.5946 102.945 33.5935 102.679 33.2148 102.575C32.8246 102.468 32.7366 102.191 32.6776 101.854C32.6429 101.651 32.5919 101.436 32.4854 101.265C32.16 100.738 31.7235 100.754 31.4711 101.322C31.2638 101.788 30.9755 101.965 30.451 101.964C29.7725 101.963 29.094 102.079 28.4167 102.159C28.3124 102.171 28.1862 102.229 28.1214 102.307C27.5251 103.033 26.681 103.093 25.8566 103.064C25.3055 103.046 25.1202 103.218 25.1144 103.728C25.1098 104.152 25.0241 104.548 24.4614 104.557C23.8222 104.567 23.4633 104.16 23.6683 103.557C23.8674 102.971 23.7493 102.74 23.1021 102.674C22.5058 102.614 21.9303 102.346 21.334 102.284C20.85 102.235 20.395 102.424 20.1159 102.901C20.0244 103.057 19.8496 103.176 19.6933 103.284C19.4779 103.432 19.3297 103.412 19.2267 103.119C18.9789 102.413 18.5354 102.159 17.7782 102.221C17.5096 102.243 17.2294 102.291 16.9735 102.238C16.8137 102.205 16.684 102.008 16.552 101.873C16.354 101.671 16.1653 101.459 15.9731 101.25C15.8283 101.092 15.6002 100.953 15.5586 100.773C15.3976 100.076 15.2969 99.3647 15.1545 98.548C15.6732 98.479 16.2753 98.3973 16.8774 98.3168C16.9028 98.2628 16.9272 98.2087 16.9526 98.1558C16.7373 97.9752 16.5381 97.7693 16.3031 97.6209C16.0958 97.4909 15.8272 97.4553 15.6257 97.3196C15.4694 97.2137 15.2795 97.0193 15.2795 96.8629C15.2795 96.7226 15.5157 96.5811 15.6477 96.4408C15.8422 96.2349 16.0321 96.0244 16.2324 95.8254C16.3864 95.6724 16.5404 95.5102 16.7199 95.3917C16.9619 95.2318 17.2294 95.1099 17.5941 94.9132C17.3498 94.7752 17.2479 94.6774 17.1356 94.6613C16.5728 94.5831 16.0067 94.5095 15.4405 94.4715C15.2911 94.4612 15.1209 94.5635 14.9796 94.6475C14.3185 95.0374 13.7338 94.7936 13.5508 94.0344C13.5057 93.8492 13.4709 93.6583 13.4594 93.4685C13.4397 93.1154 13.2637 92.9463 12.9105 92.9486C12.8341 92.9486 12.7195 92.9658 12.6859 92.9244C12.2135 92.3458 11.4667 92.3654 10.8704 92.0675C10.5658 91.9156 10.442 91.8305 10.2544 92.1744C9.90934 92.8048 9.65461 92.8094 9.13472 92.2803C8.77694 91.9145 8.44001 91.4992 8.01275 91.2393C7.50213 90.9299 7.23004 91.1231 7.15709 91.7097C7.14551 91.8041 7.14435 91.9007 7.13046 91.995C6.94867 93.1901 6.77036 93.2971 5.64608 92.8876C5.03241 92.6633 4.52989 92.8611 4.11422 93.3868C3.9637 93.5778 3.61518 93.7929 3.43455 93.7399C3.17519 93.6629 2.81973 93.3615 2.80468 93.1361C2.77573 92.7047 2.89962 92.2354 3.06519 91.8248C3.35813 91.0966 3.19835 90.8229 2.40637 90.8493C1.98259 90.8631 1.55534 90.8942 1.13503 90.8574C0.952091 90.8413 0.713571 90.7136 0.63252 90.5652C0.5781 90.4663 0.755254 90.2397 0.835146 90.0741C0.850199 90.043 0.889566 90.0177 0.923144 90.0027C1.67691 89.6531 2.09143 89.1055 1.98954 88.2394C1.98143 88.1669 2.07522 88.083 2.14701 87.9622C2.33227 88.0657 2.49784 88.1531 2.65763 88.2497C3.03741 88.4809 3.36624 88.55 3.7356 88.1704C3.90928 87.9921 4.24853 87.9633 4.51947 87.892C4.82283 87.8138 5.1343 87.7643 5.44229 87.7022C5.47008 87.624 5.49787 87.5458 5.5245 87.4676C5.14356 87.1846 4.75105 86.9143 4.38516 86.6129C4.22885 86.4841 4.12811 86.2909 4.00191 86.1275C4.17096 86.0044 4.32958 85.8618 4.51368 85.764C4.626 85.7042 4.77652 85.7192 4.90852 85.6916C5.62871 85.5443 5.8406 85.1843 5.74218 84.4608C5.62408 83.5889 5.54766 82.7101 5.4944 81.8325C5.46082 81.2838 5.7225 81.0664 6.29217 81.1572C6.7831 81.2355 7.2613 81.3977 7.75107 81.4897C7.93633 81.5242 8.1378 81.4678 8.33232 81.4529C8.30801 81.2527 8.30801 81.0457 8.25127 80.8559C8.21654 80.7386 8.09959 80.6419 8.01275 80.5419C7.71287 80.1956 7.59592 79.8943 8.14591 79.6608C8.55348 79.4871 8.484 79.203 8.24548 78.9269C8.17254 78.8418 8.06486 78.7854 7.97454 78.7152C7.23467 78.139 7.23351 78.0251 8.03128 77.5535C8.42148 77.3223 8.42727 77.1221 8.11349 76.8058C7.85065 76.5401 7.63529 76.218 7.44424 75.8948C7.38866 75.8016 7.45119 75.5911 7.52992 75.4888C7.57045 75.437 7.77539 75.4853 7.89349 75.5244C8.16328 75.6142 8.42495 75.7269 8.8221 75.8822C8.71905 75.4531 8.63221 75.1391 8.56969 74.8205C8.49442 74.4409 8.59632 74.1867 9.04904 74.327C9.53766 74.48 9.86302 74.3972 10.149 73.9175C10.2671 73.7174 10.677 73.676 10.963 73.5908C11.2374 73.508 11.5489 73.4264 11.3879 73.0686C11.0301 72.2784 11.022 71.5641 11.9009 70.8601C11.3428 70.7785 10.9757 70.6772 10.611 70.6818C9.60945 70.6922 9.15441 70.0929 9.50408 69.1934C9.5585 69.0542 9.52493 68.8817 9.53187 68.7252C9.31882 68.7482 9.02241 68.6907 8.90778 68.8092C8.52916 69.1992 8.30106 69.0542 8.03012 68.7022C7.76265 68.3537 7.42919 68.0546 7.16983 67.7015C7.04825 67.5359 7.03088 67.2943 6.96604 67.0884C7.16519 67.0551 7.36551 66.9906 7.56466 66.9941C7.83213 66.9976 8.09843 67.0758 8.3659 67.0804C8.86147 67.0896 9.01546 66.8906 8.91589 66.4006C8.88926 66.2706 8.85336 66.1303 8.78042 66.0244C8.43537 65.5241 8.42611 64.9984 8.62642 64.4497C9.17757 64.7361 9.35588 64.6694 9.58861 64.0908C9.96376 63.1603 9.96376 63.166 10.9734 63.2466C11.1228 63.2581 11.2791 63.1959 11.5743 63.1407C10.9792 62.6772 11.1181 62.2447 11.3416 61.7903C11.396 61.6776 11.337 61.5108 11.33 61.3682C11.1691 61.3808 10.9919 61.3567 10.8507 61.4165C10.7175 61.4729 10.6098 61.6063 10.5137 61.7236C10.3111 61.9744 10.1015 62.1515 9.79818 61.872C9.50987 61.6086 9.3443 61.2727 9.69397 60.9874C10.3204 60.4767 10.2926 59.8682 10.0425 59.2241C9.8746 58.7905 10.0703 58.5892 10.4385 58.5144C11.0788 58.3844 11.5107 58.1613 11.381 57.3733C11.3555 57.2157 11.6867 56.9017 11.9124 56.8212C12.4092 56.6441 12.8434 56.4635 12.9464 55.878C12.9603 55.7986 13.0529 55.6755 13.1131 55.6721C13.7801 55.6364 13.9642 55.12 14.1309 54.63C14.623 54.6254 14.5373 55.8745 15.3189 55.0107C15.3779 55.5743 15.4289 56.0655 15.4926 56.6636C16.0518 56.2277 16.4976 55.9021 16.9167 55.5467C17.2942 55.2269 17.6184 55.2085 17.9611 55.5927C18.0989 55.7469 18.2761 55.8814 18.4613 55.9712C18.5852 56.0321 18.8261 56.0678 18.8932 55.9988C19.2035 55.6709 19.4768 55.3075 19.8218 54.8911Z" fill="white"/>
</svg>
