<svg width="50" height="50" viewBox="0 0 50 50" fill="none" xmlns="http://www.w3.org/2000/svg">
<path d="M25 47.3959C12.6458 47.3959 2.60417 37.3543 2.60417 25.0001C2.60417 12.6459 12.6458 2.60425 25 2.60425C37.3542 2.60425 47.3958 12.6459 47.3958 25.0001C47.3958 37.3543 37.3542 47.3959 25 47.3959ZM25 5.72925C14.375 5.72925 5.72917 14.3751 5.72917 25.0001C5.72917 35.6251 14.375 44.2709 25 44.2709C35.625 44.2709 44.2708 35.6251 44.2708 25.0001C44.2708 14.3751 35.625 5.72925 25 5.72925Z" fill="white"/>
<path d="M33.3333 26.5625H16.6667C15.8125 26.5625 15.1042 25.8542 15.1042 25C15.1042 24.1458 15.8125 23.4375 16.6667 23.4375H33.3333C34.1875 23.4375 34.8958 24.1458 34.8958 25C34.8958 25.8542 34.1875 26.5625 33.3333 26.5625Z" fill="white"/>
<path d="M25 34.8959C24.1458 34.8959 23.4375 34.1876 23.4375 33.3334V16.6667C23.4375 15.8126 24.1458 15.1042 25 15.1042C25.8542 15.1042 26.5625 15.8126 26.5625 16.6667V33.3334C26.5625 34.1876 25.8542 34.8959 25 34.8959Z" fill="white"/>
</svg>
