<svg width="40" height="48" viewBox="0 0 40 48" fill="none" xmlns="http://www.w3.org/2000/svg">
<path d="M19.8296 25.3387C19.8783 25.3387 19.9269 25.3387 19.9854 25.3387C20.0049 25.3387 20.0243 25.3387 20.0438 25.3387C20.073 25.3387 20.112 25.3387 20.1412 25.3387C22.9945 25.29 25.3024 24.287 27.0066 22.3686C30.7558 18.1422 30.1325 10.897 30.0644 10.2056C29.8209 5.01515 27.3669 2.53192 25.3414 1.37308C23.832 0.506384 22.0693 0.0389526 20.1022 0H20.0341C20.0243 0 20.0049 0 19.9951 0H19.9367C18.8558 0 16.7328 0.175287 14.6976 1.33413C12.6525 2.49297 10.1596 4.9762 9.91612 10.2056C9.84795 10.897 9.22471 18.1422 12.9739 22.3686C14.6683 24.287 16.9763 25.29 19.8296 25.3387ZM12.5162 10.449C12.5162 10.4198 12.5259 10.3906 12.5259 10.3711C12.8473 3.38888 17.804 2.63904 19.9269 2.63904H19.9659C19.9854 2.63904 20.0146 2.63904 20.0438 2.63904C22.6731 2.69747 27.1429 3.76867 27.4448 10.3711C27.4448 10.4004 27.4448 10.4296 27.4545 10.449C27.4643 10.5172 28.146 17.1392 25.0492 20.6254C23.8222 22.0082 22.1862 22.6899 20.0341 22.7094C20.0146 22.7094 20.0049 22.7094 19.9854 22.7094C19.9659 22.7094 19.9562 22.7094 19.9367 22.7094C17.7943 22.6899 16.1485 22.0082 14.9313 20.6254C11.8443 17.1586 12.5065 10.5075 12.5162 10.449Z" fill="white"/>
<path d="M39.9973 37.3556C39.9973 37.3458 39.9973 37.3361 39.9973 37.3264C39.9973 37.2485 39.9875 37.1706 39.9875 37.0829C39.9291 35.1548 39.8025 30.646 35.5761 29.2047C35.5469 29.195 35.508 29.1853 35.4788 29.1755C31.0869 28.0556 27.435 25.5237 27.3961 25.4945C26.8021 25.0758 25.9841 25.2218 25.5653 25.8159C25.1466 26.4099 25.2927 27.2279 25.8867 27.6466C26.0522 27.7635 29.928 30.461 34.7776 31.7074C37.0466 32.5157 37.2998 34.9405 37.368 37.1608C37.368 37.2485 37.368 37.3264 37.3777 37.4043C37.3874 38.2807 37.329 39.6343 37.1732 40.4134C35.5956 41.3093 29.4119 44.406 20.0048 44.406C10.6367 44.406 4.41404 41.2995 2.82672 40.4036C2.67091 39.6246 2.60274 38.271 2.62222 37.3945C2.62222 37.3166 2.63195 37.2387 2.63195 37.1511C2.70012 34.9308 2.95331 32.506 5.2223 31.6977C10.0719 30.4512 13.9477 27.744 14.1132 27.6369C14.7073 27.2182 14.8533 26.4001 14.4346 25.8061C14.0159 25.2121 13.1979 25.066 12.6038 25.4848C12.5649 25.514 8.93254 28.0459 4.52116 29.1658C4.4822 29.1755 4.45299 29.1853 4.42378 29.195C0.197414 30.646 0.0708177 35.1548 0.0123888 37.0732C0.0123888 37.1608 0.0123885 37.2387 0.00265038 37.3166C0.00265038 37.3264 0.00265038 37.3361 0.00265038 37.3458C-0.00708778 37.8522 -0.0168257 40.4523 0.499297 41.7572C0.596678 42.0104 0.771965 42.2247 1.00568 42.3707C1.29783 42.5655 8.29956 47.0256 20.0146 47.0256C31.7296 47.0256 38.7313 42.5558 39.0235 42.3707C39.2474 42.2247 39.4325 42.0104 39.5298 41.7572C40.0168 40.4621 40.007 37.862 39.9973 37.3556Z" fill="white"/>
</svg>
